Cambay Devanagari-Bold Oblique.ufo
<glyph name="exclam" format="1">
  <advance width="297"/>
  <unicode hex="0021"/>
  <outline>
    <contour>
      <point x="110" y="90" type="line"/>
      <point x="180" y="90" type="line"/>
      <point x="267" y="493" type="line"/>
      <point x="180" y="493" type="line"/>
    </contour>
    <contour>
      <point x="150" y="-57"/>
      <point x="172" y="-39"/>
      <point x="176" y="-15" type="curve" smooth="yes"/>
      <point x="183" y="17"/>
      <point x="163" y="41"/>
      <point x="133" y="41" type="curve" smooth="yes"/>
      <point x="107" y="41"/>
      <point x="86" y="23"/>
      <point x="81" y="-1" type="curve" smooth="yes"/>
      <point x="75" y="-33"/>
      <point x="94" y="-57"/>
      <point x="124" y="-57" type="curve" smooth="yes"/>
    </contour>
  </outline>
</glyph>
<glyph name="numbersign" format="1">
  <advance width="573"/>
  <unicode hex="0023"/>
  <outline>
    <contour>
      <point x="289" y="494" type="line"/>
      <point x="262" y="357" type="line"/>
      <point x="351" y="357" type="line"/>
      <point x="378" y="494" type="line"/>
      <point x="454" y="494" type="line"/>
      <point x="427" y="357" type="line"/>
      <point x="547" y="357" type="line"/>
      <point x="533" y="285" type="line"/>
      <point x="413" y="285" type="line"/>
      <point x="393" y="179" type="line"/>
      <point x="513" y="179" type="line"/>
      <point x="499" y="107" type="line"/>
      <point x="379" y="107" type="line"/>
      <point x="351" y="-37" type="line"/>
      <point x="275" y="-37" type="line"/>
      <point x="303" y="107" type="line"/>
      <point x="214" y="107" type="line"/>
      <point x="186" y="-37" type="line"/>
      <point x="111" y="-37" type="line"/>
      <point x="139" y="107" type="line"/>
      <point x="26" y="107" type="line"/>
      <point x="40" y="179" type="line"/>
      <point x="153" y="179" type="line"/>
      <point x="173" y="285" type="line"/>
      <point x="59" y="285" type="line"/>
      <point x="73" y="357" type="line"/>
      <point x="187" y="357" type="line"/>
      <point x="214" y="494" type="line"/>
    </contour>
    <contour>
      <point x="317" y="179" type="line"/>
      <point x="337" y="285" type="line"/>
      <point x="248" y="285" type="line"/>
      <point x="228" y="179" type="line"/>
    </contour>
  </outline>
</glyph>
<glyph name="dollar" format="1">
  <advance width="381"/>
  <unicode hex="0024"/>
  <outline>
    <contour>
      <point x="237" y="530" type="line"/>
      <point x="237" y="413" type="line"/>
      <point x="157" y="413" type="line"/>
      <point x="157" y="530" type="line"/>
    </contour>
    <contour>
      <point x="237" y="70" type="line"/>
      <point x="237" y="-47" type="line"/>
      <point x="157" y="-47" type="line"/>
      <point x="157" y="70" type="line"/>
    </contour>
    <component base="s" yOffset="60"/>
  </outline>
</glyph>
<glyph name="percent" format="1">
  <advance width="514"/>
  <unicode hex="0025"/>
  <outline>
    <contour>
      <point x="419" y="466" type="line"/>
      <point x="504" y="466" type="line"/>
      <point x="94" y="0" type="line"/>
      <point x="10" y="0" type="line"/>
    </contour>
    <contour>
      <point x="479" y="75"/>
      <point x="444" y="0"/>
      <point x="354" y="0" type="curve" smooth="yes"/>
      <point x="298" y="0"/>
      <point x="268" y="43"/>
      <point x="268" y="89" type="curve" smooth="yes"/>
      <point x="268" y="154"/>
      <point x="304" y="229"/>
      <point x="396" y="229" type="curve" smooth="yes"/>
      <point x="448" y="229"/>
      <point x="479" y="186"/>
      <point x="479" y="140" type="curve" smooth="yes"/>
    </contour>
    <contour>
      <point x="349" y="164"/>
      <point x="336" y="122"/>
      <point x="336" y="99" type="curve" smooth="yes"/>
      <point x="336" y="76"/>
      <point x="349" y="66"/>
      <point x="366" y="66" type="curve" smooth="yes"/>
      <point x="400" y="66"/>
      <point x="413" y="109"/>
      <point x="413" y="128" type="curve" smooth="yes"/>
      <point x="413" y="150"/>
      <point x="403" y="164"/>
      <point x="383" y="164" type="curve" smooth="yes"/>
    </contour>
    <contour>
      <point x="243" y="312"/>
      <point x="207" y="237"/>
      <point x="117" y="237" type="curve" smooth="yes"/>
      <point x="61" y="237"/>
      <point x="32" y="280"/>
      <point x="32" y="326" type="curve" smooth="yes"/>
      <point x="32" y="391"/>
      <point x="67" y="466"/>
      <point x="159" y="466" type="curve" smooth="yes"/>
      <point x="211" y="466"/>
      <point x="243" y="423"/>
      <point x="243" y="377" type="curve" smooth="yes"/>
    </contour>
    <contour>
      <point x="112" y="401"/>
      <point x="99" y="359"/>
      <point x="99" y="336" type="curve" smooth="yes"/>
      <point x="99" y="313"/>
      <point x="112" y="303"/>
      <point x="129" y="303" type="curve" smooth="yes"/>
      <point x="163" y="303"/>
      <point x="176" y="346"/>
      <point x="176" y="365" type="curve" smooth="yes"/>
      <point x="176" y="387"/>
      <point x="166" y="401"/>
      <point x="146" y="401" type="curve" smooth="yes"/>
    </contour>
  </outline>
</glyph>
<glyph name="ampersand" format="1">
  <advance width="574"/>
  <unicode hex="0026"/>
  <outline>
    <contour>
      <point x="285" y="339" type="curve"/>
      <point x="295" y="327" type="line"/>
      <point x="520" y="0" type="line"/>
      <point x="419" y="0" type="line"/>
      <point x="230" y="278" type="line" smooth="yes"/>
      <point x="228" y="281"/>
      <point x="216" y="295"/>
      <point x="211" y="295" type="curve" smooth="yes"/>
      <point x="186" y="338"/>
      <point x="151" y="376"/>
      <point x="151" y="435" type="curve" smooth="yes"/>
      <point x="151" y="501"/>
      <point x="198" y="568"/>
      <point x="310" y="568" type="curve" smooth="yes"/>
      <point x="374" y="568"/>
      <point x="428" y="532"/>
      <point x="428" y="472" type="curve" smooth="yes"/>
      <point x="428" y="411"/>
      <point x="399" y="370"/>
      <point x="277" y="284" type="curve"/>
      <point x="278" y="281"/>
      <point x="271" y="283"/>
      <point x="271" y="285" type="curve" smooth="yes"/>
      <point x="272" y="282"/>
      <point x="266" y="275"/>
      <point x="263" y="277" type="curve"/>
      <point x="183" y="212"/>
      <point x="137" y="182"/>
      <point x="137" y="117" type="curve" smooth="yes"/>
      <point x="137" y="84"/>
      <point x="159" y="66"/>
      <point x="196" y="66" type="curve" smooth="yes"/>
      <point x="248" y="66"/>
      <point x="275" y="97"/>
      <point x="342" y="152" type="curve"/>
      <point x="364" y="174" type="line"/>
      <point x="492" y="288" type="line"/>
      <point x="539" y="231" type="line"/>
      <point x="405" y="110" type="line"/>
      <point x="376" y="83" type="line"/>
      <point x="317" y="36"/>
      <point x="264" y="-18"/>
      <point x="184" y="-18" type="curve" smooth="yes"/>
      <point x="104" y="-18"/>
      <point x="50" y="28"/>
      <point x="50" y="96" type="curve" smooth="yes"/>
      <point x="50" y="179"/>
      <point x="86" y="233"/>
      <point x="227" y="333" type="curve"/>
      <point x="227" y="336"/>
      <point x="235" y="344"/>
      <point x="235" y="346" type="curve" smooth="yes"/>
      <point x="234" y="343"/>
      <point x="237" y="341"/>
      <point x="240" y="340" type="curve"/>
      <point x="267" y="359"/>
      <point x="326" y="397"/>
      <point x="334" y="439" type="curve" smooth="yes"/>
      <point x="339" y="465"/>
      <point x="326" y="485"/>
      <point x="294" y="485" type="curve" smooth="yes"/>
      <point x="266" y="485"/>
      <point x="247" y="472"/>
      <point x="243" y="452" type="curve" smooth="yes"/>
      <point x="235" y="413"/>
      <point x="251" y="387"/>
    </contour>
  </outline>
</glyph>
<glyph name="quotesingle" format="1">
  <advance width="165"/>
  <unicode hex="0027"/>
  <outline>
    <contour>
      <point x="124" y="514" type="line" smooth="yes"/>
      <point x="127" y="538"/>
      <point x="117" y="565"/>
      <point x="82" y="565" type="curve" smooth="yes"/>
      <point x="47" y="565"/>
      <point x="37" y="538"/>
      <point x="40" y="514" type="curve" smooth="yes"/>
      <point x="57" y="375" type="line"/>
      <point x="107" y="375" type="line"/>
    </contour>
  </outline>
</glyph>
<glyph name="parenleft" format="1">
  <advance width="338"/>
  <unicode hex="0028"/>
  <outline>
    <contour>
      <point x="198" y="427"/>
      <point x="308" y="570" type="curve"/>
      <point x="257" y="606" type="line"/>
      <point x="132" y="452"/>
      <point x="53" y="315"/>
      <point x="53" y="147" type="curve" smooth="yes"/>
      <point x="53" y="40"/>
      <point x="81" y="-75"/>
      <point x="114" y="-151" type="curve"/>
      <point x="172" y="-127" type="line"/>
      <point x="152" y="-53"/>
      <point x="134" y="37"/>
      <point x="134" y="142" type="curve" smooth="yes"/>
      <point x="134" y="287"/>
    </contour>
  </outline>
</glyph>
<glyph name="parenright" format="1">
  <advance width="338"/>
  <unicode hex="0029"/>
  <outline>
    <contour>
      <point x="140" y="20"/>
      <point x="30" y="-123" type="curve"/>
      <point x="81" y="-159" type="line"/>
      <point x="206" y="-5"/>
      <point x="285" y="132"/>
      <point x="285" y="300" type="curve" smooth="yes"/>
      <point x="285" y="407"/>
      <point x="257" y="522"/>
      <point x="224" y="598" type="curve"/>
      <point x="166" y="574" type="line"/>
      <point x="186" y="500"/>
      <point x="204" y="410"/>
      <point x="204" y="305" type="curve" smooth="yes"/>
      <point x="204" y="160"/>
    </contour>
  </outline>
</glyph>
<glyph name="asterisk" format="1">
  <advance width="487"/>
  <unicode hex="002A"/>
  <outline>
    <contour>
      <point x="285" y="434" type="line"/>
      <point x="394" y="513" type="line"/>
      <point x="427" y="425" type="line"/>
      <point x="303" y="380" type="line"/>
      <point x="410" y="338" type="line"/>
      <point x="341" y="252" type="line"/>
      <point x="264" y="331" type="line"/>
      <point x="258" y="209" type="line"/>
      <point x="159" y="209" type="line"/>
      <point x="202" y="331" type="line"/>
      <point x="91" y="253" type="line"/>
      <point x="60" y="339" type="line"/>
      <point x="185" y="383" type="line"/>
      <point x="77" y="425" type="line"/>
      <point x="144" y="513" type="line"/>
      <point x="222" y="434" type="line"/>
      <point x="226" y="557" type="line"/>
      <point x="325" y="557" type="line"/>
    </contour>
  </outline>
</glyph>
<glyph name="period" format="1">
  <advance width="184"/>
  <unicode hex="002E"/>
  <outline>
    <contour>
      <point x="126" y="-11"/>
      <point x="149" y="15"/>
      <point x="149" y="50" type="curve" smooth="yes"/>
      <point x="149" y="80"/>
      <point x="127" y="103"/>
      <point x="98" y="103" type="curve" smooth="yes"/>
      <point x="60" y="103"/>
      <point x="35" y="78"/>
      <point x="35" y="42" type="curve" smooth="yes"/>
      <point x="35" y="12"/>
      <point x="57" y="-11"/>
      <point x="86" y="-11" type="curve" smooth="yes"/>
    </contour>
  </outline>
</glyph>
<glyph name="two" format="1">
  <advance width="396"/>
  <unicode hex="0032"/>
  <outline>
    <contour>
      <point x="116" y="367"/>
      <point x="164" y="397"/>
      <point x="221" y="397" type="curve" smooth="yes"/>
      <point x="267" y="397"/>
      <point x="286" y="375"/>
      <point x="286" y="350" type="curve" smooth="yes"/>
      <point x="286" y="270"/>
      <point x="171" y="188"/>
      <point x="20" y="73" type="curve"/>
      <point x="20" y="0" type="line"/>
      <point x="319" y="0" type="line"/>
      <point x="334" y="75" type="line"/>
      <point x="138" y="75" type="line"/>
      <point x="316" y="218"/>
      <point x="370" y="283"/>
      <point x="370" y="358" type="curve" smooth="yes"/>
      <point x="370" y="433"/>
      <point x="309" y="475"/>
      <point x="232" y="475" type="curve" smooth="yes"/>
      <point x="160" y="475"/>
      <point x="104" y="448"/>
      <point x="67" y="430" type="curve"/>
      <point x="89" y="355" type="line"/>
    </contour>
  </outline>
</glyph>
<glyph name="three" format="1">
  <advance width="387"/>
  <unicode hex="0033"/>
  <outline>
    <contour>
      <point x="131" y="476"/>
      <point x="82" y="461"/>
      <point x="33" y="438" type="curve"/>
      <point x="64" y="361" type="line"/>
      <point x="111" y="382"/>
      <point x="148" y="394"/>
      <point x="181" y="394" type="curve" smooth="yes"/>
      <point x="208" y="394"/>
      <point x="246" y="384"/>
      <point x="246" y="342" type="curve" smooth="yes"/>
      <point x="246" y="304"/>
      <point x="227" y="271"/>
      <point x="131" y="271" type="curve"/>
      <point x="131" y="195" type="line"/>
      <point x="139" y="195" type="line" smooth="yes"/>
      <point x="229" y="195"/>
      <point x="267" y="177"/>
      <point x="267" y="127" type="curve" smooth="yes"/>
      <point x="267" y="85"/>
      <point x="233" y="70"/>
      <point x="181" y="70" type="curve" smooth="yes"/>
      <point x="138" y="70"/>
      <point x="100" y="87"/>
      <point x="56" y="106" type="curve"/>
      <point x="28" y="29" type="line"/>
      <point x="76" y="7"/>
      <point x="124" y="-10"/>
      <point x="188" y="-10" type="curve" smooth="yes"/>
      <point x="283" y="-10"/>
      <point x="352" y="34"/>
      <point x="352" y="124" type="curve" smooth="yes"/>
      <point x="352" y="190"/>
      <point x="313" y="220"/>
      <point x="264" y="236" type="curve"/>
      <point x="302" y="256"/>
      <point x="332" y="296"/>
      <point x="332" y="347" type="curve" smooth="yes"/>
      <point x="332" y="427"/>
      <point x="274" y="476"/>
      <point x="181" y="476" type="curve" smooth="yes"/>
    </contour>
  </outline>
</glyph>
<glyph name="five" format="1">
  <advance width="426"/>
  <unicode hex="0035"/>
  <outline>
    <contour>
      <point x="258" y="228"/>
      <point x="289" y="207"/>
      <point x="280" y="157" type="curve" smooth="yes"/>
      <point x="268" y="97"/>
      <point x="230" y="70"/>
      <point x="154" y="70" type="curve" smooth="yes"/>
      <point x="117" y="70"/>
      <point x="82" y="81"/>
      <point x="52" y="91" type="curve"/>
      <point x="20" y="17" type="line"/>
      <point x="59" y="3"/>
      <point x="111" y="-9"/>
      <point x="158" y="-9" type="curve" smooth="yes"/>
      <point x="247" y="-9"/>
      <point x="337" y="27"/>
      <point x="359" y="140" type="curve" smooth="yes"/>
      <point x="378" y="237"/>
      <point x="333" y="305"/>
      <point x="218" y="305" type="curve" smooth="yes"/>
      <point x="201" y="305"/>
      <point x="194" y="305"/>
      <point x="173" y="303" type="curve"/>
      <point x="192" y="394" type="line"/>
      <point x="392" y="394" type="line"/>
      <point x="406" y="466" type="line"/>
      <point x="126" y="466" type="line"/>
      <point x="80" y="228" type="line"/>
      <point x="95" y="218" type="line"/>
      <point x="124" y="222"/>
      <point x="160" y="228"/>
      <point x="189" y="228" type="curve" smooth="yes"/>
    </contour>
  </outline>
</glyph>
<glyph name="six" format="1">
  <advance width="385"/>
  <unicode hex="0036"/>
  <outline>
    <contour>
      <point x="113" y="186"/>
      <point x="146" y="210"/>
      <point x="201" y="210" type="curve" smooth="yes"/>
      <point x="254" y="210"/>
      <point x="278" y="184"/>
      <point x="278" y="141" type="curve" smooth="yes"/>
      <point x="278" y="92"/>
      <point x="248" y="67"/>
      <point x="199" y="67" type="curve" smooth="yes"/>
      <point x="143" y="67"/>
      <point x="96" y="110"/>
      <point x="103" y="218" type="curve" smooth="yes"/>
      <point x="103" y="221"/>
      <point x="106" y="224"/>
      <point x="106" y="227" type="curve"/>
      <point x="106" y="324"/>
      <point x="149" y="401"/>
      <point x="317" y="396" type="curve"/>
      <point x="309" y="476" type="line"/>
      <point x="116" y="475"/>
      <point x="22" y="381"/>
      <point x="22" y="211" type="curve" smooth="yes"/>
      <point x="22" y="80"/>
      <point x="75" y="-10"/>
      <point x="200" y="-10" type="curve" smooth="yes"/>
      <point x="306" y="-10"/>
      <point x="360" y="53"/>
      <point x="360" y="142" type="curve" smooth="yes"/>
      <point x="360" y="239"/>
      <point x="288" y="287"/>
      <point x="205" y="287" type="curve" smooth="yes"/>
      <point x="147" y="287"/>
      <point x="109" y="268"/>
      <point x="80" y="247" type="curve"/>
      <point x="83" y="161" type="line"/>
    </contour>
  </outline>
</glyph>
<glyph name="seven" format="1">
  <advance width="375"/>
  <unicode hex="0037"/>
  <outline>
    <contour>
      <point x="65" y="466" type="line"/>
      <point x="50" y="391" type="line"/>
      <point x="252" y="391" type="line"/>
      <point x="20" y="0" type="line"/>
      <point x="111" y="0" type="line"/>
      <point x="355" y="407" type="line"/>
      <point x="355" y="466" type="line"/>
    </contour>
  </outline>
</glyph>
<glyph name="eight" format="1">
  <advance width="380"/>
  <unicode hex="0038"/>
  <outline>
    <contour>
      <point x="224" y="402"/>
      <point x="252" y="384"/>
      <point x="252" y="353" type="curve" smooth="yes"/>
      <point x="252" y="313"/>
      <point x="218" y="292"/>
      <point x="190" y="276" type="curve"/>
      <point x="154" y="296"/>
      <point x="127" y="319"/>
      <point x="127" y="354" type="curve" smooth="yes"/>
      <point x="127" y="383"/>
      <point x="156" y="402"/>
      <point x="190" y="402" type="curve" smooth="yes"/>
    </contour>
    <contour>
      <point x="130" y="62"/>
      <point x="106" y="96"/>
      <point x="106" y="130" type="curve" smooth="yes"/>
      <point x="106" y="172"/>
      <point x="143" y="205"/>
      <point x="190" y="218" type="curve"/>
      <point x="227" y="205"/>
      <point x="278" y="185"/>
      <point x="278" y="133" type="curve" smooth="yes"/>
      <point x="278" y="93"/>
      <point x="249" y="62"/>
      <point x="192" y="62" type="curve" smooth="yes"/>
    </contour>
    <contour>
      <point x="102" y="475"/>
      <point x="49" y="422"/>
      <point x="49" y="360" type="curve"/>
      <point x="49" y="301"/>
      <point x="87" y="270"/>
      <point x="110" y="251" type="curve"/>
      <point x="64" y="220"/>
      <point x="32" y="186"/>
      <point x="32" y="124" type="curve" smooth="yes"/>
      <point x="32" y="51"/>
      <point x="87" y="-10"/>
      <point x="192" y="-10" type="curve" smooth="yes"/>
      <point x="298" y="-10"/>
      <point x="354" y="51"/>
      <point x="354" y="130" type="curve" smooth="yes"/>
      <point x="354" y="185"/>
      <point x="324" y="221"/>
      <point x="271" y="252" type="curve"/>
      <point x="295" y="272"/>
      <point x="330" y="300"/>
      <point x="330" y="360" type="curve"/>
      <point x="330" y="425"/>
      <point x="277" y="475"/>
      <point x="190" y="475" type="curve" smooth="yes"/>
    </contour>
  </outline>
</glyph>
<glyph name="nine" format="1">
  <advance width="388"/>
  <unicode hex="0039"/>
  <outline>
    <contour>
      <point x="269" y="263"/>
      <point x="236" y="246"/>
      <point x="181" y="246" type="curve" smooth="yes"/>
      <point x="128" y="246"/>
      <point x="105" y="282"/>
      <point x="105" y="325" type="curve" smooth="yes"/>
      <point x="105" y="374"/>
      <point x="134" y="398"/>
      <point x="183" y="398" type="curve" smooth="yes"/>
      <point x="239" y="398"/>
      <point x="285" y="356"/>
      <point x="278" y="248" type="curve"/>
      <point x="278" y="245"/>
      <point x="280" y="242"/>
      <point x="280" y="239" type="curve" smooth="yes"/>
      <point x="280" y="132"/>
      <point x="249" y="57"/>
      <point x="55" y="66" type="curve"/>
      <point x="60" y="-10" type="line"/>
      <point x="288" y="-15"/>
      <point x="360" y="77"/>
      <point x="360" y="255" type="curve" smooth="yes"/>
      <point x="360" y="386"/>
      <point x="309" y="476"/>
      <point x="182" y="476" type="curve" smooth="yes"/>
      <point x="76" y="476"/>
      <point x="22" y="413"/>
      <point x="22" y="324" type="curve" smooth="yes"/>
      <point x="22" y="227"/>
      <point x="94" y="169"/>
      <point x="177" y="169" type="curve" smooth="yes"/>
      <point x="235" y="169"/>
      <point x="273" y="183"/>
      <point x="302" y="204" type="curve"/>
      <point x="299" y="284" type="line"/>
    </contour>
  </outline>
</glyph>
<glyph name="colon" format="1">
  <advance width="236"/>
  <unicode hex="003A"/>
  <outline>
    <contour>
      <point x="149" y="-11"/>
      <point x="172" y="12"/>
      <point x="172" y="43" type="curve" smooth="yes"/>
      <point x="172" y="74"/>
      <point x="149" y="97"/>
      <point x="118" y="97" type="curve" smooth="yes"/>
      <point x="87" y="97"/>
      <point x="64" y="74"/>
      <point x="64" y="43" type="curve" smooth="yes"/>
      <point x="64" y="12"/>
      <point x="87" y="-11"/>
      <point x="118" y="-11" type="curve" smooth="yes"/>
    </contour>
    <contour>
      <point x="149" y="217"/>
      <point x="172" y="240"/>
      <point x="172" y="271" type="curve" smooth="yes"/>
      <point x="172" y="302"/>
      <point x="149" y="325"/>
      <point x="118" y="325" type="curve" smooth="yes"/>
      <point x="87" y="325"/>
      <point x="64" y="302"/>
      <point x="64" y="271" type="curve" smooth="yes"/>
      <point x="64" y="240"/>
      <point x="87" y="217"/>
      <point x="118" y="217" type="curve" smooth="yes"/>
    </contour>
  </outline>
</glyph>
<glyph name="less" format="1">
  <advance width="428"/>
  <unicode hex="003C"/>
  <outline>
    <contour>
      <point x="380" y="439" type="line"/>
      <point x="380" y="355" type="line"/>
      <point x="132" y="240" type="line"/>
      <point x="380" y="126" type="line"/>
      <point x="380" y="42" type="line"/>
      <point x="40" y="208" type="line"/>
      <point x="40" y="272" type="line"/>
    </contour>
  </outline>
</glyph>
<glyph name="equal" format="1">
  <advance width="534"/>
  <unicode hex="003D"/>
  <outline>
    <contour>
      <point x="464" y="342" type="line"/>
      <point x="464" y="265" type="line"/>
      <point x="70" y="265" type="line"/>
      <point x="70" y="342" type="line"/>
    </contour>
    <contour>
      <point x="464" y="184" type="line"/>
      <point x="464" y="107" type="line"/>
      <point x="70" y="107" type="line"/>
      <point x="70" y="184" type="line"/>
    </contour>
  </outline>
</glyph>
<glyph name="question" format="1">
  <advance width="421"/>
  <unicode hex="003F"/>
  <outline>
    <contour>
      <point x="391" y="298"/>
      <point x="336" y="259"/>
      <point x="291" y="223" type="curve" smooth="yes"/>
      <point x="249" y="190"/>
      <point x="202" y="168"/>
      <point x="188" y="95" type="curve" smooth="yes"/>
      <point x="184" y="76" type="line"/>
      <point x="92" y="76" type="line"/>
      <point x="95" y="89" type="line" smooth="yes"/>
      <point x="115" y="194"/>
      <point x="180" y="236"/>
      <point x="229" y="272" type="curve" smooth="yes"/>
      <point x="269" y="302"/>
      <point x="295" y="332"/>
      <point x="296" y="361" type="curve" smooth="yes"/>
      <point x="295" y="391"/>
      <point x="273" y="418"/>
      <point x="213" y="418" type="curve" smooth="yes"/>
      <point x="170" y="418"/>
      <point x="127" y="404"/>
      <point x="88" y="385" type="curve"/>
      <point x="76" y="466" type="line"/>
      <point x="136" y="491"/>
      <point x="174" y="502"/>
      <point x="233" y="502" type="curve" smooth="yes"/>
      <point x="313" y="502"/>
      <point x="391" y="468"/>
      <point x="391" y="368" type="curve" smooth="yes"/>
    </contour>
    <contour>
      <point x="148" y="-78"/>
      <point x="173" y="-57"/>
      <point x="178" y="-30" type="curve" smooth="yes"/>
      <point x="185" y="5"/>
      <point x="163" y="32"/>
      <point x="130" y="32" type="curve" smooth="yes"/>
      <point x="101" y="32"/>
      <point x="76" y="11"/>
      <point x="71" y="-16" type="curve" smooth="yes"/>
      <point x="64" y="-51"/>
      <point x="86" y="-78"/>
      <point x="119" y="-78" type="curve" smooth="yes"/>
    </contour>
  </outline>
</glyph>
<glyph name="A" format="1">
  <advance width="536"/>
  <unicode hex="0041"/>
  <outline>
    <contour>
      <point x="486" y="0" type="line"/>
      <point x="391" y="0" type="line"/>
      <point x="363" y="145" type="line"/>
      <point x="157" y="145" type="line"/>
      <point x="77" y="0" type="line"/>
      <point x="-25" y="0" type="line"/>
      <point x="286" y="550" type="line"/>
      <point x="382" y="550" type="line"/>
    </contour>
    <contour>
      <point x="208" y="233" type="line"/>
      <point x="350" y="233" type="line"/>
      <point x="317" y="439" type="line"/>
    </contour>
    <contour>
      <point x="334" y="560" type="move" name="top.cap"/>
    </contour>
  </outline>
</glyph>
<glyph name="B" format="1">
  <advance width="554"/>
  <unicode hex="0042"/>
  <outline>
    <contour>
      <point x="224" y="324" type="line"/>
      <point x="298" y="324" type="line" smooth="yes"/>
      <point x="405" y="324"/>
      <point x="422" y="364"/>
      <point x="422" y="405" type="curve" smooth="yes"/>
      <point x="422" y="441"/>
      <point x="396" y="465"/>
      <point x="319" y="465" type="curve" smooth="yes"/>
      <point x="251" y="465" type="line"/>
    </contour>
    <contour>
      <point x="178" y="86" type="line"/>
      <point x="245" y="86" type="line" smooth="yes"/>
      <point x="385" y="86"/>
      <point x="419" y="116"/>
      <point x="419" y="170" type="curve" smooth="yes"/>
      <point x="419" y="215"/>
      <point x="374" y="242"/>
      <point x="269" y="242" type="curve" smooth="yes"/>
      <point x="208" y="241" type="line"/>
    </contour>
    <contour>
      <point x="486" y="550"/>
      <point x="523" y="478"/>
      <point x="523" y="430" type="curve" smooth="yes"/>
      <point x="523" y="378"/>
      <point x="497" y="328"/>
      <point x="424" y="287" type="curve"/>
      <point x="490" y="273"/>
      <point x="517" y="227"/>
      <point x="517" y="181" type="curve" smooth="yes"/>
      <point x="517" y="121"/>
      <point x="492" y="0"/>
      <point x="254" y="0" type="curve" smooth="yes"/>
      <point x="63" y="0" type="line"/>
      <point x="170" y="550" type="line"/>
      <point x="340" y="550" type="line" smooth="yes"/>
    </contour>
  </outline>
</glyph>
<glyph name="D" format="1">
  <advance width="647"/>
  <unicode hex="0044"/>
  <outline>
    <contour>
      <point x="178" y="89" type="line"/>
      <point x="245" y="89" type="line" smooth="yes"/>
      <point x="447" y="89"/>
      <point x="501" y="191"/>
      <point x="501" y="315" type="curve" smooth="yes"/>
      <point x="501" y="405"/>
      <point x="453" y="462"/>
      <point x="338" y="462" type="curve" smooth="yes"/>
      <point x="251" y="462" type="line"/>
    </contour>
    <contour>
      <point x="542" y="550"/>
      <point x="607" y="424"/>
      <point x="607" y="328" type="curve" smooth="yes"/>
      <point x="607" y="101"/>
      <point x="469" y="0"/>
      <point x="190" y="0" type="curve" smooth="yes"/>
      <point x="63" y="0" type="line"/>
      <point x="170" y="550" type="line"/>
      <point x="349" y="550" type="line" smooth="yes"/>
    </contour>
    <contour>
      <point x="327" y="560" type="move" name="top.cap"/>
    </contour>
  </outline>
</glyph>
<glyph name="E" format="1">
  <advance width="518"/>
  <unicode hex="0045"/>
  <outline>
    <contour>
      <point x="488" y="550" type="line"/>
      <point x="471" y="462" type="line"/>
      <point x="218" y="462" type="line"/>
      <point x="191" y="324" type="line"/>
      <point x="414" y="324" type="line"/>
      <point x="397" y="235" type="line"/>
      <point x="174" y="235" type="line"/>
      <point x="145" y="89" type="line"/>
      <point x="408" y="89" type="line"/>
      <point x="391" y="0" type="line"/>
      <point x="30" y="0" type="line"/>
      <point x="137" y="550" type="line"/>
    </contour>
    <contour>
      <point x="309" y="560" type="move" name="top.cap"/>
    </contour>
  </outline>
</glyph>
<glyph name="F" format="1">
  <advance width="547"/>
  <unicode hex="0046"/>
  <outline>
    <contour>
      <point x="436" y="299" type="line"/>
      <point x="419" y="209" type="line"/>
      <point x="202" y="209" type="line"/>
      <point x="161" y="0" type="line"/>
      <point x="63" y="0" type="line"/>
      <point x="170" y="550" type="line"/>
      <point x="516" y="550" type="line"/>
      <point x="499" y="462" type="line"/>
      <point x="251" y="462" type="line"/>
      <point x="219" y="299" type="line"/>
    </contour>
  </outline>
</glyph>
<glyph name="G" format="1">
  <advance width="597"/>
  <unicode hex="0047"/>
  <outline>
    <contour>
      <point x="295" y="302" type="line"/>
      <point x="279" y="220" type="line"/>
      <point x="426" y="220" type="line"/>
      <point x="404" y="94" type="line"/>
      <point x="369" y="83"/>
      <point x="331" y="78"/>
      <point x="294" y="78" type="curve" smooth="yes"/>
      <point x="205" y="78"/>
      <point x="144" y="134"/>
      <point x="144" y="240" type="curve" smooth="yes"/>
      <point x="144" y="345"/>
      <point x="217" y="469"/>
      <point x="371" y="469" type="curve" smooth="yes"/>
      <point x="424" y="469"/>
      <point x="463" y="459"/>
      <point x="506" y="444" type="curve"/>
      <point x="552" y="516" type="line"/>
      <point x="506" y="539"/>
      <point x="455" y="555"/>
      <point x="385" y="555" type="curve" smooth="yes"/>
      <point x="143" y="555"/>
      <point x="40" y="389"/>
      <point x="40" y="223" type="curve" smooth="yes"/>
      <point x="40" y="100"/>
      <point x="126" y="-9"/>
      <point x="271" y="-9" type="curve" smooth="yes"/>
      <point x="346" y="-9"/>
      <point x="420" y="12"/>
      <point x="482" y="39" type="curve"/>
      <point x="532" y="302" type="line"/>
    </contour>
    <contour>
      <point x="366" y="560" type="move" name="top.cap"/>
    </contour>
    <contour>
      <point x="276" y="-10" type="move" name="bottom"/>
    </contour>
  </outline>
</glyph>
<glyph name="H" format="1">
  <advance width="694"/>
  <unicode hex="0048"/>
  <outline>
    <contour>
      <point x="524" y="0" type="line"/>
      <point x="427" y="0" type="line"/>
      <point x="472" y="230" type="line"/>
      <point x="206" y="230" type="line"/>
      <point x="161" y="0" type="line"/>
      <point x="63" y="0" type="line"/>
      <point x="170" y="550" type="line"/>
      <point x="268" y="550" type="line"/>
      <point x="223" y="319" type="line"/>
      <point x="489" y="319" type="line"/>
      <point x="534" y="550" type="line"/>
      <point x="631" y="550" type="line"/>
    </contour>
  </outline>
</glyph>
<glyph name="I" format="1">
  <advance width="265"/>
  <unicode hex="0049"/>
  <outline>
    <contour>
      <point x="128" y="0" type="line"/>
      <point x="30" y="0" type="line"/>
      <point x="137" y="550" type="line"/>
      <point x="235" y="550" type="line"/>
    </contour>
    <contour>
      <point x="186" y="550" type="move" name="top.cap"/>
    </contour>
  </outline>
</glyph>
<glyph name="J" format="1">
  <advance width="469"/>
  <unicode hex="004A"/>
  <outline>
    <contour>
      <point x="347" y="177" type="line" smooth="yes"/>
      <point x="330" y="89"/>
      <point x="283" y="-7"/>
      <point x="109" y="-7" type="curve" smooth="yes"/>
      <point x="71" y="-7"/>
      <point x="40" y="0"/>
      <point x="16" y="8" type="curve"/>
      <point x="48" y="93" type="line"/>
      <point x="72" y="87"/>
      <point x="96" y="83"/>
      <point x="118" y="83" type="curve" smooth="yes"/>
      <point x="229" y="83"/>
      <point x="246" y="156"/>
      <point x="254" y="196" type="curve" smooth="yes"/>
      <point x="323" y="550" type="line"/>
      <point x="420" y="550" type="line"/>
    </contour>
    <contour>
      <point x="372" y="550" type="move" name="top.cap"/>
    </contour>
  </outline>
</glyph>
<glyph name="K" format="1">
  <advance width="607"/>
  <unicode hex="004B"/>
  <outline>
    <contour>
      <point x="63" y="0" type="line"/>
      <point x="167" y="550" type="line"/>
      <point x="265" y="550" type="line"/>
      <point x="158" y="0" type="line"/>
    </contour>
    <contour>
      <point x="599" y="550" type="line"/>
      <point x="332" y="278" type="line"/>
      <point x="503" y="0" type="line"/>
      <point x="394" y="0" type="line"/>
      <point x="221" y="284" type="line"/>
      <point x="493" y="550" type="line"/>
    </contour>
    <contour>
      <point x="275" y="-10" type="move" name="bottom"/>
    </contour>
  </outline>
</glyph>
<glyph name="L" format="1">
  <advance width="457"/>
  <unicode hex="004C"/>
  <outline>
    <contour>
      <point x="145" y="89" type="line"/>
      <point x="407" y="89" type="line"/>
      <point x="390" y="0" type="line"/>
      <point x="30" y="0" type="line"/>
      <point x="137" y="550" type="line"/>
      <point x="232" y="550" type="line"/>
    </contour>
    <contour>
      <point x="293" y="560" type="move" name="top.cap"/>
    </contour>
    <contour>
      <point x="211" y="-10" type="move" name="bottom"/>
    </contour>
  </outline>
</glyph>
<glyph name="M" format="1">
  <advance width="785"/>
  <unicode hex="004D"/>
  <outline>
    <contour>
      <point x="379" y="249" type="line"/>
      <point x="585" y="550" type="line"/>
      <point x="722" y="550" type="line"/>
      <point x="615" y="0" type="line"/>
      <point x="518" y="0" type="line"/>
      <point x="598" y="415" type="line"/>
      <point x="408" y="141" type="line"/>
      <point x="323" y="141" type="line"/>
      <point x="237" y="415" type="line"/>
      <point x="157" y="0" type="line"/>
      <point x="63" y="0" type="line"/>
      <point x="166" y="550" type="line"/>
      <point x="291" y="550" type="line"/>
    </contour>
  </outline>
</glyph>
<glyph name="N" format="1">
  <advance width="706"/>
  <unicode hex="004E"/>
  <outline>
    <contour>
      <point x="468" y="132" type="line"/>
      <point x="547" y="550" type="line"/>
      <point x="643" y="550" type="line"/>
      <point x="539" y="0" type="line"/>
      <point x="425" y="0" type="line"/>
      <point x="236" y="419" type="line"/>
      <point x="161" y="0" type="line"/>
      <point x="63" y="0" type="line"/>
      <point x="164" y="550" type="line"/>
      <point x="282" y="550" type="line"/>
    </contour>
    <contour>
      <point x="421" y="560" type="move" name="top.cap"/>
    </contour>
    <contour>
      <point x="299" y="0" type="move" name="bottom"/>
    </contour>
  </outline>
</glyph>
<glyph name="P" format="1">
  <advance width="542"/>
  <unicode hex="0050"/>
  <outline>
    <contour>
      <point x="395" y="550"/>
      <point x="517" y="525"/>
      <point x="517" y="410" type="curve" smooth="yes"/>
      <point x="517" y="271"/>
      <point x="421" y="212"/>
      <point x="228" y="211" type="curve"/>
      <point x="167" y="212" type="line"/>
      <point x="128" y="0" type="line"/>
      <point x="30" y="0" type="line"/>
      <point x="137" y="550" type="line"/>
      <point x="310" y="550" type="line" smooth="yes"/>
    </contour>
    <contour>
      <point x="250" y="302" type="line"/>
      <point x="365" y="302"/>
      <point x="413" y="326"/>
      <point x="413" y="394" type="curve" smooth="yes"/>
      <point x="413" y="451"/>
      <point x="353" y="462"/>
      <point x="287" y="462" type="curve" smooth="yes"/>
      <point x="218" y="462" type="line"/>
      <point x="190" y="302" type="line"/>
    </contour>
  </outline>
</glyph>
<glyph name="R" format="1">
  <advance width="581"/>
  <unicode hex="0052"/>
  <outline>
    <contour>
      <point x="435" y="550"/>
      <point x="550" y="521"/>
      <point x="550" y="404" type="curve" smooth="yes"/>
      <point x="550" y="324"/>
      <point x="501" y="262"/>
      <point x="391" y="227" type="curve"/>
      <point x="486" y="0" type="line"/>
      <point x="378" y="0" type="line"/>
      <point x="294" y="214" type="line"/>
      <point x="279" y="213"/>
      <point x="256" y="213"/>
      <point x="241" y="213" type="curve" smooth="yes"/>
      <point x="226" y="213"/>
      <point x="215" y="214"/>
      <point x="200" y="215" type="curve"/>
      <point x="161" y="0" type="line"/>
      <point x="63" y="0" type="line"/>
      <point x="170" y="550" type="line"/>
      <point x="353" y="550" type="line" smooth="yes"/>
    </contour>
    <contour>
      <point x="240" y="301"/>
      <point x="255" y="301"/>
      <point x="273" y="301" type="curve" smooth="yes"/>
      <point x="390" y="301"/>
      <point x="446" y="326"/>
      <point x="446" y="395" type="curve" smooth="yes"/>
      <point x="446" y="451"/>
      <point x="386" y="462"/>
      <point x="320" y="462" type="curve" smooth="yes"/>
      <point x="251" y="462" type="line"/>
      <point x="223" y="304" type="line"/>
    </contour>
    <contour>
      <point x="344" y="560" type="move" name="top.cap"/>
    </contour>
    <contour>
      <point x="273" y="-10" type="move" name="bottom"/>
    </contour>
  </outline>
</glyph>
<glyph name="S" format="1">
  <advance width="574"/>
  <unicode hex="0053"/>
  <outline>
    <contour>
      <point x="270" y="463"/>
      <point x="232" y="424"/>
      <point x="232" y="390" type="curve" smooth="yes"/>
      <point x="231" y="307"/>
      <point x="484" y="316"/>
      <point x="486" y="171" type="curve" smooth="yes"/>
      <point x="486" y="102"/>
      <point x="444" y="-9"/>
      <point x="232" y="-9" type="curve" smooth="yes"/>
      <point x="159" y="-9"/>
      <point x="97" y="8"/>
      <point x="40" y="34" type="curve"/>
      <point x="88" y="121" type="line"/>
      <point x="167" y="88"/>
      <point x="212" y="85"/>
      <point x="247" y="85" type="curve" smooth="yes"/>
      <point x="334" y="85"/>
      <point x="388" y="125"/>
      <point x="380" y="159" type="curve" smooth="yes"/>
      <point x="378" y="244"/>
      <point x="128" y="227"/>
      <point x="128" y="374" type="curve" smooth="yes"/>
      <point x="128" y="463"/>
      <point x="200" y="555"/>
      <point x="374" y="555" type="curve" smooth="yes"/>
      <point x="452" y="555"/>
      <point x="506" y="531"/>
      <point x="534" y="518" type="curve"/>
      <point x="483" y="432" type="line"/>
      <point x="443" y="449"/>
      <point x="402" y="463"/>
      <point x="349" y="463" type="curve" smooth="yes"/>
    </contour>
    <contour>
      <point x="370" y="560" type="move" name="top.cap"/>
    </contour>
    <contour>
      <point x="221" y="-10" type="move" name="bottom"/>
    </contour>
  </outline>
</glyph>
<glyph name="T" format="1">
  <advance width="489"/>
  <unicode hex="0054"/>
  <outline>
    <contour>
      <point x="502" y="462" type="line"/>
      <point x="328" y="462" type="line"/>
      <point x="238" y="0" type="line"/>
      <point x="140" y="0" type="line"/>
      <point x="230" y="462" type="line"/>
      <point x="50" y="462" type="line"/>
      <point x="67" y="550" type="line"/>
      <point x="519" y="550" type="line"/>
    </contour>
    <contour>
      <point x="293" y="560" type="move" name="top.cap"/>
    </contour>
    <contour>
      <point x="188" y="-10" type="move" name="bottom"/>
    </contour>
  </outline>
</glyph>
<glyph name="U" format="1">
  <advance width="594"/>
  <unicode hex="0055"/>
  <outline>
    <contour>
      <point x="36" y="-9"/>
      <point x="39" y="139"/>
      <point x="52" y="206" type="curve" smooth="yes"/>
      <point x="119" y="550" type="line"/>
      <point x="216" y="550" type="line"/>
      <point x="149" y="207" type="line" smooth="yes"/>
      <point x="137" y="136"/>
      <point x="146" y="82"/>
      <point x="244" y="82" type="curve" smooth="yes"/>
      <point x="345" y="82"/>
      <point x="388" y="122"/>
      <point x="403" y="201" type="curve" smooth="yes"/>
      <point x="471" y="550" type="line"/>
      <point x="569" y="550" type="line"/>
      <point x="501" y="202" type="line" smooth="yes"/>
      <point x="488" y="135"/>
      <point x="469" y="-9"/>
      <point x="239" y="-9" type="curve" smooth="yes"/>
    </contour>
    <contour>
      <point x="345" y="560" type="move" name="top.cap"/>
    </contour>
  </outline>
</glyph>
<glyph name="V" format="1">
  <advance width="529"/>
  <unicode hex="0056"/>
  <outline>
    <contour>
      <point x="191" y="105" type="line"/>
      <point x="415" y="550" type="line"/>
      <point x="518" y="550" type="line"/>
      <point x="238" y="0" type="line"/>
      <point x="115" y="0" type="line"/>
      <point x="11" y="550" type="line"/>
      <point x="123" y="550" type="line"/>
    </contour>
  </outline>
</glyph>
<glyph name="W" format="1">
  <advance width="830"/>
  <unicode hex="0057"/>
  <outline>
    <contour>
      <point x="145" y="128" type="line"/>
      <point x="348" y="550" type="line"/>
      <point x="462" y="550" type="line"/>
      <point x="498" y="128" type="line"/>
      <point x="718" y="550" type="line"/>
      <point x="821" y="550" type="line"/>
      <point x="532" y="0" type="line"/>
      <point x="420" y="0" type="line"/>
      <point x="385" y="423" type="line"/>
      <point x="172" y="0" type="line"/>
      <point x="71" y="0" type="line"/>
      <point x="11" y="550" type="line"/>
      <point x="108" y="550" type="line"/>
    </contour>
  </outline>
</glyph>
<glyph name="X" format="1">
  <advance width="627"/>
  <unicode hex="0058"/>
  <outline>
    <contour>
      <point x="252" y="550" type="line"/>
      <point x="521" y="0" type="line"/>
      <point x="415" y="0" type="line"/>
      <point x="154" y="550" type="line"/>
    </contour>
    <contour>
      <point x="611" y="550" type="line"/>
      <point x="130" y="1" type="line"/>
      <point x="16" y="1" type="line"/>
      <point x="497" y="550" type="line"/>
    </contour>
  </outline>
</glyph>
<glyph name="Y" format="1">
  <advance width="509"/>
  <unicode hex="0059"/>
  <outline>
    <contour>
      <point x="207" y="337" type="line"/>
      <point x="397" y="550" type="line"/>
      <point x="505" y="550" type="line"/>
      <point x="239" y="242" type="line"/>
      <point x="193" y="0" type="line"/>
      <point x="95" y="0" type="line"/>
      <point x="142" y="249" type="line"/>
      <point x="7" y="550" type="line"/>
      <point x="107" y="550" type="line"/>
    </contour>
    <contour>
      <point x="240" y="560" type="move" name="top.cap"/>
    </contour>
  </outline>
</glyph>
<glyph name="Z" format="1">
  <advance width="548"/>
  <unicode hex="005A"/>
  <outline>
    <contour>
      <point x="528" y="491" type="line"/>
      <point x="162" y="86" type="line"/>
      <point x="452" y="86" type="line"/>
      <point x="435" y="0" type="line"/>
      <point x="20" y="0" type="line"/>
      <point x="20" y="61" type="line"/>
      <point x="376" y="462" type="line"/>
      <point x="116" y="462" type="line"/>
      <point x="133" y="550" type="line"/>
      <point x="528" y="550" type="line"/>
    </contour>
    <contour>
      <point x="338" y="560" type="move" name="top.cap"/>
    </contour>
  </outline>
</glyph>
<glyph name="backslash" format="1">
  <advance width="322"/>
  <unicode hex="005C"/>
  <outline>
    <contour>
      <point x="317" y="-55" type="line"/>
      <point x="234" y="-55" type="line"/>
      <point x="30" y="570" type="line"/>
      <point x="112" y="570" type="line"/>
    </contour>
  </outline>
</glyph>
<glyph name="asciicircum" format="1">
  <advance width="430"/>
  <unicode hex="005E"/>
  <outline>
    <contour>
      <point x="390" y="418" type="line"/>
      <point x="331" y="362" type="line"/>
      <point x="215" y="479" type="line"/>
      <point x="99" y="362" type="line"/>
      <point x="40" y="418" type="line"/>
      <point x="215" y="598" type="line"/>
    </contour>
  </outline>
</glyph>
<glyph name="a" format="1">
  <advance width="420"/>
  <unicode hex="0061"/>
  <outline>
    <contour>
      <point x="381" y="390"/>
      <point x="396" y="317"/>
      <point x="381" y="228" type="curve" smooth="yes"/>
      <point x="343" y="0" type="line"/>
      <point x="266" y="0" type="line"/>
      <point x="262" y="31" type="line"/>
      <point x="229" y="8"/>
      <point x="189" y="-9"/>
      <point x="142" y="-9" type="curve" smooth="yes"/>
      <point x="69" y="-9"/>
      <point x="29" y="37"/>
      <point x="29" y="87" type="curve" smooth="yes"/>
      <point x="29" y="159"/>
      <point x="75" y="229"/>
      <point x="215" y="229" type="curve" smooth="yes"/>
      <point x="288" y="229" type="line"/>
      <point x="300" y="294"/>
      <point x="284" y="318"/>
      <point x="211" y="318" type="curve" smooth="yes"/>
      <point x="176" y="318"/>
      <point x="126" y="308"/>
      <point x="95" y="300" type="curve"/>
      <point x="98" y="364" type="line"/>
      <point x="127" y="373"/>
      <point x="192" y="390"/>
      <point x="244" y="390" type="curve" smooth="yes"/>
    </contour>
    <contour>
      <point x="208" y="167" type="line" smooth="yes"/>
      <point x="146" y="167"/>
      <point x="126" y="140"/>
      <point x="126" y="108" type="curve" smooth="yes"/>
      <point x="126" y="80"/>
      <point x="145" y="63"/>
      <point x="182" y="63" type="curve" smooth="yes"/>
      <point x="223" y="63"/>
      <point x="242" y="70"/>
      <point x="267" y="81" type="curve"/>
      <point x="280" y="167" type="line"/>
    </contour>
    <contour>
      <point x="243" y="384" type="move" name="top"/>
    </contour>
  </outline>
</glyph>
<glyph name="b" format="1">
  <advance width="499"/>
  <unicode hex="0062"/>
  <outline>
    <contour>
      <point x="224" y="373" type="line"/>
      <point x="253" y="385"/>
      <point x="282" y="390"/>
      <point x="317" y="390" type="curve" smooth="yes"/>
      <point x="392" y="390"/>
      <point x="469" y="334"/>
      <point x="469" y="227" type="curve" smooth="yes"/>
      <point x="469" y="129"/>
      <point x="412" y="-9"/>
      <point x="250" y="-9" type="curve" smooth="yes"/>
      <point x="201" y="-9"/>
      <point x="159" y="10"/>
      <point x="135" y="26" type="curve"/>
      <point x="120" y="0" type="line"/>
      <point x="53" y="0" type="line"/>
      <point x="160" y="550" type="line"/>
      <point x="256" y="550" type="line"/>
    </contour>
    <contour>
      <point x="253" y="315"/>
      <point x="233" y="314"/>
      <point x="206" y="303" type="curve"/>
      <point x="162" y="84" type="line"/>
      <point x="181" y="74"/>
      <point x="203" y="66"/>
      <point x="233" y="66" type="curve" smooth="yes"/>
      <point x="332" y="66"/>
      <point x="369" y="143"/>
      <point x="369" y="225" type="curve" smooth="yes"/>
      <point x="369" y="292"/>
      <point x="326" y="315"/>
      <point x="274" y="315" type="curve" smooth="yes"/>
    </contour>
  </outline>
</glyph>
<glyph name="c" format="1">
  <advance width="405"/>
  <unicode hex="0063"/>
  <outline>
    <contour>
      <point x="132" y="228"/>
      <point x="132" y="166" type="curve" smooth="yes"/>
      <point x="132" y="107"/>
      <point x="167" y="66"/>
      <point x="231" y="66" type="curve" smooth="yes"/>
      <point x="270" y="66"/>
      <point x="303" y="77"/>
      <point x="337" y="88" type="curve"/>
      <point x="351" y="21" type="line"/>
      <point x="311" y="6"/>
      <point x="261" y="-10"/>
      <point x="190" y="-10" type="curve" smooth="yes"/>
      <point x="88" y="-10"/>
      <point x="29" y="61"/>
      <point x="29" y="151" type="curve" smooth="yes"/>
      <point x="29" y="252"/>
      <point x="91" y="390"/>
      <point x="278" y="390" type="curve" smooth="yes"/>
      <point x="329" y="390"/>
      <point x="371" y="378"/>
      <point x="405" y="361" type="curve"/>
      <point x="363" y="298" type="line"/>
      <point x="333" y="309"/>
      <point x="309" y="315"/>
      <point x="269" y="315" type="curve" smooth="yes"/>
      <point x="168" y="315"/>
    </contour>
    <contour>
      <point x="267" y="384" type="move" name="top"/>
    </contour>
  </outline>
</glyph>
<glyph name="d" format="1">
  <advance width="530"/>
  <unicode hex="0064"/>
  <outline>
    <contour>
      <point x="373" y="0" type="line"/>
      <point x="303" y="0" type="line"/>
      <point x="299" y="23" type="line"/>
      <point x="274" y="7"/>
      <point x="236" y="-9"/>
      <point x="187" y="-9" type="curve" smooth="yes"/>
      <point x="91" y="-9"/>
      <point x="29" y="68"/>
      <point x="29" y="157" type="curve" smooth="yes"/>
      <point x="29" y="277"/>
      <point x="110" y="390"/>
      <point x="257" y="390" type="curve" smooth="yes"/>
      <point x="288" y="390"/>
      <point x="327" y="384"/>
      <point x="352" y="375" type="curve"/>
      <point x="384" y="550" type="line"/>
      <point x="477" y="550" type="line"/>
    </contour>
    <contour>
      <point x="167" y="315"/>
      <point x="131" y="233"/>
      <point x="131" y="161" type="curve" smooth="yes"/>
      <point x="131" y="86"/>
      <point x="173" y="66"/>
      <point x="229" y="66" type="curve" smooth="yes"/>
      <point x="254" y="66"/>
      <point x="282" y="72"/>
      <point x="301" y="83" type="curve"/>
      <point x="340" y="301" type="line"/>
      <point x="317" y="312"/>
      <point x="289" y="315"/>
      <point x="264" y="315" type="curve" smooth="yes"/>
    </contour>
  </outline>
</glyph>
<glyph name="e" format="1">
  <advance width="424"/>
  <unicode hex="0065"/>
  <outline>
    <contour>
      <point x="360" y="390"/>
      <point x="413" y="314"/>
      <point x="390" y="193" type="curve" smooth="yes"/>
      <point x="382" y="153" type="line"/>
      <point x="126" y="156" type="line"/>
      <point x="118" y="87"/>
      <point x="163" y="66"/>
      <point x="233" y="66" type="curve" smooth="yes"/>
      <point x="276" y="66"/>
      <point x="310" y="70"/>
      <point x="339" y="77" type="curve"/>
      <point x="339" y="14" type="line"/>
      <point x="298" y="1"/>
      <point x="249" y="-10"/>
      <point x="195" y="-10" type="curve" smooth="yes"/>
      <point x="83" y="-10"/>
      <point x="30" y="62"/>
      <point x="30" y="146" type="curve" smooth="yes"/>
      <point x="30" y="274"/>
      <point x="117" y="390"/>
      <point x="248" y="390" type="curve" smooth="yes"/>
    </contour>
    <contour>
      <point x="194" y="315"/>
      <point x="149" y="281"/>
      <point x="133" y="217" type="curve"/>
      <point x="304" y="217" type="line"/>
      <point x="317" y="281"/>
      <point x="284" y="315"/>
      <point x="235" y="315" type="curve" smooth="yes"/>
    </contour>
    <contour>
      <point x="247" y="384" type="move" name="top"/>
    </contour>
  </outline>
</glyph>
<glyph name="f" format="1">
  <advance width="337"/>
  <unicode hex="0066"/>
  <outline>
    <contour>
      <point x="119" y="490"/>
      <point x="151" y="554"/>
      <point x="294" y="554" type="curve" smooth="yes"/>
      <point x="323" y="554"/>
      <point x="359" y="547"/>
      <point x="397" y="534" type="curve"/>
      <point x="367" y="465" type="line"/>
      <point x="340" y="474"/>
      <point x="316" y="478"/>
      <point x="291" y="478" type="curve" smooth="yes"/>
      <point x="231" y="478"/>
      <point x="208" y="459"/>
      <point x="201" y="420" type="curve" smooth="yes"/>
      <point x="194" y="384" type="line"/>
      <point x="327" y="384" type="line"/>
      <point x="312" y="309" type="line"/>
      <point x="176" y="309" type="line"/>
      <point x="119" y="0" type="line"/>
      <point x="28" y="0" type="line"/>
      <point x="84" y="309" type="line"/>
      <point x="10" y="309" type="line"/>
      <point x="25" y="384" type="line"/>
      <point x="99" y="384" type="line"/>
      <point x="104" y="411" type="line" smooth="yes"/>
    </contour>
  </outline>
</glyph>
<glyph name="g" format="1">
  <advance width="535"/>
  <unicode hex="0067"/>
  <outline>
    <contour>
      <point x="291" y="0"/>
      <point x="260" y="-9"/>
      <point x="223" y="-9" type="curve" smooth="yes"/>
      <point x="128" y="-9"/>
      <point x="65" y="65"/>
      <point x="65" y="153" type="curve" smooth="yes"/>
      <point x="65" y="279"/>
      <point x="143" y="390"/>
      <point x="288" y="390" type="curve" smooth="yes"/>
      <point x="334" y="390"/>
      <point x="381" y="376"/>
      <point x="405" y="361" type="curve"/>
      <point x="418" y="384" type="line"/>
      <point x="484" y="384" type="line"/>
      <point x="408" y="-6" type="line" smooth="yes"/>
      <point x="391" y="-95"/>
      <point x="342" y="-209"/>
      <point x="175" y="-209" type="curve" smooth="yes"/>
      <point x="133" y="-209"/>
      <point x="92" y="-204"/>
      <point x="29" y="-183" type="curve"/>
      <point x="59" y="-108" type="line"/>
      <point x="104" y="-122"/>
      <point x="128" y="-129"/>
      <point x="170" y="-129" type="curve" smooth="yes"/>
      <point x="274" y="-129"/>
      <point x="302" y="-80"/>
      <point x="320" y="12" type="curve"/>
    </contour>
    <contour>
      <point x="205" y="314"/>
      <point x="167" y="245"/>
      <point x="167" y="165" type="curve" smooth="yes"/>
      <point x="167" y="100"/>
      <point x="209" y="66"/>
      <point x="265" y="66" type="curve" smooth="yes"/>
      <point x="290" y="66"/>
      <point x="316" y="72"/>
      <point x="335" y="83" type="curve"/>
      <point x="375" y="297" type="line"/>
      <point x="352" y="308"/>
      <point x="325" y="314"/>
      <point x="300" y="314" type="curve" smooth="yes"/>
    </contour>
    <contour>
      <point x="297" y="384" type="move" name="top"/>
    </contour>
  </outline>
</glyph>
<glyph name="h" format="1">
  <advance width="498"/>
  <unicode hex="0068"/>
  <outline>
    <contour>
      <point x="278" y="309"/>
      <point x="246" y="305"/>
      <point x="202" y="289" type="curve"/>
      <point x="149" y="0" type="line"/>
      <point x="53" y="0" type="line"/>
      <point x="160" y="550" type="line"/>
      <point x="256" y="550" type="line"/>
      <point x="222" y="363" type="line"/>
      <point x="253" y="375"/>
      <point x="290" y="389"/>
      <point x="336" y="389" type="curve" smooth="yes"/>
      <point x="465" y="389"/>
      <point x="462" y="293"/>
      <point x="446" y="211" type="curve" smooth="yes"/>
      <point x="405" y="0" type="line"/>
      <point x="309" y="0" type="line"/>
      <point x="353" y="228" type="line" smooth="yes"/>
      <point x="361" y="265"/>
      <point x="357" y="309"/>
      <point x="295" y="309" type="curve" smooth="yes"/>
    </contour>
  </outline>
</glyph>
<glyph name="k" format="1">
  <advance width="486"/>
  <unicode hex="006B"/>
  <outline>
    <contour>
      <point x="53" y="0" type="line"/>
      <point x="160" y="550" type="line"/>
      <point x="256" y="550" type="line"/>
      <point x="149" y="0" type="line"/>
    </contour>
    <contour>
      <point x="309" y="201" type="line"/>
      <point x="418" y="0" type="line"/>
      <point x="310" y="0" type="line"/>
      <point x="200" y="211" type="line"/>
      <point x="366" y="384" type="line"/>
      <point x="478" y="384" type="line"/>
    </contour>
    <contour>
      <point x="230" y="0" type="move" name="bottom"/>
    </contour>
  </outline>
</glyph>
<glyph name="l" format="1">
  <advance width="245"/>
  <unicode hex="006C"/>
  <outline>
    <contour>
      <point x="187" y="66"/>
      <point x="204" y="68"/>
      <point x="219" y="72" type="curve"/>
      <point x="202" y="11" type="line"/>
      <point x="186" y="4"/>
      <point x="157" y="-9"/>
      <point x="110" y="-9" type="curve" smooth="yes"/>
      <point x="32" y="-9"/>
      <point x="27" y="43"/>
      <point x="37" y="96" type="curve" smooth="yes"/>
      <point x="125" y="550" type="line"/>
      <point x="219" y="550" type="line"/>
      <point x="138" y="130" type="line" smooth="yes"/>
      <point x="131" y="93"/>
      <point x="136" y="66"/>
      <point x="174" y="66" type="curve" smooth="yes"/>
    </contour>
    <contour>
      <point x="280" y="550" type="move" name="top"/>
    </contour>
    <contour>
      <point x="116" y="0" type="move" name="bottom"/>
    </contour>
  </outline>
</glyph>
<glyph name="m" format="1">
  <advance width="700"/>
  <unicode hex="006D"/>
  <outline>
    <contour>
      <point x="206" y="363"/>
      <point x="261" y="389"/>
      <point x="316" y="389" type="curve" smooth="yes"/>
      <point x="362" y="389"/>
      <point x="379" y="372"/>
      <point x="397" y="347" type="curve"/>
      <point x="419" y="356"/>
      <point x="496" y="389"/>
      <point x="555" y="389" type="curve" smooth="yes"/>
      <point x="678" y="389"/>
      <point x="657" y="269"/>
      <point x="644" y="198" type="curve" smooth="yes"/>
      <point x="605" y="0" type="line"/>
      <point x="510" y="0" type="line"/>
      <point x="554" y="227" type="line" smooth="yes"/>
      <point x="560" y="256"/>
      <point x="559" y="308"/>
      <point x="504" y="308" type="curve" smooth="yes"/>
      <point x="481" y="308"/>
      <point x="457" y="302"/>
      <point x="414" y="288" type="curve"/>
      <point x="417" y="263"/>
      <point x="413" y="237"/>
      <point x="409" y="217" type="curve" smooth="yes"/>
      <point x="367" y="0" type="line"/>
      <point x="271" y="0" type="line"/>
      <point x="315" y="227" type="line" smooth="yes"/>
      <point x="323" y="266"/>
      <point x="319" y="308"/>
      <point x="264" y="308" type="curve" smooth="yes"/>
      <point x="247" y="308"/>
      <point x="225" y="304"/>
      <point x="178" y="288" type="curve"/>
      <point x="125" y="0" type="line"/>
      <point x="30" y="0" type="line"/>
      <point x="105" y="384" type="line"/>
      <point x="174" y="384" type="line"/>
      <point x="182" y="355" type="line"/>
    </contour>
  </outline>
</glyph>
<glyph name="n" format="1">
  <advance width="495"/>
  <unicode hex="006E"/>
  <outline>
    <contour>
      <point x="272" y="309"/>
      <point x="240" y="305"/>
      <point x="196" y="289" type="curve"/>
      <point x="143" y="0" type="line"/>
      <point x="47" y="0" type="line"/>
      <point x="123" y="384" type="line"/>
      <point x="192" y="384" type="line"/>
      <point x="200" y="355" type="line"/>
      <point x="231" y="367"/>
      <point x="274" y="389"/>
      <point x="330" y="389" type="curve" smooth="yes"/>
      <point x="459" y="389"/>
      <point x="458" y="293"/>
      <point x="442" y="211" type="curve" smooth="yes"/>
      <point x="401" y="0" type="line"/>
      <point x="305" y="0" type="line"/>
      <point x="349" y="228" type="line" smooth="yes"/>
      <point x="356" y="265"/>
      <point x="351" y="309"/>
      <point x="289" y="309" type="curve" smooth="yes"/>
    </contour>
    <contour>
      <point x="305" y="384" type="move" name="top"/>
    </contour>
    <contour>
      <point x="223" y="0" type="move" name="bottom"/>
    </contour>
  </outline>
</glyph>
<glyph name="o" format="1">
  <advance width="462"/>
  <unicode hex="006F"/>
  <outline>
    <contour>
      <point x="173" y="315"/>
      <point x="129" y="234"/>
      <point x="129" y="161" type="curve" smooth="yes"/>
      <point x="129" y="99"/>
      <point x="164" y="67"/>
      <point x="211" y="67" type="curve" smooth="yes"/>
      <point x="293" y="67"/>
      <point x="332" y="145"/>
      <point x="332" y="220" type="curve" smooth="yes"/>
      <point x="332" y="283"/>
      <point x="296" y="315"/>
      <point x="249" y="315" type="curve" smooth="yes"/>
    </contour>
    <contour>
      <point x="95" y="-9"/>
      <point x="30" y="70"/>
      <point x="30" y="159" type="curve" smooth="yes"/>
      <point x="30" y="261"/>
      <point x="94" y="390"/>
      <point x="265" y="390" type="curve" smooth="yes"/>
      <point x="368" y="390"/>
      <point x="432" y="314"/>
      <point x="432" y="222" type="curve" smooth="yes"/>
      <point x="432" y="122"/>
      <point x="365" y="-9"/>
      <point x="196" y="-9" type="curve" smooth="yes"/>
    </contour>
    <contour>
      <point x="263" y="384" type="move" name="top"/>
    </contour>
  </outline>
</glyph>
<glyph name="p" format="1">
  <advance width="537"/>
  <unicode hex="0070"/>
  <outline>
    <contour>
      <point x="270" y="372"/>
      <point x="308" y="390"/>
      <point x="367" y="390" type="curve" smooth="yes"/>
      <point x="430" y="390"/>
      <point x="507" y="338"/>
      <point x="507" y="227" type="curve" smooth="yes"/>
      <point x="507" y="129"/>
      <point x="454" y="-9"/>
      <point x="273" y="-9" type="curve" smooth="yes"/>
      <point x="242" y="-9"/>
      <point x="212" y="-2"/>
      <point x="187" y="10" type="curve"/>
      <point x="147" y="-206" type="line"/>
      <point x="51" y="-206" type="line"/>
      <point x="166" y="384" type="line"/>
      <point x="234" y="384" type="line"/>
      <point x="241" y="357" type="line"/>
    </contour>
    <contour>
      <point x="295" y="314"/>
      <point x="272" y="312"/>
      <point x="245" y="301" type="curve"/>
      <point x="207" y="87" type="line"/>
      <point x="222" y="76"/>
      <point x="241" y="66"/>
      <point x="272" y="66" type="curve" smooth="yes"/>
      <point x="371" y="66"/>
      <point x="408" y="135"/>
      <point x="408" y="220" type="curve" smooth="yes"/>
      <point x="408" y="290"/>
      <point x="371" y="314"/>
      <point x="316" y="314" type="curve" smooth="yes"/>
    </contour>
  </outline>
</glyph>
<glyph name="q" format="1">
  <advance width="501"/>
  <unicode hex="0071"/>
  <outline>
    <contour>
      <point x="450" y="384" type="line"/>
      <point x="335" y="-206" type="line"/>
      <point x="239" y="-206" type="line"/>
      <point x="278" y="9" type="line"/>
      <point x="249" y="-3"/>
      <point x="225" y="-9"/>
      <point x="188" y="-9" type="curve" smooth="yes"/>
      <point x="86" y="-9"/>
      <point x="30" y="73"/>
      <point x="30" y="152" type="curve" smooth="yes"/>
      <point x="30" y="275"/>
      <point x="108" y="390"/>
      <point x="253" y="390" type="curve" smooth="yes"/>
      <point x="299" y="390"/>
      <point x="346" y="376"/>
      <point x="370" y="361" type="curve"/>
      <point x="383" y="384" type="line"/>
    </contour>
    <contour>
      <point x="168" y="314"/>
      <point x="132" y="237"/>
      <point x="132" y="159" type="curve" smooth="yes"/>
      <point x="131" y="93"/>
      <point x="173" y="66"/>
      <point x="220" y="66" type="curve" smooth="yes"/>
      <point x="249" y="66"/>
      <point x="277" y="72"/>
      <point x="296" y="83" type="curve"/>
      <point x="334" y="299" type="line"/>
      <point x="311" y="310"/>
      <point x="290" y="314"/>
      <point x="265" y="314" type="curve" smooth="yes"/>
    </contour>
  </outline>
</glyph>
<glyph name="r" format="1">
  <advance width="394"/>
  <unicode hex="0072"/>
  <outline>
    <contour>
      <point x="235" y="375"/>
      <point x="278" y="390"/>
      <point x="321" y="390" type="curve" smooth="yes"/>
      <point x="344" y="390"/>
      <point x="365" y="386"/>
      <point x="385" y="376" type="curve"/>
      <point x="343" y="278" type="line"/>
      <point x="336" y="275" type="line"/>
      <point x="299" y="299"/>
      <point x="244" y="314"/>
      <point x="197" y="297" type="curve"/>
      <point x="141" y="0" type="line"/>
      <point x="47" y="0" type="line"/>
      <point x="122" y="384" type="line"/>
      <point x="191" y="384" type="line"/>
      <point x="199" y="354" type="line"/>
    </contour>
    <contour>
      <point x="269" y="383" type="move" name="top"/>
    </contour>
    <contour>
      <point x="93" y="0" type="move" name="bottom"/>
    </contour>
  </outline>
</glyph>
<glyph name="s" format="1">
  <advance width="421"/>
  <unicode hex="0073"/>
  <outline>
    <contour>
      <point x="109" y="83"/>
      <point x="148" y="70"/>
      <point x="179" y="70" type="curve" smooth="yes"/>
      <point x="252" y="70"/>
      <point x="269" y="89"/>
      <point x="269" y="107" type="curve" smooth="yes"/>
      <point x="269" y="155"/>
      <point x="84" y="166"/>
      <point x="84" y="278" type="curve" smooth="yes"/>
      <point x="84" y="321"/>
      <point x="99" y="390"/>
      <point x="266" y="390" type="curve"/>
      <point x="310" y="390"/>
      <point x="367" y="374"/>
      <point x="393" y="362" type="curve"/>
      <point x="352" y="293" type="line"/>
      <point x="329" y="300"/>
      <point x="293" y="312"/>
      <point x="252" y="312" type="curve" smooth="yes"/>
      <point x="183" y="312"/>
      <point x="177" y="299"/>
      <point x="177" y="282" type="curve" smooth="yes"/>
      <point x="177" y="227"/>
      <point x="360" y="219"/>
      <point x="360" y="112" type="curve" smooth="yes"/>
      <point x="360" y="71"/>
      <point x="342" y="-9"/>
      <point x="192" y="-9" type="curve" smooth="yes"/>
      <point x="123" y="-9"/>
      <point x="76" y="8"/>
      <point x="31" y="29" type="curve"/>
      <point x="68" y="99" type="line"/>
    </contour>
    <contour>
      <point x="265" y="384" type="move" name="top"/>
    </contour>
    <contour>
      <point x="198" y="0" type="move" name="bottom"/>
    </contour>
  </outline>
</glyph>
<glyph name="t" format="1">
  <advance width="320"/>
  <unicode hex="0074"/>
  <outline>
    <contour>
      <point x="240" y="4"/>
      <point x="203" y="-9"/>
      <point x="154" y="-9" type="curve" smooth="yes"/>
      <point x="34" y="-9"/>
      <point x="37" y="70"/>
      <point x="50" y="138" type="curve" smooth="yes"/>
      <point x="83" y="309" type="line"/>
      <point x="9" y="309" type="line"/>
      <point x="24" y="384" type="line"/>
      <point x="98" y="384" type="line"/>
      <point x="119" y="494" type="line"/>
      <point x="215" y="494" type="line"/>
      <point x="194" y="384" type="line"/>
      <point x="307" y="384" type="line"/>
      <point x="292" y="309" type="line"/>
      <point x="179" y="309" type="line"/>
      <point x="144" y="128" type="line" smooth="yes"/>
      <point x="138" y="95"/>
      <point x="148" y="69"/>
      <point x="201" y="69" type="curve" smooth="yes"/>
      <point x="227" y="69"/>
      <point x="259" y="76"/>
      <point x="275" y="80" type="curve"/>
      <point x="270" y="14" type="line"/>
    </contour>
    <contour>
      <point x="150" y="1" type="move" name="bottom"/>
    </contour>
  </outline>
</glyph>
<glyph name="u" format="1">
  <advance width="487"/>
  <unicode hex="0075"/>
  <outline>
    <contour>
      <point x="254" y="13"/>
      <point x="207" y="-9"/>
      <point x="153" y="-9" type="curve" smooth="yes"/>
      <point x="22" y="-9"/>
      <point x="44" y="123"/>
      <point x="57" y="189" type="curve" smooth="yes"/>
      <point x="95" y="384" type="line"/>
      <point x="190" y="384" type="line"/>
      <point x="145" y="155" type="line" smooth="yes"/>
      <point x="138" y="118"/>
      <point x="141" y="73"/>
      <point x="204" y="73" type="curve" smooth="yes"/>
      <point x="219" y="73"/>
      <point x="250" y="74"/>
      <point x="289" y="94" type="curve"/>
      <point x="344" y="384" type="line"/>
      <point x="438" y="384" type="line"/>
      <point x="363" y="-1" type="line"/>
      <point x="296" y="-1" type="line"/>
      <point x="288" y="28" type="line"/>
    </contour>
    <contour>
      <point x="267" y="384" type="move" name="top"/>
    </contour>
  </outline>
</glyph>
<glyph name="v" format="1">
  <advance width="414"/>
  <unicode hex="0076"/>
  <outline>
    <contour>
      <point x="83" y="0" type="line"/>
      <point x="11" y="384" type="line"/>
      <point x="110" y="384" type="line"/>
      <point x="148" y="101" type="line"/>
      <point x="293" y="384" type="line"/>
      <point x="398" y="384" type="line"/>
      <point x="183" y="0" type="line"/>
    </contour>
  </outline>
</glyph>
<glyph name="w" format="1">
  <advance width="655"/>
  <unicode hex="0077"/>
  <outline>
    <contour>
      <point x="432" y="105" type="line"/>
      <point x="565" y="384" type="line"/>
      <point x="665" y="384" type="line"/>
      <point x="467" y="0" type="line"/>
      <point x="365" y="0" type="line"/>
      <point x="335" y="272" type="line"/>
      <point x="195" y="0" type="line"/>
      <point x="99" y="0" type="line"/>
      <point x="40" y="384" type="line"/>
      <point x="136" y="384" type="line"/>
      <point x="164" y="105" type="line"/>
      <point x="300" y="384" type="line"/>
      <point x="405" y="384" type="line"/>
    </contour>
  </outline>
</glyph>
<glyph name="x" format="1">
  <advance width="478"/>
  <unicode hex="0078"/>
  <outline>
    <contour>
      <point x="177" y="384" type="line"/>
      <point x="385" y="0" type="line"/>
      <point x="281" y="0" type="line"/>
      <point x="80" y="384" type="line"/>
    </contour>
    <contour>
      <point x="466" y="384" type="line"/>
      <point x="260" y="155" type="line"/>
      <point x="248" y="140" type="line"/>
      <point x="122" y="1" type="line"/>
      <point x="11" y="1" type="line"/>
      <point x="194" y="204" type="line"/>
      <point x="208" y="221" type="line"/>
      <point x="354" y="384" type="line"/>
    </contour>
  </outline>
</glyph>
<glyph name="y" format="1">
  <advance width="435"/>
  <unicode hex="0079"/>
  <outline>
    <contour>
      <point x="136" y="89" type="line"/>
      <point x="301" y="384" type="line"/>
      <point x="401" y="384" type="line"/>
      <point x="51" y="-206" type="line"/>
      <point x="-41" y="-206" type="line"/>
      <point x="73" y="-11" type="line"/>
      <point x="-13" y="384" type="line"/>
      <point x="78" y="384" type="line"/>
    </contour>
    <contour>
      <point x="176" y="384" type="move" name="top"/>
    </contour>
  </outline>
</glyph>
<glyph name="z" format="1">
  <advance width="418"/>
  <unicode hex="007A"/>
  <outline>
    <contour>
      <point x="391" y="333" type="line"/>
      <point x="172" y="81" type="line"/>
      <point x="350" y="81" type="line"/>
      <point x="334" y="0" type="line"/>
      <point x="31" y="0" type="line"/>
      <point x="31" y="49" type="line"/>
      <point x="248" y="300" type="line"/>
      <point x="78" y="300" type="line"/>
      <point x="95" y="384" type="line"/>
      <point x="391" y="384" type="line"/>
    </contour>
    <contour>
      <point x="239" y="384" type="move" name="top"/>
    </contour>
  </outline>
</glyph>
<glyph name="braceleft" format="1">
  <advance width="380"/>
  <unicode hex="007B"/>
  <outline>
    <contour>
      <point x="82" y="165"/>
      <point x="108" y="138"/>
      <point x="98" y="84" type="curve" smooth="yes"/>
      <point x="85" y="16" type="line"/>
      <point x="62" y="-103"/>
      <point x="133" y="-163"/>
      <point x="210" y="-173" type="curve"/>
      <point x="241" y="-95" type="line"/>
      <point x="181" y="-81"/>
      <point x="146" y="-74"/>
      <point x="165" y="24" type="curve" smooth="yes"/>
      <point x="178" y="90" type="line" smooth="yes"/>
      <point x="190" y="152"/>
      <point x="154" y="191"/>
      <point x="129" y="210" type="curve"/>
      <point x="166" y="233"/>
      <point x="213" y="270"/>
      <point x="225" y="332" type="curve" smooth="yes"/>
      <point x="237" y="398" type="line" smooth="yes"/>
      <point x="257" y="496"/>
      <point x="302" y="507"/>
      <point x="365" y="521" type="curve"/>
      <point x="355" y="601" type="line"/>
      <point x="274" y="591"/>
      <point x="188" y="546"/>
      <point x="165" y="427" type="curve" smooth="yes"/>
      <point x="150" y="350" type="line" smooth="yes"/>
      <point x="140" y="296"/>
      <point x="95" y="263"/>
      <point x="35" y="255" type="curve"/>
      <point x="25" y="173" type="line"/>
    </contour>
  </outline>
</glyph>
<glyph name="bar" format="1">
  <advance width="300"/>
  <unicode hex="007C"/>
  <outline>
    <contour>
      <point x="190" y="632" type="line"/>
      <point x="190" y="-189" type="line"/>
    </contour>
    <contour>
      <point x="190" y="632" type="line"/>
      <point x="190" y="-189" type="line"/>
      <point x="110" y="-189" type="line"/>
      <point x="110" y="632" type="line"/>
    </contour>
  </outline>
</glyph>
<glyph name="cent" format="1">
  <advance width="386"/>
  <unicode hex="00A2"/>
  <outline>
    <contour>
      <point x="123" y="173"/>
      <point x="161" y="126"/>
      <point x="234" y="126" type="curve" smooth="yes"/>
      <point x="275" y="126"/>
      <point x="306" y="138"/>
      <point x="338" y="149" type="curve"/>
      <point x="365" y="87" type="line"/>
      <point x="330" y="68"/>
      <point x="287" y="50"/>
      <point x="234" y="50" type="curve" smooth="yes"/>
      <point x="107" y="50"/>
      <point x="29" y="125"/>
      <point x="29" y="245" type="curve" smooth="yes"/>
      <point x="29" y="369"/>
      <point x="107" y="440"/>
      <point x="218" y="440" type="curve" smooth="yes"/>
      <point x="287" y="440"/>
      <point x="327" y="423"/>
      <point x="365" y="405" type="curve"/>
      <point x="338" y="342" type="line"/>
      <point x="306" y="353"/>
      <point x="275" y="365"/>
      <point x="234" y="365" type="curve" smooth="yes"/>
      <point x="155" y="365"/>
      <point x="123" y="318"/>
      <point x="123" y="245" type="curve" smooth="yes"/>
    </contour>
    <contour>
      <point x="257" y="530" type="line"/>
      <point x="257" y="413" type="line"/>
      <point x="177" y="413" type="line"/>
      <point x="177" y="530" type="line"/>
    </contour>
    <contour>
      <point x="257" y="70" type="line"/>
      <point x="257" y="-47" type="line"/>
      <point x="177" y="-47" type="line"/>
      <point x="177" y="70" type="line"/>
    </contour>
  </outline>
</glyph>
<glyph name="yen" format="1">
  <advance width="491"/>
  <unicode hex="00A5"/>
  <outline>
    <contour>
      <point x="228" y="297" type="line"/>
      <point x="358" y="466" type="line"/>
      <point x="451" y="466" type="line"/>
      <point x="281" y="253" type="line"/>
      <point x="376" y="253" type="line"/>
      <point x="363" y="183" type="line"/>
      <point x="250" y="183" type="line"/>
      <point x="242" y="142" type="line"/>
      <point x="355" y="142" type="line"/>
      <point x="341" y="72" type="line"/>
      <point x="228" y="72" type="line"/>
      <point x="214" y="0" type="line"/>
      <point x="136" y="0" type="line"/>
      <point x="148" y="72" type="line"/>
      <point x="40" y="72" type="line"/>
      <point x="54" y="142" type="line"/>
      <point x="160" y="142" type="line"/>
      <point x="168" y="183" type="line"/>
      <point x="62" y="183" type="line"/>
      <point x="75" y="253" type="line"/>
      <point x="164" y="253" type="line"/>
      <point x="77" y="466" type="line"/>
      <point x="165" y="466" type="line"/>
    </contour>
  </outline>
</glyph>
<glyph name="copyright" format="1">
  <advance width="679"/>
  <unicode hex="00A9"/>
  <outline>
    <contour>
      <point x="265" y="179"/>
      <point x="296" y="141"/>
      <point x="354" y="141" type="curve" smooth="yes"/>
      <point x="385" y="141"/>
      <point x="411" y="151"/>
      <point x="435" y="160" type="curve"/>
      <point x="457" y="110" type="line"/>
      <point x="430" y="94"/>
      <point x="397" y="81"/>
      <point x="340" y="81" type="curve" smooth="yes"/>
      <point x="248" y="81"/>
      <point x="190" y="139"/>
      <point x="190" y="236" type="curve" smooth="yes"/>
      <point x="190" y="334"/>
      <point x="249" y="391"/>
      <point x="340" y="391" type="curve" smooth="yes"/>
      <point x="397" y="391"/>
      <point x="430" y="376"/>
      <point x="457" y="363" type="curve"/>
      <point x="435" y="314" type="line"/>
      <point x="411" y="322"/>
      <point x="385" y="333"/>
      <point x="354" y="333" type="curve" smooth="yes"/>
      <point x="295" y="333"/>
      <point x="265" y="296"/>
      <point x="265" y="236" type="curve" smooth="yes"/>
    </contour>
    <contour>
      <point x="55" y="402"/>
      <point x="172" y="519"/>
      <point x="340" y="519" type="curve" smooth="yes"/>
      <point x="506" y="519"/>
      <point x="624" y="402"/>
      <point x="624" y="234" type="curve" smooth="yes"/>
      <point x="624" y="69"/>
      <point x="506" y="-49"/>
      <point x="340" y="-49" type="curve" smooth="yes"/>
      <point x="172" y="-49"/>
      <point x="55" y="69"/>
      <point x="55" y="234" type="curve" smooth="yes"/>
    </contour>
    <contour>
      <point x="123" y="106"/>
      <point x="211" y="19"/>
      <point x="340" y="19" type="curve" smooth="yes"/>
      <point x="477" y="19"/>
      <point x="558" y="106"/>
      <point x="558" y="237" type="curve" smooth="yes"/>
      <point x="558" y="366"/>
      <point x="468" y="454"/>
      <point x="340" y="454" type="curve" smooth="yes"/>
      <point x="211" y="454"/>
      <point x="123" y="366"/>
      <point x="123" y="237" type="curve" smooth="yes"/>
    </contour>
  </outline>
</glyph>
<glyph name="logicalnot" format="1">
  <advance width="485"/>
  <unicode hex="00AC"/>
  <outline>
    <contour>
      <point x="45" y="248" type="line"/>
      <point x="45" y="169" type="line"/>
      <point x="356" y="169" type="line"/>
      <point x="356" y="56" type="line"/>
      <point x="440" y="56" type="line"/>
      <point x="440" y="248" type="line"/>
    </contour>
  </outline>
</glyph>
<glyph name="macron" format="1">
  <advance width="262"/>
  <unicode hex="00AF"/>
  <outline>
    <contour>
      <point x="237" y="447" type="line"/>
      <point x="-15" y="447" type="line"/>
      <point x="-2" y="515" type="line"/>
      <point x="250" y="515" type="line"/>
    </contour>
    <contour>
      <point x="110" y="384" type="move" name="_top"/>
    </contour>
  </outline>
</glyph>
<glyph name="degree" format="1">
  <advance width="265"/>
  <unicode hex="00B0"/>
  <outline>
    <contour>
      <point x="78" y="410"/>
      <point x="103" y="443"/>
      <point x="144" y="443" type="curve" smooth="yes"/>
      <point x="170" y="443"/>
      <point x="188" y="424"/>
      <point x="188" y="401" type="curve" smooth="yes"/>
      <point x="188" y="373"/>
      <point x="170" y="334"/>
      <point x="119" y="334" type="curve" smooth="yes"/>
      <point x="93" y="334"/>
      <point x="78" y="349"/>
      <point x="78" y="378" type="curve"/>
    </contour>
    <contour>
      <point x="176" y="268"/>
      <point x="238" y="310"/>
      <point x="252" y="380" type="curve" smooth="yes"/>
      <point x="267" y="458"/>
      <point x="220" y="508"/>
      <point x="151" y="508" type="curve" smooth="yes"/>
      <point x="86" y="508"/>
      <point x="26" y="464"/>
      <point x="13" y="394" type="curve" smooth="yes"/>
      <point x="-2" y="316"/>
      <point x="42" y="268"/>
      <point x="111" y="268" type="curve" smooth="yes"/>
    </contour>
  </outline>
</glyph>
<glyph name="threesuperior" format="1">
  <advance width="308"/>
  <unicode hex="00B3"/>
  <outline>
    <contour>
      <point x="155" y="465" type="line" smooth="yes"/>
      <point x="198" y="465"/>
      <point x="210" y="477"/>
      <point x="210" y="502" type="curve" smooth="yes"/>
      <point x="210" y="519"/>
      <point x="196" y="527"/>
      <point x="177" y="527" type="curve" smooth="yes"/>
      <point x="156" y="527"/>
      <point x="128" y="519"/>
      <point x="102" y="507" type="curve"/>
      <point x="92" y="570" type="line"/>
      <point x="124" y="585"/>
      <point x="156" y="595"/>
      <point x="186" y="595" type="curve" smooth="yes"/>
      <point x="238" y="595"/>
      <point x="278" y="571"/>
      <point x="278" y="522" type="curve" smooth="yes"/>
      <point x="278" y="481"/>
      <point x="260" y="459"/>
      <point x="227" y="435" type="curve"/>
      <point x="245" y="424"/>
      <point x="261" y="393"/>
      <point x="261" y="367" type="curve" smooth="yes"/>
      <point x="261" y="319"/>
      <point x="233" y="273"/>
      <point x="136" y="273" type="curve" smooth="yes"/>
      <point x="99" y="273"/>
      <point x="57" y="288"/>
      <point x="35" y="297" type="curve"/>
      <point x="70" y="356" type="line"/>
      <point x="81" y="351"/>
      <point x="111" y="339"/>
      <point x="143" y="339" type="curve" smooth="yes"/>
      <point x="181" y="339"/>
      <point x="192" y="351"/>
      <point x="192" y="374" type="curve" smooth="yes"/>
      <point x="192" y="395"/>
      <point x="171" y="403"/>
      <point x="139" y="403" type="curve" smooth="yes"/>
      <point x="117" y="403" type="line"/>
      <point x="129" y="465" type="line"/>
    </contour>
  </outline>
</glyph>
<glyph name="acute" format="1">
  <advance width="244"/>
  <unicode hex="00B4"/>
  <outline>
    <contour>
      <point x="241" y="560" type="line"/>
      <point x="28" y="418" type="line"/>
      <point x="-15" y="473" type="line"/>
      <point x="194" y="630" type="line"/>
    </contour>
    <contour>
      <point x="102" y="384" type="move" name="_top"/>
    </contour>
  </outline>
</glyph>
<glyph name="micro" format="1">
  <advance width="550"/>
  <unicode hex="00B5"/>
  <outline>
    <contour>
      <point x="410" y="384" type="line"/>
      <point x="353" y="101" type="line"/>
      <point x="314" y="81"/>
      <point x="281" y="74"/>
      <point x="257" y="74" type="curve" smooth="yes"/>
      <point x="198" y="74"/>
      <point x="201" y="119"/>
      <point x="213" y="179" type="curve" smooth="yes"/>
      <point x="253" y="384" type="line"/>
      <point x="163" y="384" type="line"/>
      <point x="54" y="-174" type="line"/>
      <point x="141" y="-174" type="line"/>
      <point x="179" y="10" type="line"/>
      <point x="193" y="1"/>
      <point x="215" y="-9"/>
      <point x="243" y="-9" type="curve" smooth="yes"/>
      <point x="282" y="-9"/>
      <point x="319" y="6"/>
      <point x="355" y="25" type="curve"/>
      <point x="361" y="-1" type="line"/>
      <point x="426" y="-1" type="line"/>
      <point x="501" y="384" type="line"/>
    </contour>
  </outline>
</glyph>
<glyph name="periodcentered" format="1">
  <advance width="229"/>
  <unicode hex="00B7"/>
  <outline>
    <contour>
      <point x="148" y="225"/>
      <point x="174" y="252"/>
      <point x="174" y="285" type="curve" smooth="yes"/>
      <point x="174" y="318"/>
      <point x="148" y="344"/>
      <point x="115" y="344" type="curve" smooth="yes"/>
      <point x="82" y="344"/>
      <point x="55" y="318"/>
      <point x="55" y="285" type="curve" smooth="yes"/>
      <point x="55" y="252"/>
      <point x="82" y="225"/>
      <point x="115" y="225" type="curve" smooth="yes"/>
    </contour>
  </outline>
</glyph>
<glyph name="ordmasculine" format="1">
  <advance width="302"/>
  <unicode hex="00BA"/>
  <outline>
    <contour>
      <point x="114" y="509"/>
      <point x="91" y="453"/>
      <point x="91" y="409" type="curve" smooth="yes"/>
      <point x="91" y="371"/>
      <point x="112" y="349"/>
      <point x="141" y="349" type="curve" smooth="yes"/>
      <point x="191" y="349"/>
      <point x="212" y="405"/>
      <point x="212" y="448" type="curve" smooth="yes"/>
      <point x="212" y="487"/>
      <point x="192" y="509"/>
      <point x="162" y="509" type="curve" smooth="yes"/>
    </contour>
    <contour>
      <point x="74" y="302"/>
      <point x="30" y="347"/>
      <point x="30" y="406" type="curve" smooth="yes"/>
      <point x="30" y="466"/>
      <point x="61" y="555"/>
      <point x="170" y="555" type="curve" smooth="yes"/>
      <point x="231" y="555"/>
      <point x="272" y="510"/>
      <point x="272" y="450" type="curve" smooth="yes"/>
      <point x="272" y="386"/>
      <point x="239" y="302"/>
      <point x="134" y="302" type="curve" smooth="yes"/>
    </contour>
  </outline>
</glyph>
<glyph name="onehalf" format="1">
  <advance width="639"/>
  <unicode hex="00BD"/>
  <outline>
    <contour>
      <point x="568" y="550" type="line"/>
      <point x="114" y="0" type="line"/>
      <point x="25" y="0" type="line"/>
      <point x="482" y="550" type="line"/>
    </contour>
    <contour>
      <point x="157" y="239" type="line"/>
      <point x="87" y="239" type="line"/>
      <point x="131" y="477" type="line"/>
      <point x="71" y="461" type="line"/>
      <point x="57" y="517" type="line"/>
      <point x="165" y="550" type="line"/>
      <point x="217" y="550" type="line"/>
    </contour>
    <contour>
      <point x="431" y="302"/>
      <point x="459" y="315"/>
      <point x="506" y="315" type="curve" smooth="yes"/>
      <point x="567" y="315"/>
      <point x="599" y="269"/>
      <point x="599" y="224" type="curve" smooth="yes"/>
      <point x="599" y="174"/>
      <point x="563" y="123"/>
      <point x="484" y="57" type="curve"/>
      <point x="584" y="57" type="line"/>
      <point x="572" y="0" type="line"/>
      <point x="365" y="0" type="line"/>
      <point x="365" y="39" type="line"/>
      <point x="424" y="82"/>
      <point x="530" y="148"/>
      <point x="530" y="214" type="curve" smooth="yes"/>
      <point x="530" y="238"/>
      <point x="515" y="250"/>
      <point x="486" y="250" type="curve" smooth="yes"/>
      <point x="459" y="250"/>
      <point x="434" y="238"/>
      <point x="415" y="229" type="curve"/>
      <point x="407" y="291" type="line"/>
    </contour>
  </outline>
</glyph>
<glyph name="Aring" format="1">
  <advance width="536"/>
  <unicode hex="00C5"/>
  <outline>
    <contour>
      <point x="388" y="516" type="line"/>
      <point x="425" y="538"/>
      <point x="448" y="579"/>
      <point x="448" y="620" type="curve" smooth="yes"/>
      <point x="448" y="673"/>
      <point x="409" y="704"/>
      <point x="363" y="704" type="curve" smooth="yes"/>
      <point x="276" y="704"/>
      <point x="242" y="642"/>
      <point x="242" y="588" type="curve" smooth="yes"/>
      <point x="242" y="561"/>
      <point x="254" y="539"/>
      <point x="271" y="523" type="curve"/>
      <point x="-25" y="0" type="line"/>
      <point x="77" y="0" type="line"/>
      <point x="157" y="145" type="line"/>
      <point x="363" y="145" type="line"/>
      <point x="391" y="0" type="line"/>
      <point x="486" y="0" type="line"/>
    </contour>
    <contour>
      <point x="310" y="626"/>
      <point x="327" y="642"/>
      <point x="348" y="642" type="curve" smooth="yes"/>
      <point x="376" y="642"/>
      <point x="386" y="620"/>
      <point x="381" y="595" type="curve" smooth="yes"/>
      <point x="378" y="578"/>
      <point x="361" y="562"/>
      <point x="342" y="562" type="curve" smooth="yes"/>
      <point x="311" y="562"/>
      <point x="302" y="584"/>
      <point x="307" y="609" type="curve" smooth="yes"/>
    </contour>
    <contour>
      <point x="208" y="233" type="line"/>
      <point x="317" y="439" type="line"/>
      <point x="350" y="233" type="line"/>
    </contour>
  </outline>
</glyph>
<glyph name="AE" format="1">
  <advance width="800"/>
  <unicode hex="00C6"/>
  <outline>
    <contour>
      <point x="367" y="233" type="line"/>
      <point x="412" y="462" type="line"/>
      <point x="365" y="462" type="line"/>
      <point x="220" y="233" type="line"/>
    </contour>
    <contour>
      <point x="165" y="145" type="line"/>
      <point x="71" y="0" type="line"/>
      <point x="-25" y="0" type="line"/>
      <point x="319" y="550" type="line"/>
      <point x="770" y="550" type="line"/>
      <point x="753" y="462" type="line"/>
      <point x="506" y="462" type="line"/>
      <point x="479" y="324" type="line"/>
      <point x="698" y="324" type="line"/>
      <point x="681" y="235" type="line"/>
      <point x="466" y="235" type="line"/>
      <point x="437" y="89" type="line"/>
      <point x="690" y="89" type="line"/>
      <point x="673" y="0" type="line"/>
      <point x="322" y="0" type="line"/>
      <point x="350" y="145" type="line"/>
    </contour>
  </outline>
</glyph>
<glyph name="Eth" format="1">
  <advance width="633"/>
  <unicode hex="00D0"/>
  <outline>
    <contour>
      <point x="9" y="236" type="line"/>
      <point x="26" y="325" type="line"/>
      <point x="346" y="325" type="line"/>
      <point x="329" y="236" type="line"/>
    </contour>
    <component base="D" xOffset="-13"/>
  </outline>
</glyph>
<glyph name="multiply" format="1">
  <advance width="446"/>
  <unicode hex="00D7"/>
  <outline>
    <contour>
      <point x="376" y="121" type="line"/>
      <point x="319" y="64" type="line"/>
      <point x="71" y="313" type="line"/>
      <point x="127" y="370" type="line"/>
    </contour>
    <contour>
      <point x="375" y="313" type="line"/>
      <point x="127" y="64" type="line"/>
      <point x="70" y="121" type="line"/>
      <point x="319" y="370" type="line"/>
    </contour>
  </outline>
</glyph>
<glyph name="Ugrave" format="1">
  <advance width="634"/>
  <unicode hex="00D9"/>
  <outline>
    <contour>
      <point x="253" y="743" type="line"/>
      <point x="205" y="668" type="line"/>
      <point x="417" y="580" type="line"/>
      <point x="457" y="636" type="line"/>
    </contour>
    <component base="U"/>
  </outline>
</glyph>
<glyph name="Uacute" format="1">
  <advance width="634"/>
  <unicode hex="00DA"/>
  <outline>
    <contour>
      <point x="291" y="580" type="line"/>
      <point x="520" y="663" type="line"/>
      <point x="486" y="746" type="line"/>
      <point x="261" y="641" type="line"/>
    </contour>
    <component base="U"/>
  </outline>
</glyph>
<glyph name="Yacute" format="1">
  <advance width="509"/>
  <unicode hex="00DD"/>
  <outline>
    <contour>
      <point x="167" y="580" type="line"/>
      <point x="396" y="663" type="line"/>
      <point x="362" y="746" type="line"/>
      <point x="137" y="641" type="line"/>
    </contour>
    <component base="Y"/>
  </outline>
</glyph>
<glyph name="Thorn" format="1">
  <advance width="553"/>
  <unicode hex="00DE"/>
  <outline>
    <contour>
      <point x="425" y="449"/>
      <point x="522" y="419"/>
      <point x="522" y="298" type="curve" smooth="yes"/>
      <point x="522" y="141"/>
      <point x="396" y="105"/>
      <point x="222" y="105" type="curve" smooth="yes"/>
      <point x="149" y="105" type="line"/>
      <point x="128" y="0" type="line"/>
      <point x="30" y="0" type="line"/>
      <point x="137" y="550" type="line"/>
      <point x="235" y="550" type="line"/>
      <point x="215" y="449" type="line"/>
      <point x="293" y="449" type="line" smooth="yes"/>
    </contour>
    <contour>
      <point x="235" y="194" type="line"/>
      <point x="250" y="194" type="line" smooth="yes"/>
      <point x="372" y="194"/>
      <point x="416" y="208"/>
      <point x="416" y="293" type="curve" smooth="yes"/>
      <point x="416" y="359"/>
      <point x="344" y="360"/>
      <point x="275" y="360" type="curve" smooth="yes"/>
      <point x="266" y="360" type="line"/>
      <point x="198" y="360" type="line"/>
      <point x="166" y="194" type="line"/>
    </contour>
  </outline>
</glyph>
<glyph name="germandbls" format="1">
  <advance width="522"/>
  <unicode hex="00DF"/>
  <outline>
    <contour>
      <point x="418" y="554"/>
      <point x="463" y="487"/>
      <point x="463" y="432" type="curve" smooth="yes"/>
      <point x="463" y="328"/>
      <point x="326" y="303"/>
      <point x="326" y="265" type="curve" smooth="yes"/>
      <point x="326" y="220"/>
      <point x="487" y="222"/>
      <point x="487" y="117" type="curve" smooth="yes"/>
      <point x="487" y="72"/>
      <point x="453" y="-10"/>
      <point x="303" y="-10" type="curve" smooth="yes"/>
      <point x="262" y="-10"/>
      <point x="219" y="-6"/>
      <point x="155" y="13" type="curve"/>
      <point x="193" y="90" type="line"/>
      <point x="251" y="76"/>
      <point x="279" y="73"/>
      <point x="314" y="73" type="curve" smooth="yes"/>
      <point x="365" y="73"/>
      <point x="380" y="84"/>
      <point x="385" y="105" type="curve" smooth="yes"/>
      <point x="398" y="176"/>
      <point x="213" y="168"/>
      <point x="213" y="255" type="curve" smooth="yes"/>
      <point x="213" y="341"/>
      <point x="361" y="353"/>
      <point x="361" y="419" type="curve" smooth="yes"/>
      <point x="361" y="446"/>
      <point x="340" y="465"/>
      <point x="292" y="465" type="curve" smooth="yes"/>
      <point x="277" y="465"/>
      <point x="222" y="460"/>
      <point x="207" y="383" type="curve" smooth="yes"/>
      <point x="132" y="0" type="line"/>
      <point x="37" y="0" type="line"/>
      <point x="110" y="377" type="line" smooth="yes"/>
      <point x="135" y="503"/>
      <point x="206" y="554"/>
      <point x="318" y="554" type="curve" smooth="yes"/>
    </contour>
  </outline>
</glyph>
<glyph name="eth" format="1">
  <advance width="459"/>
  <unicode hex="00F0"/>
  <outline>
    <contour>
      <point x="464" y="477" type="line"/>
      <point x="451" y="539" type="line"/>
      <point x="357" y="502" type="line"/>
      <point x="323" y="535"/>
      <point x="287" y="554"/>
      <point x="266" y="566" type="curve"/>
      <point x="221" y="506" type="line"/>
      <point x="238" y="498"/>
      <point x="263" y="488"/>
      <point x="281" y="473" type="curve"/>
      <point x="224" y="452" type="line"/>
      <point x="238" y="392" type="line"/>
      <point x="325" y="423" type="line"/>
      <point x="336" y="404"/>
      <point x="343" y="381"/>
      <point x="344" y="351" type="curve"/>
      <point x="316" y="359"/>
      <point x="288" y="367"/>
      <point x="258" y="367" type="curve" smooth="yes"/>
      <point x="105" y="367"/>
      <point x="30" y="258"/>
      <point x="30" y="152" type="curve" smooth="yes"/>
      <point x="29" y="58"/>
      <point x="85" y="-9"/>
      <point x="192" y="-9" type="curve" smooth="yes"/>
      <point x="356" y="-9"/>
      <point x="438" y="142"/>
      <point x="438" y="292" type="curve" smooth="yes"/>
      <point x="438" y="356"/>
      <point x="421" y="415"/>
      <point x="398" y="451" type="curve"/>
    </contour>
    <contour>
      <point x="151" y="67"/>
      <point x="120" y="107"/>
      <point x="120" y="158" type="curve" smooth="yes"/>
      <point x="120" y="227"/>
      <point x="164" y="295"/>
      <point x="266" y="295" type="curve" smooth="yes"/>
      <point x="292" y="295"/>
      <point x="318" y="288"/>
      <point x="346" y="277" type="curve"/>
      <point x="330" y="104"/>
      <point x="253" y="67"/>
      <point x="197" y="67" type="curve" smooth="yes"/>
    </contour>
  </outline>
</glyph>
<glyph name="divide" format="1">
  <advance width="484"/>
  <unicode hex="00F7"/>
  <outline>
    <contour>
      <point x="274" y="315"/>
      <point x="298" y="339"/>
      <point x="298" y="370" type="curve" smooth="yes"/>
      <point x="298" y="400"/>
      <point x="274" y="424"/>
      <point x="244" y="424" type="curve" smooth="yes"/>
      <point x="213" y="424"/>
      <point x="189" y="400"/>
      <point x="189" y="370" type="curve" smooth="yes"/>
      <point x="189" y="339"/>
      <point x="213" y="315"/>
      <point x="244" y="315" type="curve" smooth="yes"/>
    </contour>
    <contour>
      <point x="274" y="30"/>
      <point x="298" y="54"/>
      <point x="298" y="85" type="curve" smooth="yes"/>
      <point x="298" y="115"/>
      <point x="274" y="139"/>
      <point x="244" y="139" type="curve" smooth="yes"/>
      <point x="213" y="139"/>
      <point x="189" y="115"/>
      <point x="189" y="85" type="curve" smooth="yes"/>
      <point x="189" y="54"/>
      <point x="213" y="30"/>
      <point x="244" y="30" type="curve" smooth="yes"/>
    </contour>
    <contour>
      <point x="434" y="267" type="line"/>
      <point x="434" y="187" type="line"/>
      <point x="50" y="187" type="line"/>
      <point x="50" y="267" type="line"/>
    </contour>
  </outline>
</glyph>
<glyph name="oslash" format="1">
  <advance width="517"/>
  <unicode hex="00F8"/>
  <outline>
    <contour>
      <point x="498" y="347" type="line"/>
      <point x="63" y="-21" type="line"/>
      <point x="22" y="29" type="line"/>
      <point x="457" y="401" type="line"/>
    </contour>
    <component base="o" xOffset="28"/>
  </outline>
</glyph>
<glyph name="thorn" format="1">
  <advance width="522"/>
  <unicode hex="00FE"/>
  <outline>
    <contour>
      <point x="244" y="368" type="line"/>
      <point x="274" y="383"/>
      <point x="292" y="390"/>
      <point x="339" y="390" type="curve" smooth="yes"/>
      <point x="433" y="390"/>
      <point x="491" y="320"/>
      <point x="491" y="231" type="curve" smooth="yes"/>
      <point x="491" y="129"/>
      <point x="436" y="-9"/>
      <point x="257" y="-9" type="curve" smooth="yes"/>
      <point x="224" y="-9"/>
      <point x="195" y="-2"/>
      <point x="170" y="10" type="curve"/>
      <point x="130" y="-206" type="line"/>
      <point x="36" y="-206" type="line"/>
      <point x="182" y="550" type="line"/>
      <point x="277" y="550" type="line"/>
    </contour>
    <contour>
      <point x="190" y="83" type="line"/>
      <point x="208" y="73"/>
      <point x="225" y="66"/>
      <point x="255" y="66" type="curve" smooth="yes"/>
      <point x="347" y="66"/>
      <point x="392" y="136"/>
      <point x="392" y="214" type="curve" smooth="yes"/>
      <point x="392" y="278"/>
      <point x="350" y="317"/>
      <point x="298" y="317" type="curve" smooth="yes"/>
      <point x="269" y="317"/>
      <point x="247" y="312"/>
      <point x="227" y="300" type="curve"/>
    </contour>
  </outline>
</glyph>
<glyph name="Aogonek" format="1">
  <advance width="537"/>
  <unicode hex="0104"/>
  <outline>
    <contour>
      <point x="361" y="-137"/>
      <point x="349" y="-116"/>
      <point x="356" y="-84" type="curve" smooth="yes"/>
      <point x="361" y="-57"/>
      <point x="389" y="-39"/>
      <point x="524" y="0" type="curve"/>
      <point x="420" y="550" type="line"/>
      <point x="324" y="550" type="line"/>
      <point x="13" y="0" type="line"/>
      <point x="115" y="0" type="line"/>
      <point x="195" y="145" type="line"/>
      <point x="401" y="145" type="line"/>
      <point x="425" y="21" type="line"/>
      <point x="327" y="-16"/>
      <point x="270" y="-43"/>
      <point x="257" y="-106" type="curve" smooth="yes"/>
      <point x="247" y="-159"/>
      <point x="275" y="-200"/>
      <point x="345" y="-200" type="curve" smooth="yes"/>
      <point x="402" y="-200"/>
      <point x="444" y="-180"/>
      <point x="482" y="-160" type="curve"/>
      <point x="471" y="-119" type="line"/>
      <point x="450" y="-126"/>
      <point x="421" y="-137"/>
      <point x="398" y="-137" type="curve" smooth="yes"/>
    </contour>
    <contour>
      <point x="246" y="233" type="line"/>
      <point x="355" y="439" type="line"/>
      <point x="388" y="233" type="line"/>
    </contour>
    <contour>
      <point x="372" y="560" type="move" name="top.cap"/>
    </contour>
  </outline>
</glyph>
<glyph name="dcroat" format="1">
  <advance width="548"/>
  <unicode hex="0111"/>
  <outline>
    <contour>
      <point x="209" y="425" type="line"/>
      <point x="223" y="498" type="line"/>
      <point x="548" y="498" type="line"/>
      <point x="534" y="425" type="line"/>
    </contour>
    <component base="d"/>
  </outline>
</glyph>
<glyph name="Eogonek" format="1">
  <advance width="564"/>
  <unicode hex="0118"/>
  <outline>
    <contour>
      <point x="521" y="550" type="line"/>
      <point x="504" y="462" type="line"/>
      <point x="251" y="462" type="line"/>
      <point x="224" y="324" type="line"/>
      <point x="447" y="324" type="line"/>
      <point x="430" y="235" type="line"/>
      <point x="207" y="235" type="line"/>
      <point x="178" y="89" type="line"/>
      <point x="441" y="89" type="line"/>
      <point x="421" y="0" type="line"/>
      <point x="285" y="-16"/>
      <point x="252" y="-53"/>
      <point x="247" y="-80" type="curve" smooth="yes"/>
      <point x="240" y="-112"/>
      <point x="255" y="-137"/>
      <point x="292" y="-137" type="curve" smooth="yes"/>
      <point x="315" y="-137"/>
      <point x="344" y="-126"/>
      <point x="366" y="-119" type="curve"/>
      <point x="376" y="-160" type="line"/>
      <point x="339" y="-180"/>
      <point x="296" y="-200"/>
      <point x="237" y="-200" type="curve" smooth="yes"/>
      <point x="163" y="-200"/>
      <point x="141" y="-157"/>
      <point x="149" y="-115" type="curve" smooth="yes"/>
      <point x="160" y="-59"/>
      <point x="208" y="-25"/>
      <point x="270" y="-1" type="curve"/>
      <point x="63" y="0" type="line"/>
      <point x="170" y="550" type="line"/>
    </contour>
  </outline>
</glyph>
<glyph name="eogonek" format="1">
  <advance width="423"/>
  <unicode hex="0119"/>
  <outline>
    <contour>
      <point x="116" y="390"/>
      <point x="29" y="274"/>
      <point x="29" y="146" type="curve" smooth="yes"/>
      <point x="29" y="70"/>
      <point x="73" y="3"/>
      <point x="165" y="-8" type="curve"/>
      <point x="126" y="-35"/>
      <point x="97" y="-69"/>
      <point x="89" y="-106" type="curve" smooth="yes"/>
      <point x="79" y="-159"/>
      <point x="108" y="-200"/>
      <point x="176" y="-200" type="curve" smooth="yes"/>
      <point x="234" y="-200"/>
      <point x="277" y="-180"/>
      <point x="314" y="-160" type="curve"/>
      <point x="303" y="-119" type="line"/>
      <point x="282" y="-126"/>
      <point x="247" y="-137"/>
      <point x="224" y="-137" type="curve" smooth="yes"/>
      <point x="190" y="-137"/>
      <point x="181" y="-112"/>
      <point x="188" y="-80" type="curve" smooth="yes"/>
      <point x="201" y="-13"/>
      <point x="286" y="1"/>
      <point x="338" y="14" type="curve"/>
      <point x="338" y="77" type="line"/>
      <point x="309" y="70"/>
      <point x="275" y="66"/>
      <point x="232" y="66" type="curve" smooth="yes"/>
      <point x="162" y="66"/>
      <point x="117" y="87"/>
      <point x="125" y="156" type="curve"/>
      <point x="381" y="153" type="line"/>
      <point x="389" y="193" type="line" smooth="yes"/>
      <point x="412" y="314"/>
      <point x="359" y="390"/>
      <point x="247" y="390" type="curve" smooth="yes"/>
    </contour>
    <contour>
      <point x="132" y="217" type="line"/>
      <point x="148" y="281"/>
      <point x="193" y="315"/>
      <point x="234" y="315" type="curve" smooth="yes"/>
      <point x="283" y="315"/>
      <point x="316" y="281"/>
      <point x="303" y="217" type="curve"/>
    </contour>
    <contour>
      <point x="246" y="384" type="move" name="top"/>
    </contour>
  </outline>
</glyph>
<glyph name="gcommaaccent" format="1">
  <advance width="492"/>
  <unicode hex="0123"/>
  <outline>
    <contour>
      <point x="345" y="450" type="line"/>
      <point x="275" y="450" type="line"/>
      <point x="335" y="626" type="line"/>
      <point x="426" y="626" type="line"/>
    </contour>
    <component base="g"/>
  </outline>
</glyph>
<glyph name="Iogonek" format="1">
  <advance width="277"/>
  <unicode hex="012E"/>
  <outline>
    <contour>
      <point x="18" y="-20"/>
      <point x="-3" y="-47"/>
      <point x="-10" y="-80" type="curve" smooth="yes"/>
      <point x="-16" y="-112"/>
      <point x="-2" y="-137"/>
      <point x="33" y="-137" type="curve" smooth="yes"/>
      <point x="56" y="-137"/>
      <point x="85" y="-126"/>
      <point x="106" y="-119" type="curve"/>
      <point x="118" y="-160" type="line"/>
      <point x="80" y="-180"/>
      <point x="37" y="-200"/>
      <point x="-21" y="-200" type="curve" smooth="yes"/>
      <point x="-87" y="-200"/>
      <point x="-118" y="-159"/>
      <point x="-108" y="-106" type="curve" smooth="yes"/>
      <point x="-96" y="-47"/>
      <point x="-39" y="-1"/>
      <point x="51" y="35" type="curve"/>
      <point x="149" y="550" type="line"/>
      <point x="247" y="550" type="line"/>
      <point x="140" y="17" type="line"/>
    </contour>
  </outline>
</glyph>
<glyph name="iogonek" format="1">
  <advance width="299"/>
  <unicode hex="012F"/>
  <outline>
    <contour>
      <point x="99" y="-18"/>
      <point x="67" y="-45"/>
      <point x="60" y="-80" type="curve" smooth="yes"/>
      <point x="54" y="-112"/>
      <point x="68" y="-137"/>
      <point x="103" y="-137" type="curve" smooth="yes"/>
      <point x="126" y="-137"/>
      <point x="155" y="-126"/>
      <point x="177" y="-119" type="curve"/>
      <point x="188" y="-160" type="line"/>
      <point x="148" y="-180"/>
      <point x="107" y="-200"/>
      <point x="49" y="-200" type="curve" smooth="yes"/>
      <point x="-17" y="-200"/>
      <point x="-48" y="-159"/>
      <point x="-38" y="-106" type="curve" smooth="yes"/>
      <point x="-28" y="-55"/>
      <point x="16" y="-14"/>
      <point x="91" y="19" type="curve"/>
      <point x="160" y="384" type="line"/>
      <point x="255" y="384" type="line"/>
      <point x="182" y="19" type="line"/>
    </contour>
    <component base="dotaccent" xOffset="172"/>
  </outline>
</glyph>
<glyph name="dotlessi" format="1">
  <advance width="269"/>
  <unicode hex="0131"/>
  <outline>
    <contour>
      <point x="145" y="0" type="line"/>
      <point x="49" y="0" type="line"/>
      <point x="124" y="384" type="line"/>
      <point x="220" y="384" type="line"/>
    </contour>
    <contour>
      <point x="172" y="384" type="move" name="top"/>
    </contour>
  </outline>
</glyph>
<glyph name="IJ" format="1">
  <advance width="637"/>
  <unicode hex="0132"/>
  <outline>
    <contour>
      <point x="544" y="177" type="line" smooth="yes"/>
      <point x="527" y="89"/>
      <point x="480" y="-7"/>
      <point x="306" y="-7" type="curve" smooth="yes"/>
      <point x="268" y="-7"/>
      <point x="237" y="0"/>
      <point x="213" y="8" type="curve"/>
      <point x="245" y="93" type="line"/>
      <point x="269" y="87"/>
      <point x="293" y="83"/>
      <point x="315" y="83" type="curve" smooth="yes"/>
      <point x="426" y="83"/>
      <point x="443" y="156"/>
      <point x="451" y="196" type="curve" smooth="yes"/>
      <point x="520" y="550" type="line"/>
      <point x="617" y="550" type="line"/>
    </contour>
    <component base="I"/>
    <contour>
      <point x="569" y="550" type="move" name="top.cap"/>
    </contour>
  </outline>
</glyph>
<glyph name="ij" format="1">
  <advance width="419"/>
  <unicode hex="0133"/>
  <outline>
    <contour>
      <point x="389" y="449"/>
      <point x="418" y="473"/>
      <point x="424" y="503" type="curve" smooth="yes"/>
      <point x="431" y="541"/>
      <point x="407" y="571"/>
      <point x="371" y="571" type="curve" smooth="yes"/>
      <point x="339" y="571"/>
      <point x="311" y="549"/>
      <point x="305" y="517" type="curve" smooth="yes"/>
      <point x="298" y="479"/>
      <point x="321" y="449"/>
      <point x="357" y="449" type="curve" smooth="yes"/>
    </contour>
    <contour>
      <point x="315" y="-26" type="line" smooth="yes"/>
      <point x="296" y="-122"/>
      <point x="270" y="-164"/>
      <point x="143" y="-212" type="curve"/>
      <point x="115" y="-145" type="line"/>
      <point x="180" y="-114"/>
      <point x="207" y="-96"/>
      <point x="226" y="0" type="curve" smooth="yes"/>
      <point x="301" y="384" type="line"/>
      <point x="395" y="384" type="line"/>
    </contour>
    <component base="i"/>
  </outline>
</glyph>
<glyph name="Lcaron" format="1">
  <advance width="507"/>
  <unicode hex="013D"/>
  <outline>
    <contour>
      <point x="383" y="413" type="line"/>
      <point x="309" y="413" type="line"/>
      <point x="384" y="599" type="line"/>
      <point x="487" y="599" type="line"/>
    </contour>
    <component base="L"/>
  </outline>
</glyph>
<glyph name="lcaron" format="1">
  <advance width="296"/>
  <unicode hex="013E"/>
  <outline>
    <contour>
      <point x="325" y="420" type="line"/>
      <point x="255" y="420" type="line"/>
      <point x="315" y="596" type="line"/>
      <point x="406" y="596" type="line"/>
    </contour>
    <component base="l"/>
  </outline>
</glyph>
<glyph name="Lslash" format="1">
  <advance width="468"/>
  <unicode hex="0141"/>
  <outline>
    <contour>
      <point x="349" y="325" type="line"/>
      <point x="0" y="142" type="line"/>
      <point x="22" y="242" type="line"/>
      <point x="371" y="424" type="line"/>
    </contour>
    <contour>
      <point x="187" y="89" type="line"/>
      <point x="448" y="89" type="line"/>
      <point x="431" y="0" type="line"/>
      <point x="73" y="0" type="line"/>
      <point x="180" y="550" type="line"/>
      <point x="274" y="550" type="line"/>
    </contour>
  </outline>
</glyph>
<glyph name="lslash" format="1">
  <advance width="291"/>
  <unicode hex="0142"/>
  <outline>
    <contour>
      <point x="15" y="232" type="line"/>
      <point x="291" y="375" type="line"/>
      <point x="276" y="287" type="line"/>
      <point x="0" y="145" type="line"/>
    </contour>
    <component base="l" xOffset="8"/>
  </outline>
</glyph>
<glyph name="Ncaron" format="1">
  <advance width="640"/>
  <unicode hex="0147"/>
  <outline>
    <contour>
      <point x="298" y="767" type="line"/>
      <point x="389" y="684" type="line"/>
      <point x="518" y="766" type="line"/>
      <point x="556" y="709" type="line"/>
      <point x="380" y="595" type="line"/>
      <point x="245" y="719" type="line"/>
    </contour>
    <component base="N"/>
  </outline>
</glyph>
<glyph name="OE" format="1">
  <advance width="828"/>
  <unicode hex="0152"/>
  <outline>
    <contour>
      <point x="765" y="462" type="line"/>
      <point x="522" y="462" type="line"/>
      <point x="495" y="324" type="line"/>
      <point x="711" y="324" type="line"/>
      <point x="694" y="235" type="line"/>
      <point x="478" y="235" type="line"/>
      <point x="449" y="89" type="line"/>
      <point x="702" y="89" type="line"/>
      <point x="685" y="0" type="line"/>
      <point x="333" y="0" type="line" smooth="yes"/>
      <point x="157" y="0"/>
      <point x="40" y="54"/>
      <point x="40" y="231" type="curve" smooth="yes"/>
      <point x="40" y="369"/>
      <point x="118" y="550"/>
      <point x="396" y="550" type="curve" smooth="yes"/>
      <point x="782" y="550" type="line"/>
    </contour>
    <contour>
      <point x="201" y="462"/>
      <point x="137" y="349"/>
      <point x="137" y="231" type="curve" smooth="yes"/>
      <point x="137" y="140"/>
      <point x="203" y="89"/>
      <point x="307" y="89" type="curve" smooth="yes"/>
      <point x="353" y="89" type="line"/>
      <point x="426" y="462" type="line"/>
      <point x="372" y="462" type="line" smooth="yes"/>
    </contour>
  </outline>
</glyph>
<glyph name="Tcedilla" format="1">
  <advance width="487"/>
  <unicode hex="0162"/>
  <outline>
    <contour>
      <point x="162" y="-141"/>
      <point x="165" y="-135"/>
      <point x="165" y="-128" type="curve" smooth="yes"/>
      <point x="165" y="-118"/>
      <point x="159" y="-111"/>
      <point x="130" y="-103" type="curve" smooth="yes"/>
      <point x="66" y="-85" type="line"/>
      <point x="111" y="31" type="line"/>
      <point x="197" y="0" type="line"/>
      <point x="180" y="-44" type="line"/>
      <point x="231" y="-62"/>
      <point x="245" y="-85"/>
      <point x="245" y="-117" type="curve" smooth="yes"/>
      <point x="245" y="-162"/>
      <point x="210" y="-210"/>
      <point x="134" y="-210" type="curve" smooth="yes"/>
      <point x="97" y="-210"/>
      <point x="66" y="-204"/>
      <point x="19" y="-187" type="curve"/>
      <point x="45" y="-119" type="line"/>
      <point x="65" y="-124" type="line"/>
      <point x="109" y="-135" type="line"/>
      <point x="128" y="-139"/>
      <point x="136" y="-141"/>
      <point x="147" y="-141" type="curve" smooth="yes"/>
    </contour>
    <contour>
      <point x="461" y="462" type="line"/>
      <point x="287" y="462" type="line"/>
      <point x="197" y="0" type="line"/>
      <point x="99" y="0" type="line"/>
      <point x="189" y="462" type="line"/>
      <point x="9" y="462" type="line"/>
      <point x="26" y="550" type="line"/>
      <point x="478" y="550" type="line"/>
    </contour>
  </outline>
</glyph>
<glyph name="Uogonek" format="1">
  <advance width="638"/>
  <unicode hex="0172"/>
  <outline>
    <contour>
      <point x="482" y="550" type="line"/>
      <point x="414" y="201" type="line" smooth="yes"/>
      <point x="399" y="122"/>
      <point x="356" y="82"/>
      <point x="255" y="82" type="curve" smooth="yes"/>
      <point x="157" y="82"/>
      <point x="148" y="136"/>
      <point x="160" y="207" type="curve" smooth="yes"/>
      <point x="227" y="550" type="line"/>
      <point x="130" y="550" type="line"/>
      <point x="63" y="206" type="line" smooth="yes"/>
      <point x="50" y="142"/>
      <point x="47" y="3"/>
      <point x="226" y="-8" type="curve"/>
      <point x="178" y="-35"/>
      <point x="141" y="-67"/>
      <point x="132" y="-114" type="curve" smooth="yes"/>
      <point x="123" y="-160"/>
      <point x="158" y="-200"/>
      <point x="223" y="-200" type="curve" smooth="yes"/>
      <point x="281" y="-200"/>
      <point x="324" y="-180"/>
      <point x="361" y="-160" type="curve"/>
      <point x="350" y="-119" type="line"/>
      <point x="332" y="-126"/>
      <point x="301" y="-138"/>
      <point x="278" y="-138" type="curve" smooth="yes"/>
      <point x="243" y="-138"/>
      <point x="227" y="-116"/>
      <point x="233" y="-85" type="curve" smooth="yes"/>
      <point x="240" y="-50"/>
      <point x="308" y="-18"/>
      <point x="359" y="8" type="curve"/>
      <point x="484" y="74"/>
      <point x="501" y="144"/>
      <point x="512" y="202" type="curve" smooth="yes"/>
      <point x="580" y="550" type="line"/>
    </contour>
    <contour>
      <point x="356" y="560" type="move" name="top.cap"/>
    </contour>
  </outline>
</glyph>
<glyph name="uogonek" format="1">
  <advance width="468"/>
  <unicode hex="0173"/>
  <outline>
    <contour>
      <point x="249" y="-140"/>
      <point x="231" y="-123"/>
      <point x="237" y="-94" type="curve" smooth="yes"/>
      <point x="244" y="-59"/>
      <point x="308" y="-25"/>
      <point x="364" y="1" type="curve"/>
      <point x="438" y="384" type="line"/>
      <point x="344" y="384" type="line"/>
      <point x="289" y="94" type="line"/>
      <point x="250" y="74"/>
      <point x="219" y="73"/>
      <point x="204" y="73" type="curve" smooth="yes"/>
      <point x="141" y="73"/>
      <point x="138" y="118"/>
      <point x="145" y="155" type="curve" smooth="yes"/>
      <point x="190" y="384" type="line"/>
      <point x="95" y="384" type="line"/>
      <point x="57" y="189" type="line" smooth="yes"/>
      <point x="44" y="123"/>
      <point x="22" y="-9"/>
      <point x="153" y="-9" type="curve" smooth="yes"/>
      <point x="207" y="-9"/>
      <point x="254" y="13"/>
      <point x="288" y="28" type="curve"/>
      <point x="297" y="4" type="line"/>
      <point x="247" y="-20"/>
      <point x="155" y="-54"/>
      <point x="141" y="-123" type="curve" smooth="yes"/>
      <point x="133" y="-167"/>
      <point x="173" y="-200"/>
      <point x="229" y="-200" type="curve" smooth="yes"/>
      <point x="287" y="-200"/>
      <point x="331" y="-177"/>
      <point x="368" y="-156" type="curve"/>
      <point x="351" y="-115" type="line"/>
      <point x="334" y="-126"/>
      <point x="303" y="-140"/>
      <point x="278" y="-140" type="curve" smooth="yes"/>
    </contour>
    <contour>
      <point x="267" y="384" type="move" name="top"/>
    </contour>
  </outline>
</glyph>
<glyph name="dotlessj" format="1">
  <advance width="280"/>
  <unicode hex="0237"/>
  <outline>
    <contour>
      <point x="176" y="-26" type="line" smooth="yes"/>
      <point x="157" y="-122"/>
      <point x="131" y="-164"/>
      <point x="4" y="-212" type="curve"/>
      <point x="-24" y="-145" type="line"/>
      <point x="41" y="-114"/>
      <point x="68" y="-96"/>
      <point x="87" y="0" type="curve" smooth="yes"/>
      <point x="162" y="384" type="line"/>
      <point x="256" y="384" type="line"/>
    </contour>
    <contour>
      <point x="209" y="384" type="move" name="top"/>
    </contour>
  </outline>
</glyph>
<glyph name="ring" format="1">
  <advance width="211"/>
  <unicode hex="02DA"/>
  <outline>
    <contour>
      <point x="83" y="563"/>
      <point x="66" y="547"/>
      <point x="63" y="530" type="curve" smooth="yes"/>
      <point x="58" y="505"/>
      <point x="67" y="483"/>
      <point x="98" y="483" type="curve" smooth="yes"/>
      <point x="117" y="483"/>
      <point x="134" y="499"/>
      <point x="137" y="516" type="curve" smooth="yes"/>
      <point x="142" y="541"/>
      <point x="132" y="563"/>
      <point x="104" y="563" type="curve" smooth="yes"/>
    </contour>
    <contour>
      <point x="165" y="420"/>
      <point x="83" y="420" type="curve" smooth="yes"/>
      <point x="36" y="420"/>
      <point x="-3" y="455"/>
      <point x="-3" y="502" type="curve" smooth="yes"/>
      <point x="-3" y="563"/>
      <point x="32" y="625"/>
      <point x="119" y="625" type="curve" smooth="yes"/>
      <point x="165" y="625"/>
      <point x="204" y="594"/>
      <point x="204" y="541" type="curve" smooth="yes"/>
      <point x="204" y="481"/>
    </contour>
    <contour>
      <point x="74" y="384" type="move" name="_top"/>
    </contour>
  </outline>
</glyph>
<glyph name="ogonek" format="1">
  <advance width="256"/>
  <unicode hex="02DB"/>
  <outline>
    <contour>
      <point x="18" y="-17"/>
      <point x="-16" y="-54"/>
      <point x="-25" y="-97" type="curve" smooth="yes"/>
      <point x="-31" y="-127"/>
      <point x="-13" y="-157"/>
      <point x="25" y="-157" type="curve" smooth="yes"/>
      <point x="47" y="-157"/>
      <point x="70" y="-147"/>
      <point x="91" y="-139" type="curve"/>
      <point x="103" y="-180" type="line"/>
      <point x="63" y="-200"/>
      <point x="23" y="-220"/>
      <point x="-26" y="-220" type="curve" smooth="yes"/>
      <point x="-103" y="-220"/>
      <point x="-130" y="-169"/>
      <point x="-119" y="-116" type="curve" smooth="yes"/>
      <point x="-107" y="-54"/>
      <point x="-50" y="-2"/>
      <point x="47" y="35" type="curve"/>
      <point x="99" y="15" type="line"/>
    </contour>
  </outline>
</glyph>
<glyph name="pi" format="1">
  <advance width="467"/>
  <unicode hex="03C0"/>
  <outline>
    <contour>
      <point x="430" y="68"/>
      <point x="438" y="70"/>
      <point x="447" y="72" type="curve"/>
      <point x="467" y="12" type="line"/>
      <point x="452" y="5"/>
      <point x="426" y="-7"/>
      <point x="381" y="-7" type="curve" smooth="yes"/>
      <point x="301" y="-7"/>
      <point x="283" y="48"/>
      <point x="283" y="101" type="curve" smooth="yes"/>
      <point x="283" y="384" type="line"/>
      <point x="377" y="384" type="line"/>
      <point x="377" y="129" type="line" smooth="yes"/>
      <point x="377" y="92"/>
      <point x="385" y="68"/>
      <point x="421" y="68" type="curve" smooth="yes"/>
    </contour>
    <contour>
      <point x="441" y="384" type="line"/>
      <point x="441" y="303" type="line"/>
      <point x="10" y="303" type="line"/>
      <point x="10" y="384" type="line"/>
    </contour>
    <contour>
      <point x="176" y="0" type="line"/>
      <point x="80" y="0" type="line"/>
      <point x="80" y="384" type="line"/>
      <point x="176" y="384" type="line"/>
    </contour>
  </outline>
</glyph>
<glyph name="uni0900" format="1">
  <advance width="304"/>
  <unicode hex="0900"/>
  <outline>
    <contour>
      <point x="133" y="604"/>
      <point x="117" y="590"/>
      <point x="112" y="569" type="curve" smooth="yes"/>
      <point x="107" y="539"/>
      <point x="123" y="519"/>
      <point x="151" y="519" type="curve" smooth="yes"/>
      <point x="174" y="519"/>
      <point x="190" y="533"/>
      <point x="195" y="555" type="curve" smooth="yes"/>
      <point x="200" y="584"/>
      <point x="184" y="604"/>
      <point x="157" y="604" type="curve" smooth="yes"/>
    </contour>
    <contour>
      <point x="87" y="711"/>
      <point x="32" y="666"/>
      <point x="5" y="608" type="curve"/>
      <point x="61" y="575" type="line"/>
      <point x="87" y="620"/>
      <point x="120" y="647"/>
      <point x="163" y="647" type="curve" smooth="yes"/>
      <point x="202" y="647"/>
      <point x="228" y="627"/>
      <point x="237" y="582" type="curve"/>
      <point x="299" y="603" type="line"/>
      <point x="293" y="661"/>
      <point x="245" y="711"/>
      <point x="167" y="711" type="curve" smooth="yes"/>
    </contour>
  </outline>
</glyph>
<glyph name="candraBindu-deva" format="1">
  <advance width="0"/>
  <unicode hex="0901"/>
  <outline>
    <contour>
      <point x="-68" y="626"/>
      <point x="-52" y="640"/>
      <point x="-47" y="661" type="curve" smooth="yes"/>
      <point x="-42" y="691"/>
      <point x="-58" y="711"/>
      <point x="-86" y="711" type="curve" smooth="yes"/>
      <point x="-109" y="711"/>
      <point x="-125" y="697"/>
      <point x="-130" y="675" type="curve" smooth="yes"/>
      <point x="-135" y="646"/>
      <point x="-119" y="626"/>
      <point x="-92" y="626" type="curve" smooth="yes"/>
    </contour>
    <contour>
      <point x="-22" y="519"/>
      <point x="35" y="563"/>
      <point x="62" y="621" type="curve"/>
      <point x="4" y="655" type="line"/>
      <point x="-22" y="610"/>
      <point x="-55" y="583"/>
      <point x="-98" y="583" type="curve" smooth="yes"/>
      <point x="-137" y="583"/>
      <point x="-163" y="603"/>
      <point x="-172" y="648" type="curve"/>
      <point x="-234" y="627" type="line"/>
      <point x="-228" y="569"/>
      <point x="-186" y="519"/>
      <point x="-102" y="519" type="curve" smooth="yes"/>
    </contour>
    <contour>
      <point x="-118" y="447" type="move" name="_top"/>
    </contour>
  </outline>
</glyph>
<glyph name="anusvara-deva" format="1">
  <advance width="0"/>
  <unicode hex="0902"/>
  <outline>
    <contour>
      <point x="-55" y="520"/>
      <point x="-36" y="539"/>
      <point x="-36" y="566" type="curve" smooth="yes"/>
      <point x="-36" y="594"/>
      <point x="-55" y="613"/>
      <point x="-83" y="613" type="curve" smooth="yes"/>
      <point x="-110" y="613"/>
      <point x="-129" y="594"/>
      <point x="-129" y="566" type="curve" smooth="yes"/>
      <point x="-129" y="539"/>
      <point x="-110" y="520"/>
      <point x="-83" y="520" type="curve" smooth="yes"/>
    </contour>
    <contour>
      <point x="-83" y="447" type="move" name="_top"/>
    </contour>
  </outline>
</glyph>
<glyph name="anusvaradeva" format="1">
  <advance width="0"/>
  <unicode hex="0902"/>
  <outline>
    <contour>
      <point x="-58" y="520"/>
      <point x="-39" y="536"/>
      <point x="-34" y="559" type="curve" smooth="yes"/>
      <point x="-28" y="591"/>
      <point x="-46" y="613"/>
      <point x="-76" y="613" type="curve" smooth="yes"/>
      <point x="-101" y="613"/>
      <point x="-120" y="597"/>
      <point x="-125" y="573" type="curve" smooth="yes"/>
      <point x="-131" y="542"/>
      <point x="-113" y="520"/>
      <point x="-84" y="520" type="curve" smooth="yes"/>
    </contour>
    <contour>
      <point x="-103" y="447" type="move" name="_top"/>
    </contour>
  </outline>
</glyph>
<glyph name="visargadeva" format="1">
  <advance width="221"/>
  <unicode hex="0903"/>
  <outline>
    <contour>
      <point x="153" y="246"/>
      <point x="175" y="264"/>
      <point x="180" y="290" type="curve" smooth="yes"/>
      <point x="186" y="323"/>
      <point x="167" y="347"/>
      <point x="136" y="347" type="curve" smooth="yes"/>
      <point x="108" y="347"/>
      <point x="86" y="329"/>
      <point x="81" y="304" type="curve" smooth="yes"/>
      <point x="75" y="270"/>
      <point x="94" y="246"/>
      <point x="126" y="246" type="curve" smooth="yes"/>
    </contour>
    <contour>
      <point x="113" y="40"/>
      <point x="134" y="58"/>
      <point x="140" y="84" type="curve" smooth="yes"/>
      <point x="146" y="117"/>
      <point x="127" y="141"/>
      <point x="96" y="141" type="curve" smooth="yes"/>
      <point x="68" y="141"/>
      <point x="46" y="123"/>
      <point x="41" y="98" type="curve" smooth="yes"/>
      <point x="35" y="64"/>
      <point x="54" y="40"/>
      <point x="86" y="40" type="curve" smooth="yes"/>
    </contour>
  </outline>
</glyph>
<glyph name="adeva" format="1">
  <advance width="616"/>
  <unicode hex="0905"/>
  <outline>
    <contour>
      <point x="409" y="466" type="line"/>
      <point x="395" y="396" type="line"/>
      <point x="626" y="396" type="line"/>
      <point x="640" y="466" type="line"/>
    </contour>
    <contour>
      <point x="377" y="0" type="line"/>
      <point x="462" y="0" type="line"/>
      <point x="553" y="466" type="line"/>
      <point x="468" y="466" type="line"/>
    </contour>
    <contour>
      <point x="316" y="184"/>
      <point x="302" y="197"/>
      <point x="283" y="214" type="curve" smooth="yes"/>
      <point x="270" y="235"/>
      <point x="268" y="243"/>
      <point x="252" y="249" type="curve"/>
      <point x="298" y="262"/>
      <point x="334" y="296"/>
      <point x="343" y="346" type="curve" smooth="yes"/>
      <point x="357" y="416"/>
      <point x="316" y="466"/>
      <point x="240" y="466" type="curve"/>
      <point x="187" y="466"/>
      <point x="144" y="445"/>
      <point x="103" y="418" type="curve"/>
      <point x="139" y="355" type="line"/>
      <point x="163" y="373"/>
      <point x="195" y="393"/>
      <point x="227" y="393" type="curve" smooth="yes"/>
      <point x="262" y="393"/>
      <point x="274" y="379"/>
      <point x="269" y="354" type="curve" smooth="yes"/>
      <point x="264" y="329"/>
      <point x="250" y="287"/>
      <point x="164" y="287" type="curve" smooth="yes"/>
      <point x="144" y="287" type="line"/>
      <point x="130" y="216" type="line"/>
      <point x="152" y="216" type="line"/>
      <point x="226" y="220"/>
      <point x="242" y="190"/>
      <point x="235" y="154" type="curve" smooth="yes"/>
      <point x="227" y="113"/>
      <point x="197" y="87"/>
      <point x="147" y="87" type="curve" smooth="yes"/>
      <point x="85" y="87"/>
      <point x="68" y="133"/>
      <point x="39" y="209" type="curve"/>
      <point x="-30" y="176" type="line"/>
      <point x="7" y="77"/>
      <point x="38" y="12"/>
      <point x="143" y="12" type="curve" smooth="yes"/>
      <point x="232" y="12"/>
      <point x="292" y="61"/>
      <point x="305" y="130" type="curve" smooth="yes"/>
    </contour>
    <contour>
      <point x="388" y="216"/>
      <point x="338" y="205"/>
      <point x="238" y="256" type="curve"/>
      <point x="216" y="221" type="line"/>
      <point x="282" y="158"/>
      <point x="352" y="128"/>
      <point x="440" y="174" type="curve"/>
      <point x="450" y="259" type="line"/>
    </contour>
    <contour>
      <point x="507" y="447" type="move" name="top"/>
    </contour>
  </outline>
</glyph>
<glyph name="aa-deva" format="1">
  <advance width="813"/>
  <unicode hex="0906"/>
  <outline>
    <component base="a-deva"/>
    <component base="aaMatra-deva" xOffset="600"/>
    <contour>
      <point x="706" y="447" type="move" name="top"/>
    </contour>
  </outline>
</glyph>
<glyph name="i-deva" format="1">
  <advance width="391"/>
  <unicode hex="0907"/>
  <outline>
    <contour>
      <point x="208" y="152"/>
      <point x="213" y="136"/>
      <point x="211" y="123" type="curve" smooth="yes"/>
      <point x="206" y="96"/>
      <point x="176" y="70"/>
      <point x="110" y="70" type="curve" smooth="yes"/>
      <point x="92" y="70"/>
      <point x="84" y="71"/>
      <point x="73" y="75" type="curve"/>
      <point x="35" y="138" type="line"/>
      <point x="10" y="138"/>
      <point x="-24" y="131"/>
      <point x="-32" y="93" type="curve"/>
      <point x="-42" y="42"/>
      <point x="26" y="-3"/>
      <point x="116" y="-3" type="curve" smooth="yes"/>
      <point x="210" y="-3"/>
      <point x="276" y="43"/>
      <point x="290" y="113" type="curve" smooth="yes"/>
      <point x="304" y="186"/>
      <point x="255" y="227"/>
      <point x="165" y="223" type="curve" smooth="yes"/>
      <point x="116" y="221"/>
      <point x="83" y="223"/>
      <point x="88" y="247" type="curve" smooth="yes"/>
      <point x="92" y="269"/>
      <point x="113" y="279"/>
      <point x="165" y="279" type="curve" smooth="yes"/>
      <point x="228" y="279"/>
      <point x="249" y="272"/>
      <point x="283" y="268" type="curve"/>
      <point x="293" y="275" type="line"/>
      <point x="327" y="456" type="line"/>
      <point x="251" y="456" type="line"/>
      <point x="227" y="348" type="line"/>
      <point x="206" y="350"/>
      <point x="196" y="351"/>
      <point x="161" y="351" type="curve" smooth="yes"/>
      <point x="86" y="351"/>
      <point x="23" y="325"/>
      <point x="10" y="257" type="curve" smooth="yes"/>
      <point x="-6" y="175"/>
      <point x="58" y="142"/>
      <point x="149" y="148" type="curve" smooth="yes"/>
    </contour>
    <contour>
      <point x="-10" y="466" type="line"/>
      <point x="-24" y="396" type="line"/>
      <point x="401" y="396" type="line"/>
      <point x="415" y="466" type="line"/>
    </contour>
    <contour>
      <point x="14" y="47" type="line"/>
      <point x="90" y="-119" type="line"/>
      <point x="167" y="-74" type="line"/>
      <point x="74" y="59" type="line"/>
    </contour>
    <contour>
      <point x="289" y="447" type="move" name="top"/>
    </contour>
  </outline>
</glyph>
<glyph name="u-deva" format="1">
  <advance width="425"/>
  <unicode hex="0909"/>
  <outline>
    <contour>
      <point x="-24" y="466" type="line"/>
      <point x="-24" y="396" type="line"/>
      <point x="449" y="396" type="line"/>
      <point x="449" y="466" type="line"/>
    </contour>
    <contour>
      <point x="373" y="185"/>
      <point x="338" y="230"/>
      <point x="297" y="246" type="curve"/>
      <point x="337" y="262"/>
      <point x="368" y="296"/>
      <point x="368" y="341" type="curve" smooth="yes"/>
      <point x="368" y="424"/>
      <point x="286" y="466"/>
      <point x="212" y="466" type="curve"/>
      <point x="157" y="466"/>
      <point x="142" y="443"/>
      <point x="107" y="416" type="curve"/>
      <point x="234" y="396" type="line"/>
      <point x="271" y="396"/>
      <point x="293" y="376"/>
      <point x="293" y="347" type="curve" smooth="yes"/>
      <point x="293" y="326"/>
      <point x="285" y="282"/>
      <point x="199" y="282" type="curve" smooth="yes"/>
      <point x="176" y="282" type="line"/>
      <point x="176" y="211" type="line"/>
      <point x="195" y="211" type="line"/>
      <point x="268" y="215"/>
      <point x="298" y="175"/>
      <point x="298" y="135" type="curve" smooth="yes"/>
      <point x="298" y="98"/>
      <point x="271" y="74"/>
      <point x="223" y="74" type="curve" smooth="yes"/>
      <point x="154" y="74"/>
      <point x="125" y="122"/>
      <point x="81" y="198" type="curve"/>
      <point x="18" y="161" type="line"/>
      <point x="74" y="62"/>
      <point x="121" y="0"/>
      <point x="224" y="0" type="curve" smooth="yes"/>
      <point x="315" y="0"/>
      <point x="373" y="58"/>
      <point x="373" y="125" type="curve" smooth="yes"/>
    </contour>
    <contour>
      <point x="271" y="447" type="move" name="top"/>
    </contour>
  </outline>
</glyph>
<glyph name="rVocalic-deva" format="1">
  <advance width="660"/>
  <unicode hex="090B"/>
  <outline>
    <contour>
      <point x="-24" y="466" type="line"/>
      <point x="-24" y="396" type="line"/>
      <point x="684" y="396" type="line"/>
      <point x="684" y="466" type="line"/>
    </contour>
    <contour>
      <point x="305" y="0" type="line"/>
      <point x="387" y="0" type="line"/>
      <point x="387" y="466" type="line"/>
      <point x="305" y="466" type="line"/>
    </contour>
    <contour>
      <point x="83" y="61"/>
      <point x="142" y="-2"/>
      <point x="142" y="-2" type="curve" smooth="yes"/>
      <point x="142" y="-2"/>
      <point x="351" y="187"/>
      <point x="351" y="187" type="curve"/>
      <point x="297" y="239" type="line"/>
      <point x="83" y="61" type="line"/>
    </contour>
    <contour>
      <point x="304" y="309"/>
      <point x="249" y="343"/>
      <point x="197" y="343" type="curve"/>
      <point x="117" y="343"/>
      <point x="68" y="294"/>
      <point x="23" y="247" type="curve"/>
      <point x="84" y="190" type="line"/>
      <point x="119" y="224"/>
      <point x="150" y="262"/>
      <point x="196" y="260" type="curve"/>
      <point x="239" y="260"/>
      <point x="269" y="236"/>
      <point x="300" y="198" type="curve" smooth="yes"/>
      <point x="311" y="184"/>
      <point x="328" y="176"/>
      <point x="338" y="163" type="curve"/>
      <point x="356" y="249" type="line"/>
    </contour>
    <contour>
      <point x="339" y="197" type="line"/>
      <point x="371" y="179"/>
      <point x="388" y="168"/>
      <point x="440" y="168" type="curve"/>
      <point x="479" y="168"/>
      <point x="524" y="190"/>
      <point x="549" y="220" type="curve"/>
      <point x="510" y="288" type="line"/>
      <point x="498" y="264"/>
      <point x="475" y="244"/>
      <point x="430" y="244" type="curve"/>
      <point x="387" y="244"/>
      <point x="362" y="266"/>
      <point x="339" y="278" type="curve"/>
    </contour>
    <contour>
      <point x="544" y="149" type="line"/>
      <point x="615" y="158" type="line"/>
      <point x="546" y="282" type="line"/>
      <point x="487" y="251" type="line"/>
    </contour>
    <contour>
      <point x="562" y="229"/>
      <point x="581" y="245"/>
      <point x="581" y="287" type="curve" smooth="yes"/>
      <point x="581" y="321"/>
      <point x="555" y="346"/>
      <point x="522" y="346" type="curve"/>
      <point x="487" y="346"/>
      <point x="462" y="329"/>
      <point x="449" y="318" type="curve"/>
      <point x="484" y="256" type="line"/>
      <point x="543" y="209" type="line"/>
    </contour>
    <contour>
      <point x="587" y="-30"/>
      <point x="616" y="-22"/>
      <point x="635" y="-12" type="curve"/>
      <point x="606" y="52" type="line"/>
      <point x="596" y="47"/>
      <point x="577" y="42"/>
      <point x="563" y="42" type="curve"/>
      <point x="540" y="42"/>
      <point x="526" y="51"/>
      <point x="526" y="73" type="curve" smooth="yes"/>
      <point x="526" y="92"/>
      <point x="545" y="102"/>
      <point x="574" y="102" type="curve"/>
      <point x="597" y="102" type="line"/>
      <point x="615" y="157" type="line"/>
      <point x="615" y="158" type="line"/>
      <point x="573" y="171" type="line"/>
      <point x="498" y="171"/>
      <point x="453" y="128"/>
      <point x="453" y="72" type="curve" smooth="yes"/>
      <point x="453" y="13"/>
      <point x="488" y="-30"/>
      <point x="561" y="-30" type="curve"/>
    </contour>
    <contour>
      <point x="347" y="447" type="move" name="top"/>
    </contour>
  </outline>
</glyph>
<glyph name="rvocalicdeva" format="1">
  <advance width="674"/>
  <unicode hex="090B"/>
  <outline>
    <contour>
      <point x="-10" y="466" type="line"/>
      <point x="-24" y="396" type="line"/>
      <point x="684" y="396" type="line"/>
      <point x="698" y="466" type="line"/>
    </contour>
    <contour>
      <point x="228" y="0" type="line"/>
      <point x="310" y="0" type="line"/>
      <point x="401" y="466" type="line"/>
      <point x="319" y="466" type="line"/>
    </contour>
    <contour>
      <point x="21" y="61"/>
      <point x="63" y="0"/>
      <point x="65" y="2" type="curve" smooth="yes"/>
      <point x="67" y="0"/>
      <point x="313" y="189"/>
      <point x="313" y="189" type="curve"/>
      <point x="265" y="239" type="line"/>
      <point x="20" y="61" type="line"/>
    </contour>
    <contour>
      <point x="285" y="307"/>
      <point x="236" y="343"/>
      <point x="182" y="343" type="curve"/>
      <point x="104" y="343"/>
      <point x="47" y="296"/>
      <point x="-8" y="249" type="curve"/>
      <point x="47" y="188" type="line"/>
      <point x="87" y="222"/>
      <point x="127" y="262"/>
      <point x="175" y="260" type="curve"/>
      <point x="216" y="260"/>
      <point x="241" y="239"/>
      <point x="266" y="203" type="curve" smooth="yes"/>
      <point x="271" y="187"/>
      <point x="288" y="179"/>
      <point x="295" y="166" type="curve"/>
      <point x="326" y="247" type="line"/>
    </contour>
    <contour>
      <point x="303" y="199" type="line"/>
      <point x="331" y="181"/>
      <point x="347" y="168"/>
      <point x="401" y="168" type="curve"/>
      <point x="438" y="168"/>
      <point x="485" y="187"/>
      <point x="516" y="217" type="curve"/>
      <point x="488" y="291" type="line"/>
      <point x="472" y="267"/>
      <point x="443" y="244"/>
      <point x="396" y="244" type="curve"/>
      <point x="355" y="244"/>
      <point x="334" y="264"/>
      <point x="314" y="276" type="curve"/>
    </contour>
    <contour>
      <point x="497" y="149" type="line"/>
      <point x="568" y="158" type="line"/>
      <point x="522" y="282" type="line"/>
      <point x="459" y="251" type="line"/>
    </contour>
    <contour>
      <point x="531" y="227"/>
      <point x="551" y="242"/>
      <point x="559" y="280" type="curve" smooth="yes"/>
      <point x="566" y="318"/>
      <point x="542" y="346"/>
      <point x="507" y="346" type="curve"/>
      <point x="474" y="346"/>
      <point x="447" y="331"/>
      <point x="432" y="320" type="curve"/>
      <point x="459" y="256" type="line"/>
      <point x="509" y="207" type="line"/>
    </contour>
    <contour>
      <point x="507" y="-30"/>
      <point x="536" y="-24"/>
      <point x="557" y="-14" type="curve"/>
      <point x="537" y="54" type="line"/>
      <point x="527" y="49"/>
      <point x="505" y="42"/>
      <point x="489" y="42" type="curve"/>
      <point x="468" y="42"/>
      <point x="458" y="48"/>
      <point x="462" y="66" type="curve" smooth="yes"/>
      <point x="466" y="89"/>
      <point x="491" y="102"/>
      <point x="520" y="102" type="curve"/>
      <point x="541" y="102" type="line"/>
      <point x="569" y="157" type="line"/>
      <point x="569" y="158" type="line"/>
      <point x="526" y="171" type="line"/>
      <point x="451" y="171"/>
      <point x="402" y="131"/>
      <point x="391" y="79" type="curve" smooth="yes"/>
      <point x="379" y="16"/>
      <point x="408" y="-30"/>
      <point x="483" y="-30" type="curve"/>
    </contour>
    <contour>
      <point x="357" y="447" type="move" name="top"/>
    </contour>
  </outline>
</glyph>
<glyph name="eShort-deva" format="1">
  <advance width="453"/>
  <unicode hex="090E"/>
  <outline>
    <contour>
      <point x="376" y="539"/>
      <point x="304" y="578"/>
      <point x="239" y="578" type="curve"/>
      <point x="213" y="578"/>
      <point x="206" y="579"/>
      <point x="194" y="579" type="curve" smooth="yes"/>
      <point x="156" y="585"/>
      <point x="147" y="607"/>
      <point x="150" y="664" type="curve"/>
      <point x="75" y="644" type="line"/>
      <point x="63" y="547"/>
      <point x="123" y="506"/>
      <point x="200" y="506" type="curve"/>
      <point x="274" y="506"/>
      <point x="284" y="491"/>
      <point x="275" y="440" type="curve"/>
      <point x="355" y="434" type="line"/>
    </contour>
    <component base="e-deva"/>
  </outline>
</glyph>
<glyph name="e-deva" format="1">
  <advance width="453"/>
  <unicode hex="090F"/>
  <outline>
    <contour>
      <point x="5" y="152" type="line"/>
      <point x="227" y="-62" type="line"/>
      <point x="283" y="-8" type="line"/>
      <point x="92" y="178" type="line"/>
      <point x="149" y="466" type="line"/>
      <point x="64" y="466" type="line"/>
    </contour>
    <contour>
      <point x="-10" y="466" type="line"/>
      <point x="-24" y="396" type="line"/>
      <point x="463" y="396" type="line"/>
      <point x="477" y="466" type="line"/>
    </contour>
    <contour>
      <point x="274" y="287" type="line"/>
      <point x="261" y="231"/>
      <point x="256" y="207"/>
      <point x="208" y="190" type="curve"/>
      <point x="238" y="115" type="line"/>
      <point x="307" y="141"/>
      <point x="335" y="170"/>
      <point x="351" y="250" type="curve"/>
      <point x="393" y="466" type="line"/>
      <point x="309" y="466" type="line"/>
    </contour>
    <contour>
      <point x="224" y="447" type="move" name="top"/>
    </contour>
  </outline>
</glyph>
<glyph name="ai-deva" format="1">
  <advance width="461"/>
  <unicode hex="0910"/>
  <outline>
    <contour>
      <point x="307" y="586" type="line"/>
      <point x="275" y="636"/>
      <point x="246" y="659"/>
      <point x="196" y="659" type="curve"/>
      <point x="171" y="659"/>
      <point x="152" y="653"/>
      <point x="127" y="645" type="curve"/>
      <point x="151" y="579" type="line"/>
      <point x="167" y="584"/>
      <point x="182" y="586"/>
      <point x="198" y="586" type="curve"/>
      <point x="217" y="586"/>
      <point x="226" y="576"/>
      <point x="243" y="550" type="curve"/>
      <point x="310" y="437" type="line"/>
      <point x="398" y="437" type="line"/>
    </contour>
    <component base="e-deva"/>
  </outline>
</glyph>
<glyph name="ka-deva" format="1">
  <advance width="619"/>
  <unicode hex="0915"/>
  <outline>
    <contour>
      <point x="540" y="288"/>
      <point x="487" y="340"/>
      <point x="403" y="340" type="curve" smooth="yes"/>
      <point x="333" y="340"/>
      <point x="294" y="305"/>
      <point x="264" y="287" type="curve"/>
      <point x="267" y="203" type="line"/>
      <point x="284" y="215"/>
      <point x="346" y="262"/>
      <point x="394" y="262" type="curve" smooth="yes"/>
      <point x="437" y="262"/>
      <point x="449" y="239"/>
      <point x="442" y="207" type="curve" smooth="yes"/>
      <point x="433" y="157"/>
      <point x="392" y="129"/>
      <point x="367" y="109" type="curve"/>
      <point x="417" y="48" type="line"/>
      <point x="463" y="81"/>
      <point x="509" y="126"/>
      <point x="521" y="192" type="curve" smooth="yes"/>
    </contour>
    <contour>
      <point x="-10" y="466" type="line"/>
      <point x="-24" y="396" type="line"/>
      <point x="629" y="396" type="line"/>
      <point x="643" y="466" type="line"/>
    </contour>
    <contour>
      <point x="199" y="0" type="line"/>
      <point x="281" y="0" type="line"/>
      <point x="372" y="466" type="line"/>
      <point x="290" y="466" type="line"/>
    </contour>
    <contour>
      <point x="91" y="242"/>
      <point x="138" y="265"/>
      <point x="186" y="265" type="curve" smooth="yes"/>
      <point x="236" y="265"/>
      <point x="256" y="242"/>
      <point x="269" y="225" type="curve"/>
      <point x="295" y="297" type="line"/>
      <point x="271" y="313"/>
      <point x="242" y="340"/>
      <point x="176" y="340" type="curve" smooth="yes"/>
      <point x="95" y="340"/>
      <point x="22" y="293"/>
      <point x="5" y="204" type="curve" smooth="yes"/>
      <point x="-13" y="111"/>
      <point x="46" y="55"/>
      <point x="131" y="55" type="curve" smooth="yes"/>
      <point x="191" y="55"/>
      <point x="229" y="75"/>
      <point x="259" y="93" type="curve"/>
      <point x="254" y="172" type="line"/>
      <point x="236" y="160"/>
      <point x="203" y="129"/>
      <point x="149" y="129" type="curve" smooth="yes"/>
      <point x="105" y="129"/>
      <point x="72" y="146"/>
      <point x="81" y="190" type="curve" smooth="yes"/>
    </contour>
    <contour>
      <point x="327" y="447" type="move" name="top"/>
    </contour>
    <contour>
      <point x="241" y="5" type="move" name="bottom"/>
    </contour>
  </outline>
</glyph>
<glyph name="khadeva" format="1">
  <advance width="636"/>
  <unicode hex="0916"/>
  <outline>
    <contour>
      <point x="80" y="424"/>
      <point x="159" y="406"/>
      <point x="141" y="313" type="curve" smooth="yes"/>
      <point x="123" y="220"/>
      <point x="11" y="213"/>
      <point x="12" y="210" type="curve" smooth="yes"/>
      <point x="13" y="213"/>
      <point x="27" y="148"/>
      <point x="30" y="148" type="curve"/>
      <point x="91" y="148"/>
      <point x="195" y="192"/>
      <point x="216" y="297" type="curve" smooth="yes"/>
      <point x="237" y="407"/>
      <point x="160" y="447"/>
      <point x="160" y="447" type="curve"/>
      <point x="79" y="424" type="line"/>
    </contour>
    <contour>
      <point x="118" y="-25" type="line"/>
      <point x="117" y="-25"/>
      <point x="188" y="23"/>
      <point x="188" y="23" type="curve"/>
      <point x="34" y="254" type="line"/>
      <point x="-31" y="205" type="line"/>
    </contour>
    <contour>
      <point x="-10" y="466" type="line"/>
      <point x="-24" y="396" type="line"/>
      <point x="291" y="396" type="line"/>
      <point x="305" y="466" type="line"/>
    </contour>
    <contour>
      <point x="211" y="466" type="line"/>
      <point x="197" y="396" type="line"/>
      <point x="646" y="396" type="line"/>
      <point x="660" y="466" type="line"/>
    </contour>
    <contour>
      <point x="305" y="242"/>
      <point x="342" y="265"/>
      <point x="390" y="265" type="curve" smooth="yes"/>
      <point x="450" y="265"/>
      <point x="466" y="222"/>
      <point x="479" y="205" type="curve"/>
      <point x="507" y="281" type="line"/>
      <point x="492" y="304"/>
      <point x="453" y="345"/>
      <point x="387" y="345" type="curve" smooth="yes"/>
      <point x="306" y="345"/>
      <point x="232" y="298"/>
      <point x="214" y="204" type="curve" smooth="yes"/>
      <point x="195" y="106"/>
      <point x="259" y="53"/>
      <point x="344" y="53" type="curve" smooth="yes"/>
      <point x="414" y="53"/>
      <point x="444" y="80"/>
      <point x="474" y="98" type="curve"/>
      <point x="470" y="182" type="line"/>
      <point x="451" y="165"/>
      <point x="417" y="129"/>
      <point x="363" y="129" type="curve" smooth="yes"/>
      <point x="319" y="129"/>
      <point x="286" y="146"/>
      <point x="295" y="190" type="curve" smooth="yes"/>
    </contour>
    <contour>
      <point x="395" y="0" type="line"/>
      <point x="480" y="0" type="line"/>
      <point x="571" y="466" type="line"/>
      <point x="486" y="466" type="line"/>
    </contour>
    <contour>
      <point x="524" y="447" type="move" name="top"/>
    </contour>
    <contour>
      <point x="438" y="5" type="move" name="bottom"/>
    </contour>
  </outline>
</glyph>
<glyph name="ga-deva" format="1">
  <advance width="472"/>
  <unicode hex="0917"/>
  <outline>
    <contour>
      <point x="-10" y="466" type="line"/>
      <point x="-24" y="396" type="line"/>
      <point x="482" y="396" type="line"/>
      <point x="496" y="466" type="line"/>
    </contour>
    <contour>
      <point x="231" y="0" type="line"/>
      <point x="316" y="0" type="line"/>
      <point x="407" y="466" type="line"/>
      <point x="322" y="466" type="line"/>
    </contour>
    <contour>
      <point x="-2" y="240" type="line"/>
      <point x="-9" y="198" type="line"/>
      <point x="54" y="75" type="line"/>
      <point x="53" y="75"/>
      <point x="113" y="78"/>
      <point x="113" y="78" type="curve"/>
      <point x="145" y="240" type="line"/>
    </contour>
    <contour>
      <point x="48" y="180" type="line"/>
      <point x="133" y="180" type="line"/>
      <point x="189" y="466" type="line"/>
      <point x="104" y="466" type="line"/>
    </contour>
    <contour>
      <point x="360" y="447" type="move" name="top"/>
    </contour>
    <contour>
      <point x="274" y="5" type="move" name="bottom"/>
    </contour>
  </outline>
</glyph>
<glyph name="gha-deva" format="1">
  <advance width="501"/>
  <unicode hex="0918"/>
  <outline>
    <contour>
      <point x="195" y="277" type="line"/>
      <point x="194" y="277"/>
      <point x="99" y="281"/>
      <point x="112" y="347" type="curve" smooth="yes"/>
      <point x="126" y="423"/>
      <point x="215" y="456"/>
      <point x="215" y="456" type="curve" smooth="yes"/>
      <point x="107" y="458" type="line" smooth="yes"/>
      <point x="107" y="458"/>
      <point x="43" y="425"/>
      <point x="30" y="361" type="curve" smooth="yes"/>
      <point x="15" y="282"/>
      <point x="74" y="251"/>
      <point x="88" y="239" type="curve"/>
    </contour>
    <contour>
      <point x="91" y="294"/>
      <point x="34" y="258"/>
      <point x="23" y="198" type="curve" smooth="yes"/>
      <point x="6" y="112"/>
      <point x="66" y="61"/>
      <point x="164" y="61" type="curve" smooth="yes"/>
      <point x="247" y="61"/>
      <point x="307" y="104"/>
      <point x="308" y="105" type="curve"/>
      <point x="325" y="203" type="line"/>
      <point x="325" y="203"/>
      <point x="258" y="139"/>
      <point x="166" y="139" type="curve" smooth="yes"/>
      <point x="130" y="139"/>
      <point x="98" y="151"/>
      <point x="103" y="177" type="curve" smooth="yes"/>
      <point x="109" y="207"/>
      <point x="152" y="229"/>
      <point x="220" y="237" type="curve"/>
      <point x="208" y="310" type="line"/>
    </contour>
    <contour>
      <point x="-10" y="466" type="line"/>
      <point x="-24" y="396" type="line"/>
      <point x="511" y="396" type="line"/>
      <point x="525" y="466" type="line"/>
    </contour>
    <contour>
      <point x="260" y="0" type="line"/>
      <point x="345" y="0" type="line"/>
      <point x="436" y="466" type="line"/>
      <point x="351" y="466" type="line"/>
    </contour>
    <contour>
      <point x="389" y="447" type="move" name="top"/>
    </contour>
    <contour>
      <point x="303" y="5" type="move" name="bottom"/>
    </contour>
  </outline>
</glyph>
<glyph name="nga-deva" format="1">
  <advance width="507"/>
  <unicode hex="0919"/>
  <outline>
    <contour>
      <point x="256" y="154"/>
      <point x="262" y="136"/>
      <point x="259" y="123" type="curve" smooth="yes"/>
      <point x="254" y="96"/>
      <point x="223" y="75"/>
      <point x="177" y="75" type="curve" smooth="yes"/>
      <point x="115" y="75"/>
      <point x="77" y="92"/>
      <point x="38" y="139" type="curve"/>
      <point x="-21" y="87" type="line"/>
      <point x="20" y="38"/>
      <point x="75" y="-3"/>
      <point x="165" y="-3" type="curve" smooth="yes"/>
      <point x="259" y="-3"/>
      <point x="324" y="43"/>
      <point x="338" y="113" type="curve" smooth="yes"/>
      <point x="352" y="186"/>
      <point x="305" y="230"/>
      <point x="209" y="225" type="curve" smooth="yes"/>
      <point x="159" y="222"/>
      <point x="126" y="223"/>
      <point x="131" y="247" type="curve" smooth="yes"/>
      <point x="135" y="269"/>
      <point x="156" y="279"/>
      <point x="208" y="279" type="curve" smooth="yes"/>
      <point x="268" y="279"/>
      <point x="294" y="272"/>
      <point x="328" y="268" type="curve"/>
      <point x="338" y="275" type="line"/>
      <point x="372" y="456" type="line"/>
      <point x="296" y="456" type="line"/>
      <point x="272" y="348" type="line"/>
      <point x="251" y="350"/>
      <point x="239" y="351"/>
      <point x="204" y="351" type="curve" smooth="yes"/>
      <point x="129" y="351"/>
      <point x="66" y="325"/>
      <point x="53" y="257" type="curve" smooth="yes"/>
      <point x="37" y="175"/>
      <point x="106" y="144"/>
      <point x="197" y="150" type="curve" smooth="yes"/>
    </contour>
    <contour>
      <point x="-10" y="466" type="line"/>
      <point x="-24" y="396" type="line"/>
      <point x="517" y="396" type="line"/>
      <point x="531" y="466" type="line"/>
    </contour>
    <component base="nukta-deva" xOffset="571" yOffset="307"/>
    <contour>
      <point x="333" y="447" type="move" name="top"/>
    </contour>
    <contour>
      <point x="153" y="-35" type="move" name="bottom"/>
    </contour>
  </outline>
</glyph>
<glyph name="cha-deva" format="1">
  <advance width="582"/>
  <unicode hex="091B"/>
  <outline>
    <contour>
      <point x="592" y="396" type="line"/>
      <point x="606" y="466" type="line"/>
      <point x="-10" y="466" type="line"/>
      <point x="-24" y="396" type="line"/>
    </contour>
    <contour>
      <point x="407" y="124"/>
      <point x="325" y="64"/>
      <point x="202" y="64" type="curve" smooth="yes"/>
      <point x="129" y="64"/>
      <point x="87" y="96"/>
      <point x="95" y="140" type="curve" smooth="yes"/>
      <point x="105" y="188"/>
      <point x="149" y="223"/>
      <point x="227" y="219" type="curve"/>
      <point x="229" y="219" type="line"/>
      <point x="241" y="282" type="line"/>
      <point x="229" y="282" type="line" smooth="yes"/>
      <point x="135" y="282"/>
      <point x="138" y="320"/>
      <point x="142" y="337" type="curve" smooth="yes"/>
      <point x="149" y="375"/>
      <point x="174" y="399"/>
      <point x="221" y="407" type="curve"/>
      <point x="264" y="456" type="line"/>
      <point x="228" y="456"/>
      <point x="153" y="446"/>
      <point x="116" y="428" type="curve" smooth="yes"/>
      <point x="81" y="405"/>
      <point x="65" y="376"/>
      <point x="60" y="351" type="curve" smooth="yes"/>
      <point x="50" y="298"/>
      <point x="86" y="261"/>
      <point x="106" y="254" type="curve"/>
      <point x="78" y="243"/>
      <point x="24" y="207"/>
      <point x="12" y="145" type="curve" smooth="yes"/>
      <point x="-7" y="47"/>
      <point x="81" y="-14"/>
      <point x="196" y="-14" type="curve" smooth="yes"/>
      <point x="328" y="-14"/>
      <point x="472" y="54"/>
      <point x="498" y="192" type="curve" smooth="yes"/>
      <point x="518" y="295"/>
      <point x="468" y="349"/>
      <point x="403" y="349" type="curve" smooth="yes"/>
      <point x="348" y="349"/>
      <point x="285" y="301"/>
      <point x="268" y="218" type="curve" smooth="yes"/>
      <point x="253" y="140"/>
      <point x="282" y="81"/>
      <point x="289" y="69" type="curve"/>
      <point x="286" y="66"/>
      <point x="371" y="96"/>
      <point x="369" y="99" type="curve" smooth="yes"/>
      <point x="367" y="96"/>
      <point x="331" y="137"/>
      <point x="343" y="201" type="curve" smooth="yes"/>
      <point x="351" y="243"/>
      <point x="372" y="274"/>
      <point x="400" y="274" type="curve" smooth="yes"/>
      <point x="420" y="274"/>
      <point x="433" y="256"/>
      <point x="425" y="214" type="curve" smooth="yes"/>
    </contour>
    <contour>
      <point x="371" y="333" type="line"/>
      <point x="451" y="333" type="line"/>
      <point x="477" y="466" type="line"/>
      <point x="397" y="466" type="line"/>
    </contour>
    <contour>
      <point x="433" y="447" type="move" name="top"/>
    </contour>
    <contour>
      <point x="185" y="-45" type="move" name="bottom"/>
    </contour>
  </outline>
</glyph>
<glyph name="ja-deva" format="1">
  <advance width="581"/>
  <unicode hex="091C"/>
  <outline>
    <contour>
      <point x="-10" y="466" type="line"/>
      <point x="-24" y="396" type="line"/>
      <point x="591" y="396" type="line"/>
      <point x="605" y="466" type="line"/>
    </contour>
    <contour>
      <point x="340" y="0" type="line"/>
      <point x="425" y="0" type="line"/>
      <point x="516" y="466" type="line"/>
      <point x="431" y="466" type="line"/>
    </contour>
    <contour>
      <point x="208" y="292" type="line"/>
      <point x="200" y="223" type="line"/>
      <point x="418" y="223" type="line"/>
      <point x="432" y="292" type="line"/>
    </contour>
    <contour>
      <point x="308" y="183"/>
      <point x="306" y="229"/>
      <point x="262" y="261" type="curve" smooth="yes"/>
      <point x="255" y="271"/>
      <point x="237" y="284"/>
      <point x="225" y="292" type="curve"/>
      <point x="185" y="292" type="line"/>
      <point x="175" y="226" type="line"/>
      <point x="226" y="226"/>
      <point x="231" y="200"/>
      <point x="225" y="171" type="curve" smooth="yes"/>
      <point x="218" y="133"/>
      <point x="186" y="107"/>
      <point x="148" y="107" type="curve" smooth="yes"/>
      <point x="98" y="107"/>
      <point x="76" y="150"/>
      <point x="61" y="251" type="curve"/>
      <point x="-14" y="228" type="line"/>
      <point x="1" y="107"/>
      <point x="47" y="27"/>
      <point x="144" y="27" type="curve" smooth="yes"/>
      <point x="219" y="27"/>
      <point x="286" y="71"/>
      <point x="301" y="149" type="curve" smooth="yes"/>
    </contour>
    <contour>
      <point x="469" y="447" type="move" name="top"/>
    </contour>
    <contour>
      <point x="383" y="5" type="move" name="bottom"/>
    </contour>
  </outline>
</glyph>
<glyph name="ttadeva" format="1">
  <advance width="411"/>
  <unicode hex="091F"/>
  <outline>
    <contour>
      <point x="250" y="101"/>
      <point x="204" y="78"/>
      <point x="152" y="78" type="curve" smooth="yes"/>
      <point x="94" y="78"/>
      <point x="65" y="108"/>
      <point x="74" y="156" type="curve" smooth="yes"/>
      <point x="85" y="210"/>
      <point x="129" y="244"/>
      <point x="199" y="244" type="curve" smooth="yes"/>
      <point x="234" y="244"/>
      <point x="258" y="239"/>
      <point x="293" y="235" type="curve"/>
      <point x="301" y="242" type="line"/>
      <point x="342" y="456" type="line"/>
      <point x="266" y="456" type="line"/>
      <point x="237" y="322" type="line"/>
      <point x="237" y="322"/>
      <point x="212" y="322"/>
      <point x="196" y="322" type="curve" smooth="yes"/>
      <point x="83" y="322"/>
      <point x="13" y="262"/>
      <point x="-4" y="174" type="curve" smooth="yes"/>
      <point x="-25" y="68"/>
      <point x="39" y="-2"/>
      <point x="146" y="-2" type="curve" smooth="yes"/>
      <point x="217" y="-2"/>
      <point x="276" y="25"/>
      <point x="303" y="42" type="curve"/>
      <point x="278" y="117" type="line"/>
    </contour>
    <contour>
      <point x="-10" y="466" type="line"/>
      <point x="-24" y="396" type="line"/>
      <point x="421" y="396" type="line"/>
      <point x="435" y="466" type="line"/>
    </contour>
    <contour>
      <point x="303" y="447" type="move" name="top"/>
    </contour>
    <contour>
      <point x="134" y="-35" type="move" name="bottom"/>
    </contour>
  </outline>
</glyph>
<glyph name="ttha-deva" format="1">
  <advance width="472"/>
  <unicode hex="0920"/>
  <outline>
    <contour>
      <point x="-10" y="466" type="line"/>
      <point x="-24" y="396" type="line"/>
      <point x="482" y="396" type="line"/>
      <point x="496" y="466" type="line"/>
    </contour>
    <contour>
      <point x="388" y="235"/>
      <point x="329" y="295"/>
      <point x="285" y="324" type="curve"/>
      <point x="216" y="263" type="line"/>
      <point x="252" y="257"/>
      <point x="302" y="221"/>
      <point x="290" y="161" type="curve" smooth="yes"/>
      <point x="280" y="108"/>
      <point x="231" y="75"/>
      <point x="154" y="75" type="curve" smooth="yes"/>
      <point x="91" y="75"/>
      <point x="66" y="114"/>
      <point x="76" y="162" type="curve" smooth="yes"/>
      <point x="86" y="214"/>
      <point x="135" y="248"/>
      <point x="200" y="248" type="curve" smooth="yes"/>
      <point x="293" y="248" type="line"/>
      <point x="302" y="246" type="line"/>
      <point x="345" y="466" type="line"/>
      <point x="268" y="466" type="line"/>
      <point x="239" y="320" type="line"/>
      <point x="200" y="320" type="line" smooth="yes"/>
      <point x="91" y="320"/>
      <point x="15" y="260"/>
      <point x="-2" y="174" type="curve" smooth="yes"/>
      <point x="-22" y="73"/>
      <point x="42" y="0"/>
      <point x="151" y="0" type="curve" smooth="yes"/>
      <point x="284" y="0"/>
      <point x="357" y="77"/>
      <point x="371" y="149" type="curve" smooth="yes"/>
    </contour>
    <contour>
      <point x="303" y="447" type="move" name="top"/>
    </contour>
    <contour>
      <point x="139" y="-35" type="move" name="bottom"/>
    </contour>
  </outline>
</glyph>
<glyph name="ddadeva" format="1">
  <advance width="448"/>
  <unicode hex="0921"/>
  <outline>
    <contour>
      <point x="253" y="154"/>
      <point x="259" y="136"/>
      <point x="256" y="123" type="curve" smooth="yes"/>
      <point x="251" y="96"/>
      <point x="220" y="75"/>
      <point x="174" y="75" type="curve" smooth="yes"/>
      <point x="112" y="75"/>
      <point x="74" y="92"/>
      <point x="35" y="139" type="curve"/>
      <point x="-24" y="87" type="line"/>
      <point x="17" y="38"/>
      <point x="72" y="-3"/>
      <point x="162" y="-3" type="curve" smooth="yes"/>
      <point x="256" y="-3"/>
      <point x="321" y="43"/>
      <point x="335" y="113" type="curve" smooth="yes"/>
      <point x="349" y="186"/>
      <point x="302" y="230"/>
      <point x="206" y="225" type="curve" smooth="yes"/>
      <point x="156" y="222"/>
      <point x="123" y="223"/>
      <point x="128" y="247" type="curve" smooth="yes"/>
      <point x="132" y="269"/>
      <point x="153" y="279"/>
      <point x="205" y="279" type="curve" smooth="yes"/>
      <point x="265" y="279"/>
      <point x="291" y="272"/>
      <point x="325" y="268" type="curve"/>
      <point x="335" y="275" type="line"/>
      <point x="369" y="456" type="line"/>
      <point x="293" y="456" type="line"/>
      <point x="269" y="348" type="line"/>
      <point x="248" y="350"/>
      <point x="236" y="351"/>
      <point x="201" y="351" type="curve" smooth="yes"/>
      <point x="126" y="351"/>
      <point x="63" y="325"/>
      <point x="50" y="257" type="curve" smooth="yes"/>
      <point x="34" y="175"/>
      <point x="103" y="144"/>
      <point x="194" y="150" type="curve" smooth="yes"/>
    </contour>
    <contour>
      <point x="-9" y="466" type="line"/>
      <point x="-23" y="396" type="line"/>
      <point x="458" y="396" type="line"/>
      <point x="472" y="466" type="line"/>
    </contour>
    <contour>
      <point x="329" y="447" type="move" name="top"/>
    </contour>
    <contour>
      <point x="150" y="-35" type="move" name="bottom"/>
    </contour>
  </outline>
</glyph>
<glyph name="ddhadeva" format="1">
  <advance width="432"/>
  <unicode hex="0922"/>
  <outline>
    <contour>
      <point x="-10" y="466" type="line"/>
      <point x="-24" y="396" type="line"/>
      <point x="442" y="396" type="line"/>
      <point x="456" y="466" type="line"/>
    </contour>
    <contour>
      <point x="329" y="162"/>
      <point x="296" y="205"/>
      <point x="232" y="205" type="curve" smooth="yes"/>
      <point x="185" y="205"/>
      <point x="135" y="175"/>
      <point x="124" y="118" type="curve" smooth="yes"/>
      <point x="113" y="60"/>
      <point x="133" y="34"/>
      <point x="139" y="23" type="curve"/>
      <point x="137" y="21"/>
      <point x="236" y="32"/>
      <point x="234" y="33" type="curve" smooth="yes"/>
      <point x="230" y="32"/>
      <point x="181" y="47"/>
      <point x="189" y="89" type="curve" smooth="yes"/>
      <point x="194" y="113"/>
      <point x="206" y="133"/>
      <point x="228" y="133" type="curve" smooth="yes"/>
      <point x="240" y="133"/>
      <point x="247" y="127"/>
      <point x="244" y="113" type="curve" smooth="yes"/>
      <point x="240" y="90"/>
      <point x="212" y="67"/>
      <point x="155" y="66" type="curve" smooth="yes"/>
      <point x="87" y="64"/>
      <point x="64" y="109"/>
      <point x="73" y="154" type="curve" smooth="yes"/>
      <point x="84" y="212"/>
      <point x="132" y="250"/>
      <point x="190" y="250" type="curve" smooth="yes"/>
      <point x="225" y="250"/>
      <point x="259" y="245"/>
      <point x="294" y="241" type="curve"/>
      <point x="302" y="248" type="line"/>
      <point x="344" y="466" type="line"/>
      <point x="268" y="466" type="line"/>
      <point x="237" y="326" type="line"/>
      <point x="212" y="328"/>
      <point x="206" y="328"/>
      <point x="190" y="328" type="curve" smooth="yes"/>
      <point x="83" y="328"/>
      <point x="12" y="257"/>
      <point x="-4" y="174" type="curve" smooth="yes"/>
      <point x="-24" y="70"/>
      <point x="40" y="-5"/>
      <point x="147" y="-5" type="curve" smooth="yes"/>
      <point x="216" y="-5"/>
      <point x="301" y="22"/>
      <point x="318" y="107" type="curve" smooth="yes"/>
    </contour>
    <contour>
      <point x="304" y="447" type="move" name="top"/>
    </contour>
    <contour>
      <point x="136" y="-35" type="move" name="bottom"/>
    </contour>
  </outline>
</glyph>
<glyph name="nna-deva" format="1">
  <advance width="590"/>
  <unicode hex="0923"/>
  <outline>
    <contour>
      <point x="349" y="0" type="line"/>
      <point x="434" y="0" type="line"/>
      <point x="525" y="466" type="line"/>
      <point x="440" y="466" type="line"/>
    </contour>
    <contour>
      <point x="-10" y="466" type="line"/>
      <point x="-24" y="396" type="line"/>
      <point x="600" y="396" type="line"/>
      <point x="614" y="466" type="line"/>
    </contour>
    <contour>
      <point x="229" y="78"/>
      <point x="288" y="128"/>
      <point x="307" y="224" type="curve" smooth="yes"/>
      <point x="348" y="436" type="line"/>
      <point x="259" y="436" type="line"/>
      <point x="225" y="263" type="line" smooth="yes"/>
      <point x="213" y="199"/>
      <point x="200" y="161"/>
      <point x="149" y="161" type="curve" smooth="yes"/>
      <point x="102" y="161"/>
      <point x="110" y="193"/>
      <point x="122" y="257" type="curve" smooth="yes"/>
      <point x="157" y="436" type="line"/>
      <point x="68" y="436" type="line"/>
      <point x="28" y="230" type="line" smooth="yes"/>
      <point x="9" y="133"/>
      <point x="49" y="78"/>
      <point x="144" y="78" type="curve" smooth="yes"/>
    </contour>
    <contour>
      <point x="478" y="447" type="move" name="top"/>
    </contour>
    <contour>
      <point x="392" y="5" type="move" name="bottom"/>
    </contour>
  </outline>
</glyph>
<glyph name="ta-deva" format="1">
  <advance width="452"/>
  <unicode hex="0924"/>
  <outline>
    <contour>
      <point x="-10" y="466" type="line"/>
      <point x="-24" y="396" type="line"/>
      <point x="462" y="396" type="line"/>
      <point x="476" y="466" type="line"/>
    </contour>
    <contour>
      <point x="211" y="0" type="line"/>
      <point x="296" y="0" type="line"/>
      <point x="387" y="466" type="line"/>
      <point x="302" y="466" type="line"/>
    </contour>
    <contour>
      <point x="337" y="305"/>
      <point x="254" y="305"/>
      <point x="168" y="305" type="curve" smooth="yes"/>
      <point x="72" y="305"/>
      <point x="15" y="275"/>
      <point x="-2" y="192" type="curve" smooth="yes"/>
      <point x="-15" y="121"/>
      <point x="17" y="41"/>
      <point x="41" y="-19" type="curve"/>
      <point x="116" y="16" type="line"/>
      <point x="98" y="65"/>
      <point x="71" y="129"/>
      <point x="79" y="170" type="curve" smooth="yes"/>
      <point x="87" y="212"/>
      <point x="116" y="227"/>
      <point x="186" y="227" type="curve" smooth="yes"/>
      <point x="325" y="227" type="line"/>
      <point x="337" y="305" type="line"/>
    </contour>
    <contour>
      <point x="350" y="447" type="move" name="top"/>
    </contour>
    <contour>
      <point x="254" y="5" type="move" name="bottom"/>
    </contour>
  </outline>
</glyph>
<glyph name="thadeva" format="1">
  <advance width="489"/>
  <unicode hex="0925"/>
  <outline>
    <contour>
      <point x="153" y="405"/>
      <point x="158" y="380"/>
      <point x="153" y="357" type="curve" smooth="yes"/>
      <point x="139" y="283"/>
      <point x="58" y="249"/>
      <point x="-3" y="219" type="curve"/>
      <point x="-20" y="185" type="line"/>
      <point x="-2" y="139"/>
      <point x="62" y="74"/>
      <point x="155" y="74" type="curve" smooth="yes"/>
      <point x="225" y="74"/>
      <point x="284" y="119"/>
      <point x="284" y="119" type="curve"/>
      <point x="304" y="227" type="line"/>
      <point x="269" y="182"/>
      <point x="209" y="156"/>
      <point x="156" y="156" type="curve" smooth="yes"/>
      <point x="126" y="156"/>
      <point x="103" y="165"/>
      <point x="88" y="177" type="curve"/>
      <point x="162" y="226"/>
      <point x="216" y="266"/>
      <point x="230" y="339" type="curve" smooth="yes"/>
      <point x="243" y="407"/>
      <point x="214" y="478"/>
      <point x="133" y="478" type="curve"/>
      <point x="68" y="478"/>
      <point x="22" y="437"/>
      <point x="12" y="386" type="curve"/>
      <point x="1" y="330"/>
      <point x="31" y="303"/>
      <point x="59" y="286" type="curve"/>
      <point x="106" y="339" type="line"/>
      <point x="94" y="348"/>
      <point x="83" y="358"/>
      <point x="85" y="372" type="curve"/>
      <point x="89" y="389"/>
      <point x="102" y="405"/>
      <point x="127" y="405" type="curve"/>
    </contour>
    <contour>
      <point x="293" y="466" type="line"/>
      <point x="279" y="396" type="line"/>
      <point x="499" y="396" type="line"/>
      <point x="513" y="466" type="line"/>
    </contour>
    <contour>
      <point x="248" y="0" type="line"/>
      <point x="333" y="0" type="line"/>
      <point x="424" y="466" type="line"/>
      <point x="339" y="466" type="line"/>
    </contour>
    <contour>
      <point x="377" y="447" type="move" name="top"/>
    </contour>
    <contour>
      <point x="291" y="5" type="move" name="bottom"/>
    </contour>
  </outline>
</glyph>
<glyph name="dha-deva" format="1">
  <advance width="490"/>
  <unicode hex="0927"/>
  <outline>
    <contour>
      <point x="69" y="486"/>
      <point x="23" y="429"/>
      <point x="12" y="376" type="curve"/>
      <point x="-5" y="286"/>
      <point x="61" y="241"/>
      <point x="75" y="229" type="curve"/>
      <point x="173" y="266" type="line"/>
      <point x="172" y="266"/>
      <point x="79" y="288"/>
      <point x="94" y="364" type="curve"/>
      <point x="100" y="393"/>
      <point x="115" y="417"/>
      <point x="144" y="417" type="curve"/>
      <point x="155" y="417"/>
      <point x="160" y="412"/>
      <point x="159" y="404" type="curve"/>
      <point x="156" y="388"/>
      <point x="145" y="377"/>
      <point x="130" y="365" type="curve"/>
      <point x="179" y="316" type="line"/>
      <point x="203" y="338"/>
      <point x="224" y="361"/>
      <point x="230" y="389" type="curve"/>
      <point x="239" y="438"/>
      <point x="216" y="486"/>
      <point x="146" y="486" type="curve"/>
    </contour>
    <contour>
      <point x="82" y="277"/>
      <point x="19" y="239"/>
      <point x="8" y="183" type="curve" smooth="yes"/>
      <point x="-8" y="100"/>
      <point x="53" y="50"/>
      <point x="151" y="50" type="curve" smooth="yes"/>
      <point x="234" y="50"/>
      <point x="293" y="85"/>
      <point x="293" y="86" type="curve"/>
      <point x="310" y="186" type="line"/>
      <point x="310" y="186"/>
      <point x="255" y="129"/>
      <point x="153" y="129" type="curve" smooth="yes"/>
      <point x="117" y="129"/>
      <point x="85" y="136"/>
      <point x="90" y="162" type="curve" smooth="yes"/>
      <point x="95" y="192"/>
      <point x="146" y="204"/>
      <point x="214" y="212" type="curve"/>
      <point x="208" y="285" type="line"/>
    </contour>
    <contour>
      <point x="277" y="466" type="line"/>
      <point x="263" y="396" type="line"/>
      <point x="500" y="396" type="line"/>
      <point x="514" y="466" type="line"/>
    </contour>
    <contour>
      <point x="249" y="0" type="line"/>
      <point x="334" y="0" type="line"/>
      <point x="425" y="466" type="line"/>
      <point x="340" y="466" type="line"/>
    </contour>
    <contour>
      <point x="378" y="447" type="move" name="top"/>
    </contour>
    <contour>
      <point x="292" y="5" type="move" name="bottom"/>
    </contour>
  </outline>
</glyph>
<glyph name="nadeva" format="1">
  <advance width="445"/>
  <unicode hex="0928"/>
  <outline>
    <contour>
      <point x="204" y="0" type="line"/>
      <point x="289" y="0" type="line"/>
      <point x="380" y="466" type="line"/>
      <point x="295" y="466" type="line"/>
    </contour>
    <contour>
      <point x="-10" y="466" type="line"/>
      <point x="-24" y="396" type="line"/>
      <point x="455" y="396" type="line"/>
      <point x="469" y="466" type="line"/>
    </contour>
    <contour>
      <point x="19" y="270" type="line"/>
      <point x="1" y="228" type="line"/>
      <point x="35" y="95" type="line"/>
      <point x="34" y="95"/>
      <point x="94" y="98"/>
      <point x="94" y="98" type="curve"/>
      <point x="128" y="270" type="line"/>
    </contour>
    <contour>
      <point x="67" y="270" type="line"/>
      <point x="51" y="192" type="line"/>
      <point x="276" y="192" type="line"/>
      <point x="292" y="270" type="line"/>
    </contour>
    <contour>
      <point x="334" y="447" type="move" name="top"/>
    </contour>
    <contour>
      <point x="248" y="5" type="move" name="bottom"/>
    </contour>
  </outline>
</glyph>
<glyph name="nnna-deva" format="1">
  <advance width="445"/>
  <unicode hex="0929"/>
  <outline>
    <contour>
      <point x="204" y="0" type="line"/>
      <point x="289" y="0" type="line"/>
      <point x="380" y="466" type="line"/>
      <point x="295" y="466" type="line"/>
    </contour>
    <contour>
      <point x="-10" y="466" type="line"/>
      <point x="-24" y="396" type="line"/>
      <point x="455" y="396" type="line"/>
      <point x="469" y="466" type="line"/>
    </contour>
    <contour>
      <point x="21" y="280" type="line"/>
      <point x="3" y="238" type="line"/>
      <point x="37" y="105" type="line"/>
      <point x="36" y="105"/>
      <point x="96" y="108"/>
      <point x="96" y="108" type="curve"/>
      <point x="130" y="280" type="line"/>
    </contour>
    <contour>
      <point x="69" y="280" type="line"/>
      <point x="53" y="202" type="line"/>
      <point x="278" y="202" type="line"/>
      <point x="294" y="280" type="line"/>
    </contour>
    <component base="nukta-deva" xOffset="226" yOffset="64"/>
    <contour>
      <point x="334" y="447" type="move" name="top"/>
    </contour>
    <contour>
      <point x="238" y="-45" type="move" name="bottom"/>
    </contour>
  </outline>
</glyph>
<glyph name="padeva" format="1">
  <advance width="464"/>
  <unicode hex="092A"/>
  <outline>
    <contour>
      <point x="319" y="224"/>
      <point x="263" y="169"/>
      <point x="167" y="169" type="curve" smooth="yes"/>
      <point x="115" y="169"/>
      <point x="107" y="199"/>
      <point x="118" y="257" type="curve" smooth="yes"/>
      <point x="157" y="456" type="line"/>
      <point x="72" y="456" type="line"/>
      <point x="30" y="241" type="line" smooth="yes"/>
      <point x="14" y="160"/>
      <point x="62" y="91"/>
      <point x="164" y="91" type="curve" smooth="yes"/>
      <point x="235" y="91"/>
      <point x="303" y="134"/>
      <point x="303" y="134" type="curve"/>
      <point x="319" y="224" type="line"/>
    </contour>
    <contour>
      <point x="222" y="0" type="line"/>
      <point x="307" y="0" type="line"/>
      <point x="398" y="466" type="line"/>
      <point x="313" y="466" type="line"/>
    </contour>
    <contour>
      <point x="-10" y="466" type="line"/>
      <point x="-24" y="396" type="line"/>
      <point x="474" y="396" type="line"/>
      <point x="488" y="466" type="line"/>
    </contour>
    <contour>
      <point x="351" y="447" type="move" name="top"/>
    </contour>
    <contour>
      <point x="265" y="5" type="move" name="bottom"/>
    </contour>
  </outline>
</glyph>
<glyph name="pha-deva" format="1">
  <advance width="664"/>
  <unicode hex="092B"/>
  <outline>
    <contour>
      <point x="317" y="218"/>
      <point x="253" y="169"/>
      <point x="167" y="169" type="curve" smooth="yes"/>
      <point x="115" y="169"/>
      <point x="107" y="201"/>
      <point x="118" y="257" type="curve" smooth="yes"/>
      <point x="157" y="456" type="line"/>
      <point x="72" y="456" type="line"/>
      <point x="29" y="237" type="line" smooth="yes"/>
      <point x="14" y="157"/>
      <point x="62" y="93"/>
      <point x="164" y="93" type="curve" smooth="yes"/>
      <point x="235" y="93"/>
      <point x="304" y="136"/>
      <point x="304" y="136" type="curve"/>
      <point x="317" y="218" type="line"/>
    </contour>
    <contour>
      <point x="222" y="0" type="line"/>
      <point x="304" y="0" type="line"/>
      <point x="395" y="466" type="line"/>
      <point x="313" y="466" type="line"/>
    </contour>
    <contour>
      <point x="-10" y="466" type="line"/>
      <point x="-24" y="396" type="line"/>
      <point x="674" y="396" type="line"/>
      <point x="688" y="466" type="line"/>
    </contour>
    <contour>
      <point x="586" y="293"/>
      <point x="533" y="345"/>
      <point x="449" y="345" type="curve" smooth="yes"/>
      <point x="379" y="345"/>
      <point x="340" y="310"/>
      <point x="310" y="292" type="curve"/>
      <point x="313" y="208" type="line"/>
      <point x="330" y="220"/>
      <point x="392" y="267"/>
      <point x="440" y="267" type="curve" smooth="yes"/>
      <point x="483" y="267"/>
      <point x="495" y="244"/>
      <point x="488" y="212" type="curve" smooth="yes"/>
      <point x="479" y="162"/>
      <point x="438" y="134"/>
      <point x="413" y="114" type="curve"/>
      <point x="463" y="53" type="line"/>
      <point x="509" y="86"/>
      <point x="555" y="131"/>
      <point x="567" y="197" type="curve" smooth="yes"/>
    </contour>
    <contour>
      <point x="350" y="447" type="move" name="top"/>
    </contour>
    <contour>
      <point x="264" y="5" type="move" name="bottom"/>
    </contour>
  </outline>
</glyph>
<glyph name="ba-deva" format="1">
  <advance width="449"/>
  <unicode hex="092C"/>
  <outline>
    <contour>
      <point x="-10" y="466" type="line"/>
      <point x="-24" y="396" type="line"/>
      <point x="459" y="396" type="line"/>
      <point x="473" y="466" type="line"/>
    </contour>
    <contour>
      <point x="85" y="242"/>
      <point x="135" y="268"/>
      <point x="183" y="268" type="curve" smooth="yes"/>
      <point x="233" y="268"/>
      <point x="253" y="243"/>
      <point x="267" y="230" type="curve"/>
      <point x="292" y="299" type="line"/>
      <point x="268" y="315"/>
      <point x="240" y="342"/>
      <point x="174" y="342" type="curve" smooth="yes"/>
      <point x="93" y="342"/>
      <point x="17" y="295"/>
      <point x="0" y="204" type="curve" smooth="yes"/>
      <point x="-19" y="109"/>
      <point x="42" y="53"/>
      <point x="127" y="53" type="curve" smooth="yes"/>
      <point x="187" y="53"/>
      <point x="225" y="73"/>
      <point x="256" y="91" type="curve"/>
      <point x="251" y="172" type="line"/>
      <point x="233" y="160"/>
      <point x="199" y="125"/>
      <point x="145" y="125" type="curve" smooth="yes"/>
      <point x="101" y="125"/>
      <point x="66" y="146"/>
      <point x="75" y="190" type="curve" smooth="yes"/>
    </contour>
    <contour>
      <point x="208" y="0" type="line"/>
      <point x="293" y="0" type="line"/>
      <point x="384" y="466" type="line"/>
      <point x="299" y="466" type="line"/>
    </contour>
    <contour>
      <point x="215" y="90" type="line"/>
      <point x="262" y="130" type="line"/>
      <point x="126" y="306" type="line"/>
      <point x="72" y="270" type="line"/>
    </contour>
    <contour>
      <point x="337" y="447" type="move" name="top"/>
    </contour>
    <contour>
      <point x="251" y="5" type="move" name="bottom"/>
    </contour>
  </outline>
</glyph>
<glyph name="ya-deva" format="1">
  <advance width="478"/>
  <unicode hex="092F"/>
  <outline>
    <contour>
      <point x="283" y="182"/>
      <point x="223" y="156"/>
      <point x="170" y="156" type="curve" smooth="yes"/>
      <point x="138" y="156"/>
      <point x="115" y="167"/>
      <point x="100" y="180" type="curve"/>
      <point x="152" y="223"/>
      <point x="178" y="250"/>
      <point x="187" y="299" type="curve" smooth="yes"/>
      <point x="198" y="353"/>
      <point x="173" y="412"/>
      <point x="127" y="454" type="curve"/>
      <point x="34" y="458" type="line"/>
      <point x="86" y="416"/>
      <point x="117" y="359"/>
      <point x="104" y="314" type="curve" smooth="yes"/>
      <point x="90" y="261"/>
      <point x="46" y="236"/>
      <point x="11" y="219" type="curve"/>
      <point x="-6" y="188" type="line"/>
      <point x="11" y="134"/>
      <point x="77" y="76"/>
      <point x="170" y="76" type="curve" smooth="yes"/>
      <point x="240" y="76"/>
      <point x="299" y="121"/>
      <point x="299" y="121" type="curve"/>
      <point x="318" y="227" type="line"/>
    </contour>
    <contour>
      <point x="-10" y="466" type="line"/>
      <point x="-24" y="396" type="line"/>
      <point x="488" y="396" type="line"/>
      <point x="502" y="466" type="line"/>
    </contour>
    <contour>
      <point x="237" y="0" type="line"/>
      <point x="322" y="0" type="line"/>
      <point x="413" y="466" type="line"/>
      <point x="328" y="466" type="line"/>
    </contour>
    <contour>
      <point x="366" y="447" type="move" name="top"/>
    </contour>
    <contour>
      <point x="280" y="5" type="move" name="bottom"/>
    </contour>
  </outline>
</glyph>
<glyph name="ra-deva" format="1">
  <advance width="329"/>
  <unicode hex="0930"/>
  <outline>
    <contour>
      <point x="101" y="424"/>
      <point x="174" y="406"/>
      <point x="156" y="313" type="curve" smooth="yes"/>
      <point x="138" y="220"/>
      <point x="32" y="213"/>
      <point x="33" y="210" type="curve" smooth="yes"/>
      <point x="34" y="213"/>
      <point x="48" y="148"/>
      <point x="51" y="148" type="curve"/>
      <point x="112" y="148"/>
      <point x="216" y="192"/>
      <point x="237" y="297" type="curve" smooth="yes"/>
      <point x="258" y="407"/>
      <point x="191" y="447"/>
      <point x="191" y="447" type="curve"/>
      <point x="100" y="424" type="line"/>
    </contour>
    <contour>
      <point x="112" y="-20" type="line"/>
      <point x="111" y="-20"/>
      <point x="194" y="30"/>
      <point x="194" y="30" type="curve"/>
      <point x="55" y="254" type="line"/>
      <point x="-15" y="205" type="line"/>
    </contour>
    <contour>
      <point x="-10" y="466" type="line"/>
      <point x="-24" y="396" type="line"/>
      <point x="339" y="396" type="line"/>
      <point x="353" y="466" type="line"/>
    </contour>
    <contour>
      <point x="180" y="447" type="move" name="top"/>
    </contour>
    <contour>
      <point x="71" y="-50" type="move" name="bottom"/>
    </contour>
  </outline>
</glyph>
<glyph name="la-deva" format="1">
  <advance width="559"/>
  <unicode hex="0932"/>
  <outline>
    <contour>
      <point x="319" y="0" type="line"/>
      <point x="403" y="0" type="line"/>
      <point x="494" y="466" type="line"/>
      <point x="410" y="466" type="line"/>
    </contour>
    <contour>
      <point x="-10" y="466" type="line"/>
      <point x="-24" y="396" type="line"/>
      <point x="569" y="396" type="line"/>
      <point x="583" y="466" type="line"/>
    </contour>
    <contour>
      <point x="253" y="274"/>
      <point x="220" y="311"/>
      <point x="153" y="311" type="curve" smooth="yes"/>
      <point x="80" y="311"/>
      <point x="16" y="262"/>
      <point x="0" y="179" type="curve" smooth="yes"/>
      <point x="-20" y="77"/>
      <point x="57" y="-22"/>
      <point x="57" y="-22" type="curve"/>
      <point x="139" y="10" type="line"/>
      <point x="121" y="32"/>
      <point x="70" y="108"/>
      <point x="81" y="162" type="curve" smooth="yes"/>
      <point x="89" y="205"/>
      <point x="113" y="230"/>
      <point x="157" y="230" type="curve" smooth="yes"/>
      <point x="196" y="230"/>
      <point x="206" y="185"/>
      <point x="206" y="185" type="curve"/>
      <point x="274" y="233" type="line"/>
    </contour>
    <contour>
      <point x="174" y="121"/>
      <point x="253" y="108"/>
      <point x="253" y="105" type="curve"/>
      <point x="253" y="112"/>
      <point x="256" y="137"/>
      <point x="259" y="155" type="curve" smooth="yes"/>
      <point x="269" y="204"/>
      <point x="301" y="232"/>
      <point x="342" y="231" type="curve" smooth="yes"/>
      <point x="365" y="230"/>
      <point x="384" y="223"/>
      <point x="400" y="209" type="curve"/>
      <point x="405" y="292" type="line"/>
      <point x="385" y="305"/>
      <point x="364" y="309"/>
      <point x="343" y="309" type="curve" smooth="yes"/>
      <point x="269" y="309"/>
      <point x="201" y="274"/>
      <point x="182" y="176" type="curve" smooth="yes"/>
      <point x="180" y="162"/>
      <point x="176" y="131"/>
      <point x="175" y="124" type="curve"/>
    </contour>
    <contour>
      <point x="448" y="447" type="move" name="top"/>
    </contour>
    <contour>
      <point x="362" y="5" type="move" name="bottom"/>
    </contour>
  </outline>
</glyph>
<glyph name="lla-deva" format="1">
  <advance width="608"/>
  <unicode hex="0933"/>
  <outline>
    <contour>
      <point x="361" y="280" type="line"/>
      <point x="436" y="280" type="line"/>
      <point x="472" y="466" type="line"/>
      <point x="397" y="466" type="line"/>
    </contour>
    <contour>
      <point x="-10" y="466" type="line"/>
      <point x="-24" y="396" type="line"/>
      <point x="618" y="396" type="line"/>
      <point x="632" y="466" type="line"/>
    </contour>
    <contour>
      <point x="273" y="135" type="line"/>
      <point x="308" y="185"/>
      <point x="345" y="240"/>
      <point x="388" y="240" type="curve" smooth="yes"/>
      <point x="425" y="240"/>
      <point x="432" y="208"/>
      <point x="425" y="173" type="curve" smooth="yes"/>
      <point x="415" y="124"/>
      <point x="386" y="101"/>
      <point x="350" y="101" type="curve" smooth="yes"/>
      <point x="310" y="101"/>
      <point x="296" y="161"/>
      <point x="286" y="195" type="curve"/>
      <point x="230" y="125" type="line"/>
      <point x="250" y="71"/>
      <point x="279" y="21"/>
      <point x="351" y="21" type="curve" smooth="yes"/>
      <point x="439" y="21"/>
      <point x="490" y="82"/>
      <point x="505" y="160" type="curve" smooth="yes"/>
      <point x="522" y="246"/>
      <point x="492" y="320"/>
      <point x="399" y="320" type="curve" smooth="yes"/>
      <point x="332" y="320"/>
      <point x="287" y="284"/>
      <point x="228" y="198" type="curve"/>
    </contour>
    <contour>
      <point x="276" y="144"/>
      <point x="233" y="200"/>
      <point x="233" y="204" type="curve"/>
      <point x="198" y="157"/>
      <point x="161" y="102"/>
      <point x="118" y="102" type="curve" smooth="yes"/>
      <point x="81" y="102"/>
      <point x="74" y="134"/>
      <point x="81" y="169" type="curve" smooth="yes"/>
      <point x="90" y="218"/>
      <point x="120" y="241"/>
      <point x="156" y="241" type="curve" smooth="yes"/>
      <point x="196" y="241"/>
      <point x="209" y="181"/>
      <point x="220" y="147" type="curve"/>
      <point x="275" y="217" type="line"/>
      <point x="256" y="271"/>
      <point x="226" y="321"/>
      <point x="154" y="321" type="curve" smooth="yes"/>
      <point x="66" y="321"/>
      <point x="16" y="260"/>
      <point x="0" y="182" type="curve" smooth="yes"/>
      <point x="-16" y="96"/>
      <point x="13" y="22"/>
      <point x="103" y="22" type="curve" smooth="yes"/>
      <point x="173" y="22"/>
      <point x="218" y="58"/>
      <point x="276" y="141" type="curve"/>
    </contour>
    <contour>
      <point x="431" y="447" type="move" name="top"/>
    </contour>
    <contour>
      <point x="341" y="-5" type="move" name="bottom"/>
    </contour>
  </outline>
</glyph>
<glyph name="llla-deva" format="1">
  <advance width="608"/>
  <unicode hex="0934"/>
  <outline>
    <component base="lla-deva"/>
    <component base="nukta-deva" xOffset="379" yOffset="40"/>
    <contour>
      <point x="431" y="447" type="move" name="top"/>
    </contour>
    <contour>
      <point x="288" y="-125" type="move" name="bottom"/>
    </contour>
  </outline>
</glyph>
<glyph name="va-deva" format="1">
  <advance width="440"/>
  <unicode hex="0935"/>
  <outline>
    <contour>
      <point x="-10" y="466" type="line"/>
      <point x="-24" y="396" type="line"/>
      <point x="450" y="396" type="line"/>
      <point x="464" y="466" type="line"/>
    </contour>
    <contour>
      <point x="89" y="242"/>
      <point x="136" y="265"/>
      <point x="184" y="265" type="curve" smooth="yes"/>
      <point x="234" y="265"/>
      <point x="254" y="242"/>
      <point x="267" y="225" type="curve"/>
      <point x="293" y="300" type="line"/>
      <point x="270" y="316"/>
      <point x="241" y="343"/>
      <point x="175" y="343" type="curve" smooth="yes"/>
      <point x="94" y="343"/>
      <point x="18" y="297"/>
      <point x="0" y="204" type="curve" smooth="yes"/>
      <point x="-19" y="107"/>
      <point x="43" y="52"/>
      <point x="128" y="52" type="curve" smooth="yes"/>
      <point x="188" y="52"/>
      <point x="226" y="72"/>
      <point x="257" y="90" type="curve"/>
      <point x="252" y="172" type="line"/>
      <point x="234" y="160"/>
      <point x="201" y="129"/>
      <point x="147" y="129" type="curve" smooth="yes"/>
      <point x="103" y="129"/>
      <point x="70" y="146"/>
      <point x="79" y="190" type="curve" smooth="yes"/>
    </contour>
    <contour>
      <point x="199" y="0" type="line"/>
      <point x="284" y="0" type="line"/>
      <point x="375" y="466" type="line"/>
      <point x="290" y="466" type="line"/>
    </contour>
    <contour>
      <point x="328" y="447" type="move" name="top"/>
    </contour>
    <contour>
      <point x="242" y="5" type="move" name="bottom"/>
    </contour>
  </outline>
</glyph>
<glyph name="sha-deva" format="1">
  <advance width="577"/>
  <unicode hex="0936"/>
  <outline>
    <contour>
      <point x="311" y="423"/>
      <point x="262" y="479"/>
      <point x="186" y="479" type="curve" smooth="yes"/>
      <point x="129" y="479"/>
      <point x="70" y="446"/>
      <point x="57" y="380" type="curve" smooth="yes"/>
      <point x="47" y="326"/>
      <point x="70" y="293"/>
      <point x="114" y="264" type="curve"/>
      <point x="162" y="320" type="line"/>
      <point x="140" y="338"/>
      <point x="131" y="348"/>
      <point x="134" y="365" type="curve" smooth="yes"/>
      <point x="139" y="389"/>
      <point x="158" y="403"/>
      <point x="181" y="403" type="curve" smooth="yes"/>
      <point x="205" y="403"/>
      <point x="220" y="382"/>
      <point x="216" y="355" type="curve" smooth="yes"/>
      <point x="203" y="256"/>
      <point x="93" y="202"/>
      <point x="54" y="183" type="curve"/>
      <point x="101" y="116" type="line"/>
      <point x="171" y="157"/>
      <point x="272" y="222"/>
      <point x="293" y="331" type="curve" smooth="yes"/>
    </contour>
    <contour>
      <point x="-16" y="158"/>
      <point x="4" y="123"/>
      <point x="61" y="117" type="curve"/>
      <point x="152" y="-23" type="line"/>
      <point x="151" y="-23"/>
      <point x="224" y="34"/>
      <point x="224" y="34" type="curve"/>
      <point x="54" y="251" type="line"/>
      <point x="21" y="246"/>
      <point x="-3" y="224"/>
      <point x="-8" y="198" type="curve" smooth="yes"/>
    </contour>
    <contour>
      <point x="353" y="466" type="line"/>
      <point x="339" y="396" type="line"/>
      <point x="586" y="396" type="line"/>
      <point x="600" y="466" type="line"/>
    </contour>
    <contour>
      <point x="335" y="0" type="line"/>
      <point x="420" y="0" type="line"/>
      <point x="511" y="466" type="line"/>
      <point x="426" y="466" type="line"/>
    </contour>
    <contour>
      <point x="465" y="447" type="move" name="top"/>
    </contour>
    <contour>
      <point x="379" y="5" type="move" name="bottom"/>
    </contour>
  </outline>
</glyph>
<glyph name="sa-deva" format="1">
  <advance width="557"/>
  <unicode hex="0938"/>
  <outline>
    <contour>
      <point x="-10" y="466" type="line"/>
      <point x="-24" y="396" type="line"/>
      <point x="567" y="396" type="line"/>
      <point x="581" y="466" type="line"/>
    </contour>
    <contour>
      <point x="316" y="0" type="line"/>
      <point x="401" y="0" type="line"/>
      <point x="492" y="466" type="line"/>
      <point x="407" y="466" type="line"/>
    </contour>
    <contour>
      <point x="397" y="250"/>
      <point x="347" y="223"/>
      <point x="273" y="223" type="curve" smooth="yes"/>
      <point x="208" y="223"/>
      <point x="200" y="232"/>
      <point x="167" y="247" type="curve"/>
      <point x="100" y="191" type="line"/>
      <point x="153" y="161"/>
      <point x="213" y="148"/>
      <point x="257" y="148" type="curve" smooth="yes"/>
      <point x="321" y="148"/>
      <point x="383" y="170"/>
      <point x="383" y="170" type="curve"/>
      <point x="397" y="250" type="line"/>
    </contour>
    <contour>
      <point x="111" y="424"/>
      <point x="178" y="406"/>
      <point x="160" y="313" type="curve" smooth="yes"/>
      <point x="142" y="220"/>
      <point x="32" y="213"/>
      <point x="33" y="210" type="curve" smooth="yes"/>
      <point x="34" y="213"/>
      <point x="48" y="147"/>
      <point x="51" y="147" type="curve"/>
      <point x="112" y="147"/>
      <point x="216" y="192"/>
      <point x="237" y="297" type="curve" smooth="yes"/>
      <point x="258" y="407"/>
      <point x="196" y="447"/>
      <point x="196" y="447" type="curve"/>
      <point x="110" y="424" type="line"/>
    </contour>
    <contour>
      <point x="112" y="-20" type="line"/>
      <point x="111" y="-20"/>
      <point x="194" y="30"/>
      <point x="194" y="30" type="curve"/>
      <point x="55" y="254" type="line"/>
      <point x="-15" y="205" type="line"/>
    </contour>
    <contour>
      <point x="446" y="447" type="move" name="top"/>
    </contour>
    <contour>
      <point x="360" y="5" type="move" name="bottom"/>
    </contour>
  </outline>
</glyph>
<glyph name="hadeva" format="1">
  <advance width="436"/>
  <unicode hex="0939"/>
  <outline>
    <contour>
      <point x="-10" y="466" type="line"/>
      <point x="-24" y="396" type="line"/>
      <point x="446" y="396" type="line"/>
      <point x="460" y="466" type="line"/>
    </contour>
    <contour>
      <point x="134" y="198"/>
      <point x="105" y="210"/>
      <point x="110" y="235" type="curve" smooth="yes"/>
      <point x="115" y="262"/>
      <point x="146" y="272"/>
      <point x="198" y="272" type="curve" smooth="yes"/>
      <point x="250" y="272"/>
      <point x="270" y="267"/>
      <point x="304" y="263" type="curve"/>
      <point x="314" y="270" type="line"/>
      <point x="351" y="466" type="line"/>
      <point x="275" y="466" type="line"/>
      <point x="247" y="341" type="line"/>
      <point x="232" y="344"/>
      <point x="210" y="346"/>
      <point x="195" y="346" type="curve" smooth="yes"/>
      <point x="104" y="346"/>
      <point x="44" y="320"/>
      <point x="31" y="253" type="curve" smooth="yes"/>
      <point x="22" y="204"/>
      <point x="40" y="178"/>
      <point x="64" y="145" type="curve"/>
      <point x="136" y="198" type="line"/>
    </contour>
    <contour>
      <point x="-20" y="-24"/>
      <point x="66" y="-80"/>
      <point x="217" y="-80" type="curve"/>
      <point x="242" y="-8" type="line"/>
      <point x="134" y="-8"/>
      <point x="64" y="15"/>
      <point x="75" y="71" type="curve" smooth="yes"/>
      <point x="84" y="118"/>
      <point x="128" y="145"/>
      <point x="186" y="145" type="curve"/>
      <point x="215" y="143"/>
      <point x="237" y="138"/>
      <point x="233" y="117" type="curve" smooth="yes"/>
      <point x="229" y="97"/>
      <point x="216" y="88"/>
      <point x="207" y="79" type="curve"/>
      <point x="263" y="32" type="line"/>
      <point x="283" y="51"/>
      <point x="302" y="74"/>
      <point x="308" y="104" type="curve" smooth="yes"/>
      <point x="323" y="179"/>
      <point x="268" y="217"/>
      <point x="186" y="217" type="curve" smooth="yes"/>
      <point x="149" y="217"/>
      <point x="119" y="208"/>
      <point x="87" y="197" type="curve" smooth="yes"/>
      <point x="44" y="175"/>
      <point x="11" y="135"/>
      <point x="2" y="87" type="curve" smooth="yes"/>
    </contour>
    <contour>
      <point x="310" y="447" type="move" name="top"/>
    </contour>
    <contour>
      <point x="144" y="-120" type="move" name="bottom"/>
    </contour>
  </outline>
</glyph>
<glyph name="nuktadeva" format="1">
  <advance width="0"/>
  <unicode hex="093C"/>
  <outline>
    <contour>
      <point x="-131" y="-114"/>
      <point x="-114" y="-100"/>
      <point x="-110" y="-77" type="curve" smooth="yes"/>
      <point x="-104" y="-45"/>
      <point x="-120" y="-25"/>
      <point x="-150" y="-25" type="curve" smooth="yes"/>
      <point x="-175" y="-25"/>
      <point x="-191" y="-39"/>
      <point x="-196" y="-63" type="curve" smooth="yes"/>
      <point x="-202" y="-94"/>
      <point x="-186" y="-114"/>
      <point x="-157" y="-114" type="curve" smooth="yes"/>
    </contour>
  </outline>
</glyph>
